<?xml version="1.0" standalone="no"?>
<!DOCTYPE svg PUBLIC "-//W3C//DTD SVG 1.1//EN" "http://www.w3.org/Graphics/SVG/1.1/DTD/svg11.dtd" >
<svg>
<metadata>
Created by FontForge 20090622 at Thu Mar 17 19:09:41 2016
 By deploy user
Copyright (c) 1989, 1992, 1996, 1998, 1999 Adobe Systems Incorporated.  All Rights Reserved.Adobe Garamond is a registered trademark of Adobe Systems Incorporated.
</metadata>
<defs>
<font id="AGaramond-Bold" horiz-adv-x="520" >
  <font-face 
    font-family="Adobe Garamond"
    font-weight="700"
    font-stretch="normal"
    units-per-em="1000"
    panose-1="2 0 8 3 7 0 0 2 0 3"
    ascent="800"
    descent="-200"
    x-height="403"
    cap-height="663"
    bbox="-158 -269 1147 862"
    underline-thickness="50"
    underline-position="-50"
    unicode-range="U+0020-U+FB02"
  />
<missing-glyph horiz-adv-x="260" 
 />
    <glyph glyph-name="fi" unicode="fi" horiz-adv-x="566" 
d="M84 318q0 20 -4 24t-21 4h-37q-5 3 -6 13t3 14l43 22q10 5 16 10.5t6 15.5q0 38 7 82t24 81q13 27 31.5 51t44 42t59 28t75.5 10q76 0 121 -30t45 -73q0 -31 -21.5 -48t-49.5 -17q-14 0 -26.5 5.5t-18.5 15.5t-13 25.5t-14 26.5q-15 26 -29.5 35.5t-32.5 9.5
q-12 0 -25 -8t-23.5 -28.5t-17 -56t-6.5 -91.5v-56q0 -20 4 -22.5t22 -2.5h77q54 0 99.5 1.5t65.5 6.5q6 0 11 -3.5t6 -11.5q-2 -24 -3.5 -54t-1.5 -61v-162q0 -27 1 -43t5 -24.5t11.5 -12t19.5 -4.5l16 -2q6 -5 6 -16.5t-7 -16.5q-24 2 -54 2.5t-63 0.5q-62 0 -110 -3
q-7 5 -7 16.5t6 16.5l16 2q10 1 16 4.5t9 12t4 24.5t1 43v143q0 29 -1 46.5t-6.5 26.5t-16 11.5t-28.5 2.5h-72q-18 0 -22 -3.5t-4 -22.5v-204q0 -27 1 -43t5 -24.5t11.5 -12t19.5 -4.5l13 -2q6 -5 6 -16.5t-7 -16.5q-44 3 -116 3q-67 0 -115 -3q-7 5 -7 16.5t6 16.5l16 2
q12 1 19.5 4.5t11.5 12t5 24.5t1 43v202z" />
    <glyph glyph-name="fl" unicode="fl" horiz-adv-x="566" 
d="M337 400q18 0 22.5 3t4.5 22v161q0 12 -4 26t-12.5 26t-21 20.5t-29.5 8.5q-15 0 -29.5 -9.5t-26.5 -33.5t-19.5 -66t-7.5 -107v-23q0 -20 3.5 -24t22.5 -4h97zM22 346q-5 3 -6 13t3 14l43 22q10 5 16 10.5t6 15.5q0 44 7 90.5t23 80.5q25 53 73.5 88t119.5 35
q40 0 65 -9t42 -21q18 6 34 13.5t32 16.5q11 0 17 -7q-2 -31 -2.5 -64.5t-0.5 -81.5v-446q0 -26 1 -41.5t5 -24t11.5 -12t19.5 -4.5l16 -2q6 -5 6 -17.5t-7 -17.5q-24 2 -54.5 2.5t-62.5 0.5q-62 0 -110 -3q-7 5 -7 16.5t6 16.5l16 2q10 1 16 4.5t9 12t4 24.5t1 43v205
q0 19 -4.5 22t-22.5 3h-97q-19 0 -22.5 -4t-3.5 -24v-202q0 -27 1 -43t5 -24.5t11.5 -12t19.5 -4.5l13 -2q6 -5 6 -16.5t-7 -16.5q-44 3 -116 3q-31 0 -61 -0.5t-54 -2.5q-7 5 -7 17.5t6 17.5l16 2q12 1 19.5 4.5t11.5 12t5 24t1 41.5v202q0 20 -4 24t-21 4h-37z" />
    <glyph glyph-name=".notdef" horiz-adv-x="260" 
 />
    <glyph glyph-name=".null" horiz-adv-x="0" 
 />
    <glyph glyph-name="nonmarkingreturn" horiz-adv-x="260" 
 />
    <glyph glyph-name="space" unicode=" " horiz-adv-x="260" 
 />
    <glyph glyph-name="space" unicode="&#xa0;" horiz-adv-x="260" 
 />
    <glyph glyph-name="dollar" unicode="$" 
d="M329 626q35 -2 64 -8.5t49 -11.5q6 -17 11.5 -53t5.5 -77q-4 -7 -16 -8.5t-18 5.5q-4 12 -11.5 28t-20 31t-30 27.5t-40.5 18.5l-23 -194l49 -21q21 -9 44.5 -24t44 -37.5t33.5 -52t13 -67.5q0 -80 -61 -129.5t-169 -52.5l-11 -93q-2 -4 -9 -6t-15 -2t-15 2t-9 6l11 95
q-54 3 -89.5 16t-48.5 22q-7 7 -13 22t-10 34t-6.5 41.5t-2.5 45.5q5 8 16 9t18 -7q6 -20 19 -41.5t31.5 -40.5t41.5 -33.5t50 -20.5l27 225l-32 14q-26 11 -50 26t-43 35.5t-30.5 46.5t-11.5 59q0 37 14.5 68t41.5 53.5t66 35.5t87 15l9 76q2 4 9 5.5t15 1.5t15 -1.5
t9 -5.5zM260 46q51 4 75 30.5t24 67.5q0 32 -17.5 60t-57.5 49zM276 581q-45 -3 -67 -27.5t-22 -59.5q0 -29 17.5 -50t50.5 -38z" />
    <glyph glyph-name="percent" unicode="%" horiz-adv-x="866" 
d="M268 -40q-14 -3 -27 4t-18 20l186.5 335l183.5 335q11 2 26 -4.5t19 -19.5l-186.5 -335zM142 447q0 -20 2 -47t9 -51t19.5 -40.5t33.5 -16.5t33 17t18 41t7.5 50.5t1.5 46.5q0 19 -1.5 45.5t-7.5 50.5t-18 40.5t-33 16.5t-33.5 -16t-19.5 -39.5t-9 -50t-2 -47.5zM204 252
q-44 0 -75 19t-50 48t-27.5 63t-8.5 64t8.5 64t27.5 63t50 48t75 19t75 -19t50 -48t27.5 -63t8.5 -64t-8.5 -64t-27.5 -63t-50 -48t-75 -19zM601 183q0 -20 2 -47t9 -51t19.5 -40.5t33.5 -16.5t33 17t18 41t7.5 50.5t1.5 46.5q0 19 -1.5 45.5t-7.5 50.5t-18 40.5t-33 16.5
t-33.5 -16t-19.5 -39.5t-9 -50t-2 -47.5zM663 -12q-44 0 -75 19t-50 48t-27.5 63t-8.5 64t8.5 64t27.5 63t50 48t75 19t75 -19t50 -48t27.5 -63t8.5 -64t-8.5 -64t-27.5 -63t-50 -48t-75 -19z" />
    <glyph glyph-name="ampersand" unicode="&#x26;" horiz-adv-x="825" 
d="M375 520q0 28 -14.5 52t-45.5 24q-26 0 -43 -20.5t-17 -52.5q0 -27 11 -46.5t24.5 -33t26 -20t15.5 -7.5q4 1 11 9.5t14 22t12.5 32t5.5 40.5zM189 203q0 -32 11 -57t29.5 -42.5t43 -27t51.5 -9.5q28 0 50.5 9.5t38 21t24 21.5t8.5 11q0 2 -3 7.5t-13 21.5q-15 25 -34 48
t-39.5 42.5t-40 34.5t-35.5 25q-9 6 -14.5 10t-9.5 4q-2 0 -12.5 -7.5t-22.5 -22.5t-22 -37.5t-10 -52.5zM313 640q36 0 65 -10.5t49.5 -28.5t31 -42.5t10.5 -52.5q0 -27 -10.5 -46.5t-25 -33.5t-30 -23.5l-26.5 -16.5q40 -21 78.5 -59.5t70.5 -80.5q17 29 28.5 52.5
t24.5 53.5q11 24 18 43.5t7 26.5q0 13 -27 18l-18 3q-7 5 -6 18.5t9 16.5h41q58 0 108 2t89 4q4 -2 6.5 -6.5t3 -10t-1.5 -11t-6 -7.5l-27 -4q-25 -4 -41.5 -13t-25.5 -17q-17 -13 -35.5 -40.5l-39.5 -59.5l-17 -24.5l-17 -26.5l-15 -23.5l-11 -16.5q-4 -5 -8 -12t-6 -14h2
q0 3 3 -4t14 -25q13 -17 25.5 -35.5t29 -34t38.5 -25.5t55 -10q27 0 53 9.5t37 17.5q6 -2 10 -10t2 -15q-9 -11 -26.5 -25t-42.5 -26t-57.5 -20.5t-72.5 -8.5q-53 0 -83.5 13.5t-40.5 29.5q-5 9 -15 23.5t-18 31.5q-21 -20 -42 -37.5t-45 -31t-52 -21.5t-63 -8
q-50 0 -89.5 13.5t-67.5 37.5t-42.5 56.5t-14.5 71.5q0 43 17 76t41 57t50.5 39.5t46.5 23.5q-27 21 -46 52.5t-19 67.5q0 38 14.5 67.5t38.5 50t54 31t60 10.5z" />
    <glyph glyph-name="quoteright" unicode="&#x2019;" horiz-adv-x="253" 
d="M114 700q15 0 32.5 -7t32.5 -21.5t24.5 -37.5t9.5 -56q0 -35 -13 -63t-35 -49.5t-50.5 -36t-59.5 -21.5q-13 2 -15.5 14t5.5 17q13 5 28 13.5t28 20.5t21 26.5t8 32.5q0 16 -5 26.5t-13.5 18t-18 11.5t-18.5 6q-13 4 -21.5 15.5t-8.5 28.5q0 26 20 44t49 18z" />
    <glyph glyph-name="parenleft" unicode="(" horiz-adv-x="340" 
d="M181 270q0 -54 8 -112t26 -113t46 -104t69 -85q0 -7 -4 -12.5t-13 -6.5q-59 32 -102 79.5t-71 105t-42 121t-14 127.5t14 127.5t42 121t71 105t102 79.5q9 -1 13 -6.5t4 -12.5q-41 -36 -69 -85t-46 -104t-26 -113t-8 -112z" />
    <glyph glyph-name="parenright" unicode=")" horiz-adv-x="340" 
d="M159 270q0 54 -8 112t-26 113t-46.5 104t-68.5 85q0 7 4 12.5t13 6.5q58 -32 101.5 -79.5t71.5 -105t42 -121t14 -127.5t-14 -127.5t-42 -121t-71.5 -105t-101.5 -79.5q-9 1 -13 6.5t-4 12.5q40 36 68.5 85t46.5 104t26 113t8 112z" />
    <glyph glyph-name="asterisk" unicode="*" horiz-adv-x="405" 
d="M355 605q8 -2 13 -11t3 -20l-114 -80l113 -78q2 -9 -2 -18t-12 -13l-125 64l-13 -132q-5 -4 -15.5 -4t-15.5 4l-13 132l-127 -64q-8 3 -11.5 11.5t-1.5 16.5l115 81l-115 81q-2 8 1.5 16.5t11.5 12.5l127 -65l13 133q6 4 16 4t15 -4l13 -133z" />
    <glyph glyph-name="plus" unicode="+" 
d="M217 0v177h-157v72h157v159h88v-159h156v-72h-156v-177h-88z" />
    <glyph glyph-name="comma" unicode="," horiz-adv-x="260" 
d="M116 168q16 0 34 -7t33.5 -22.5t25.5 -40t10 -59.5q0 -37 -13.5 -66t-36 -51t-52.5 -36.5t-62 -21.5q-7 1 -11 5t-5.5 9t0 10t5.5 8q14 5 30 14t29 21.5t21.5 28t8.5 33.5q0 16 -5.5 27.5t-14 19t-19 11.5t-19.5 7q-13 4 -22 16t-9 29q0 27 21 46t51 19z" />
    <glyph glyph-name="hyphen" unicode="-" horiz-adv-x="328" 
d="M284 259q14 -16 14 -42q0 -10 -3.5 -20.5t-9.5 -18.5l-240 -22q-6 6 -10.5 16t-4.5 24t4.5 23.5t10.5 17.5z" />
    <glyph glyph-name="hyphen" unicode="&#xad;" horiz-adv-x="328" 
d="M284 259q14 -16 14 -42q0 -10 -3.5 -20.5t-9.5 -18.5l-240 -22q-6 6 -10.5 16t-4.5 24t4.5 23.5t10.5 17.5z" />
    <glyph glyph-name="period" unicode="." horiz-adv-x="260" 
d="M130 -14q-15 0 -29.5 6t-26 16.5t-18.5 25.5t-7 33q0 35 23.5 59t57.5 24q18 0 33 -7t25.5 -18.5t16.5 -26.5t6 -31q0 -35 -22.5 -58t-58.5 -23z" />
    <glyph glyph-name="slash" unicode="/" horiz-adv-x="339" 
d="M110 -16h-90l209 692h90z" />
    <glyph glyph-name="zero" unicode="0" 
d="M175 313q0 -22 1 -51.5t4 -61t9 -61.5t15.5 -54t23 -38.5t32.5 -14.5t32.5 14.5t23 38.5t15.5 54t9 61.5t4 61t1 51.5t-1 51.5t-4 61t-9 61.5t-15.5 54t-23 38.5t-32.5 14.5t-32.5 -14.5t-23 -38.5t-15.5 -54t-9 -61.5t-4 -61t-1 -51.5zM260 640q61 0 104.5 -29.5
t71.5 -76t41.5 -105t13.5 -116.5q0 -60 -13.5 -119t-41.5 -105t-71.5 -74.5t-104.5 -28.5t-104.5 28.5t-71.5 74.5t-41.5 105t-13.5 119q0 58 13.5 116.5t41.5 105t71.5 76t104.5 29.5z" />
    <glyph glyph-name="one" unicode="1" 
d="M330 129q0 -30 1.5 -48t7.5 -27.5t17 -13.5t29 -5l41 -3q3 -2 4.5 -7.5t1.5 -11t-2 -10.5t-6 -6q-27 2 -69 2.5t-89 0.5q-50 0 -92.5 -0.5t-69.5 -2.5q-4 1 -6 6t-2 10.5t1.5 11t4.5 7.5l41 3q18 1 29 5t17 13.5t7.5 27.5t1.5 48v327q0 25 -1.5 41t-6 25.5t-14.5 14
t-26 6.5l-46 6q-7 4 -7.5 17t5.5 18q31 5 64.5 12.5t63.5 15.5q33 10 58.5 21t30.5 11q4 0 8 -2.5t6 -8.5q-2 -17 -2.5 -49t-0.5 -70v-385z" />
    <glyph glyph-name="two" unicode="2" 
d="M342 103q27 0 44.5 1t29 6.5t20.5 16.5t20 31q5 5 18 4.5t16 -10.5q-3 -23 -9 -47t-12.5 -45t-14 -37.5t-13.5 -25.5q-15 1 -29.5 1.5t-31.5 0.5q-17 1 -36 1h-43h-159q-39 0 -69 -0.5t-43 -2.5q-7 2 -9.5 8.5t-0.5 13.5l69.5 65t85.5 89q26 28 49.5 58.5t41.5 63.5
t29 69t11 76q0 52 -29 87t-80 35q-43 0 -74 -25t-55 -67q-9 -6 -20 -2t-13 16q31 76 94 116t136 40q44 0 79 -13.5t59.5 -36.5t37.5 -54t13 -66q0 -29 -6.5 -55.5t-23.5 -55t-46.5 -61.5t-74.5 -75l-48 -45q-33 -31 -43 -44t-10 -19q0 -5 4 -8.5t15 -3.5h121z" />
    <glyph glyph-name="three" unicode="3" 
d="M213 577q-36 0 -68 -24.5t-55 -58.5q-11 -3 -19.5 3.5t-8.5 15.5q30 61 85.5 94t123.5 33q74 0 116.5 -32t42.5 -83q0 -15 -4.5 -30.5t-18 -31.5t-38 -32.5t-65.5 -34.5q-8 -4 -4.5 -8.5t13.5 -4.5q34 1 64.5 -9.5t53.5 -31t36.5 -49.5t13.5 -65q0 -54 -27.5 -106.5
t-87.5 -97.5q-32 -23 -64.5 -38.5t-63 -24.5t-57 -13t-46.5 -4t-39.5 4t-34.5 12.5t-24.5 22t-9.5 32.5q0 20 15 37.5t45 17.5q13 0 24 -6.5t19.5 -15t14.5 -17.5t9 -14q9 -14 20.5 -18.5t22.5 -4.5q16 0 39 11t44 33t36 56t15 80q0 67 -31.5 110t-85.5 43
q-31 0 -55.5 -12.5t-43.5 -29.5q-15 3 -22.5 17t-0.5 31l36.5 14.5t44 19t44 23t36.5 24.5q14 11 28 33.5t14 56.5q0 28 -22.5 50.5t-59.5 22.5z" />
    <glyph glyph-name="four" unicode="4" 
d="M277 157q0 20 -3.5 24.5t-19.5 4.5h-231q-9 4 -11.5 13t0.5 19l325 464q8 12 15 18t18 6h29q13 0 17 -6t-7 -21l-300 -416q-7 -10 -4.5 -15.5t26.5 -5.5h123q16 0 19.5 4.5t3.5 24.5v140q0 17 5 24t17 12l24 9.5t28 10t26.5 8t18.5 3.5q13 0 13 -17v-190q0 -20 3.5 -24.5
t19.5 -4.5h66q6 -3 8.5 -11t2.5 -17t-2.5 -17t-8.5 -11h-66q-16 0 -19.5 -4.5t-3.5 -24.5v-28q0 -31 1.5 -49t7 -28t15 -13.5t26.5 -4.5l21 -2q3 -2 4.5 -7.5t1.5 -11t-2 -10.5t-6 -6q-27 2 -63.5 2.5t-71.5 0.5q-50 0 -92 -0.5t-68 -2.5q-4 1 -6 6t-2 10.5t1.5 11t4.5 7.5
l41 3q18 1 29 4.5t17 13t7.5 27.5t1.5 49v28z" />
    <glyph glyph-name="five" unicode="5" 
d="M430 654q11 0 11 -12q-7 -29 -21.5 -57t-33.5 -46l-226 -25q-11 -2 -15.5 -9t-7.5 -20l-6 -23q-5 -17 3.5 -22t23.5 -7q20 -2 46 -6t54 -10t55 -14t49 -19q42 -21 74 -63t32 -104q0 -39 -11 -71.5t-30 -59t-45.5 -47.5t-57.5 -38t-65.5 -29t-69.5 -20t-70 -12t-66 -5
q-6 3 -9.5 9t-4 13.5t1 14.5t6.5 10q27 1 55 4.5t54.5 9t49.5 13t41 18.5q45 26 69 60t24 75q0 54 -25 85.5t-62.5 48.5t-81.5 23t-81 9q-24 2 -29.5 9.5t-0.5 24.5l60 230q5 19 13 23t32 7z" />
    <glyph glyph-name="six" unicode="6" 
d="M29 254q0 85 35.5 164.5t95.5 137.5q29 28 65.5 52t77.5 42t85.5 29.5t89.5 13.5q8 -5 9.5 -15.5t-6.5 -19.5q-46 -11 -80 -24.5t-60.5 -30.5t-48 -38t-42.5 -47q-40 -50 -57.5 -117.5t-17.5 -137.5q0 -40 6.5 -81t20 -74.5t34.5 -54.5t49 -21q22 0 37 11t23.5 28
t12 36.5t3.5 37.5q0 25 -5.5 58t-19 62.5t-35.5 49.5t-54 20q-5 1 -10.5 0.5t-12.5 -1.5q-9 6 -7 18q7 8 18.5 16t25 14t28.5 10t28 4q46 0 80 -16t56.5 -42.5t33 -60.5t10.5 -70q0 -49 -16 -89.5t-46 -70t-72.5 -45.5t-94.5 -16q-57 0 -101.5 20t-75 55.5t-46.5 84.5
t-16 108z" />
    <glyph glyph-name="seven" unicode="7" 
d="M361 626h47.5t43.5 0.5t34.5 1t19.5 1.5q5 -2 7.5 -6.5t1.5 -9.5q-19 -28 -43 -68.5l-56 -96.5l-288 -510q-13 -2 -29.5 6t-18.5 25l263 457q17 29 25 47.5t8 31.5q0 10 -9 13t-20 3h-212q-22 0 -35.5 -2t-23 -7t-16.5 -14.5t-16 -25.5q-6 -7 -18.5 -4t-15.5 11
q13 37 22.5 79l16.5 71q12 -1 23.5 -1.5t25 -1t30.5 -0.5h41h192z" />
    <glyph glyph-name="eight" unicode="8" 
d="M265 594q-35 0 -58 -26t-23 -67q0 -35 27 -66.5t89 -57.5q23 14 35.5 43.5t12.5 65.5q0 26 -7.5 46t-19 34t-26.5 21t-30 7zM271 32q33 0 58 24t25 68q0 59 -38 96t-100 66q-27 -27 -39 -58t-12 -73q0 -25 7.5 -47t21 -39t33.5 -27t44 -10zM255 -14q-44 0 -83.5 9.5
t-69.5 30t-48 51.5t-18 73q0 60 36 100.5t96 63.5q-47 26 -76.5 63t-29.5 89q0 37 14.5 69t41.5 55.5t64.5 36.5t84.5 13q42 0 77.5 -11t61 -31.5t40 -50t14.5 -65.5q0 -26 -9.5 -47t-25 -38t-35 -29.5t-39.5 -21.5q28 -14 52.5 -31.5t42.5 -40.5t28.5 -51.5t10.5 -65.5
q0 -36 -14 -67t-42.5 -54.5t-71.5 -36.5t-102 -13z" />
    <glyph glyph-name="nine" unicode="9" 
d="M250 640q57 0 101.5 -20.5t75 -56t46 -82t15.5 -98.5q0 -91 -37 -168t-101 -136q-31 -29 -70 -54t-79.5 -43.5t-80 -29.5t-70.5 -12q-9 4 -10 16t6 17q73 18 128.5 57t92.5 92t56 117.5t19 133.5q0 28 -5 66.5t-17 72.5t-32.5 58t-51.5 24q-18 0 -31.5 -10t-23 -26
t-14.5 -37.5t-5 -43.5q0 -31 6 -61t19 -55t31.5 -42.5t44.5 -21.5q10 -2 15.5 -2h12.5q4 -2 5.5 -8.5t0.5 -12.5q-13 -14 -40.5 -22.5t-58.5 -8.5q-35 0 -66 13.5t-54 37.5t-36.5 56.5t-13.5 70.5q0 48 17 88t47 69.5t70.5 45.5t87.5 16z" />
    <glyph glyph-name="colon" unicode=":" horiz-adv-x="260" 
d="M130 230q-30 0 -55.5 21t-25.5 57q0 37 23.5 61.5t57.5 24.5q36 0 58.5 -25.5t22.5 -60.5q0 -34 -22.5 -56t-58.5 -22zM130 -14q-15 0 -29.5 6t-26 16.5t-18.5 25.5t-7 33q0 35 23.5 59t57.5 24q18 0 33 -7t25.5 -18.5t16.5 -26.5t6 -31q0 -35 -22.5 -58t-58.5 -23z" />
    <glyph glyph-name="semicolon" unicode=";" horiz-adv-x="260" 
d="M130 230q-30 0 -55.5 21t-25.5 57q0 37 23.5 61.5t57.5 24.5q36 0 58.5 -25.5t22.5 -60.5q0 -34 -22.5 -56t-58.5 -22zM116 168q16 0 34 -7t33.5 -22.5t25.5 -40t10 -59.5q0 -37 -13.5 -66t-36 -51t-52.5 -36.5t-62 -21.5q-7 1 -11 5t-5.5 9t0 10t5.5 8q14 5 30 14
t29 21.5t21.5 28t8.5 33.5q0 16 -5.5 27.5t-14 19t-19 11.5t-19.5 7q-13 4 -22 16t-9 29q0 27 21 46t51 19z" />
    <glyph glyph-name="semicolon" unicode="&#x37e;" horiz-adv-x="260" 
d="M130 230q-30 0 -55.5 21t-25.5 57q0 37 23.5 61.5t57.5 24.5q36 0 58.5 -25.5t22.5 -60.5q0 -34 -22.5 -56t-58.5 -22zM116 168q16 0 34 -7t33.5 -22.5t25.5 -40t10 -59.5q0 -37 -13.5 -66t-36 -51t-52.5 -36.5t-62 -21.5q-7 1 -11 5t-5.5 9t0 10t5.5 8q14 5 30 14
t29 21.5t21.5 28t8.5 33.5q0 16 -5.5 27.5t-14 19t-19 11.5t-19.5 7q-13 4 -22 16t-9 29q0 27 21 46t51 19z" />
    <glyph glyph-name="less" unicode="&#x3c;" 
d="M455 414v-83l-286 -123v-2l286 -124v-82l-389 177v59z" />
    <glyph glyph-name="equal" unicode="=" 
d="M60 250v72h401v-72h-401zM60 106v72h401v-72h-401z" />
    <glyph glyph-name="greater" unicode="&#x3e;" 
d="M455 236v-59l-389 -177v82l286 124v2l-286 123v83z" />
    <glyph glyph-name="question" unicode="?" horiz-adv-x="332" 
d="M131 -14q-15 0 -29.5 6t-26 16.5t-18.5 25.5t-7 33q0 35 23.5 59t57.5 24q18 0 33 -7t25.5 -18.5t16.5 -26.5t6 -31q0 -35 -22.5 -58t-58.5 -23zM55 321q0 21 6 35.5t17.5 25.5t28 20t38.5 18l47 20q23 10 35.5 17.5t12.5 18.5q0 23 -32.5 33.5t-112.5 10.5
q-7 0 -16.5 3.5t-18 11.5t-14.5 20t-6 29q0 25 19 43.5t51 18.5q34 0 67 -16.5t58.5 -44.5t41 -65t15.5 -78q0 -44 -17.5 -69t-45.5 -38l-66 -30q-20 -11 -30.5 -21t-10.5 -22q0 -25 10 -54q-4 -7 -15.5 -9t-17.5 4q-6 9 -14 22.5t-14.5 29.5t-11 33.5t-4.5 32.5z" />
    <glyph glyph-name="at" unicode="@" horiz-adv-x="769" 
d="M379 274q15 14 32.5 36.5t33.5 47.5t28 47.5t16 36.5q-4 10 -11 17.5t-19 7.5q-6 0 -18 -7t-31 -24q-20 -18 -38 -44t-32 -53t-22.5 -51t-8.5 -38t10 -14q6 0 19.5 6.5t40.5 31.5zM441 676q71 0 126 -22t92 -59.5t56 -86.5t19 -102q0 -49 -17.5 -91t-51.5 -73
t-83.5 -48.5t-112.5 -17.5q-22 0 -35 3t-20 7.5t-9.5 9.5t-2.5 8q0 11 9 32l21 55l-2 1q-19 -23 -44 -44t-50 -37t-48 -25.5t-39 -9.5q-23 0 -33.5 13.5t-10.5 30.5q0 7 3.5 22t12.5 36t23.5 46t36.5 52q16 21 38.5 43t48.5 40t54 29.5t56 11.5q26 0 34 -16l24 45
q4 1 7.5 1.5t8.5 0.5q34 0 53 -14q-3 -8 -11.5 -28l-20 -47l-24.5 -57.5l-24.5 -57.5l-20.5 -48t-12 -29q-7 -19 -4.5 -26.5t18.5 -7.5q30 0 61.5 12.5t56.5 36.5t41 59t16 80q0 52 -19 94t-51.5 71.5t-76 45.5t-93.5 16q-69 0 -125.5 -28t-96.5 -74.5t-62 -107t-22 -125.5
q0 -41 13 -87.5t45 -86.5t85.5 -66t135.5 -26q57 0 93.5 11.5t60.5 21.5q8 -3 11 -14t-2 -18q-45 -25 -98 -35.5t-97 -10.5q-66 0 -127.5 19t-109.5 57.5t-76.5 97t-28.5 138.5q0 87 33 157.5t88 119.5t127.5 75.5t152.5 26.5z" />
    <glyph glyph-name="A" unicode="A" horiz-adv-x="624" 
d="M319 279q17 0 22 4.5t-2 24.5l-26 81l-20 60.5t-16 44.5q-8 -17 -19 -46t-22 -64l-25 -75q-8 -20 -3 -25t24 -5h87zM212 226q-18 0 -23 -3t-10 -17l-37 -116q-5 -15 -6 -22.5t-1 -13.5q0 -5 7.5 -9t28.5 -8l30 -5q5 -5 5.5 -18t-7.5 -17q-26 2 -55.5 2t-61.5 1
q-26 0 -47 -1.5t-56 -1.5q-8 5 -8 17t5 18l27 3q18 2 33.5 11.5t27.5 38.5q14 30 28 68l34 92l90 244l29.5 76.5t9.5 50.5q18 4 33.5 14t27 20t18.5 18t8 8q18 0 23 -20q6 -22 16 -52.5l29 -84.5l136 -392q8 -23 14 -38.5t13.5 -26t16.5 -16t23 -8.5l38 -6q5 -4 5.5 -17
t-6.5 -18q-36 2 -75.5 2.5t-78.5 0.5q-38 0 -69 -0.5t-66 -2.5q-8 5 -9 17t7 18l32 5q17 3 22 7.5t5 9.5t-5 22.5t-14 45.5l-27 86q-4 12 -13 15t-35 3h-112z" />
    <glyph glyph-name="B" unicode="B" horiz-adv-x="635" 
d="M252 169q0 -29 3 -52.5t12 -40t26.5 -25.5t46.5 -9q56 0 84.5 38.5t28.5 99.5q0 66 -37 107t-109 41q-21 0 -32 -1t-16 -4.5t-6 -12t-1 -23.5v-118zM252 400q0 -10 1 -15.5t6 -8.5t15.5 -3.5t30.5 -0.5q32 0 54.5 9.5t36.5 25.5t20.5 36.5t6.5 43.5q0 66 -35.5 98
t-87.5 32q-18 0 -27.5 -2t-14 -7.5t-5.5 -16t-1 -26.5v-165zM114 497q0 38 -1 60t-5.5 34t-13 16.5t-24.5 6.5l-27 4q-3 2 -5 7.5t-2 12t2.5 11.5t8.5 5q57 4 115.5 6.5t133.5 2.5q72 0 121.5 -8.5t82.5 -28.5q32 -20 50.5 -51t18.5 -76q0 -32 -11.5 -54t-28 -37t-33.5 -23
t-29 -11q-8 -2 -14 -4.5t-6 -6.5q0 -5 14 -8q30 -6 56.5 -19.5t46.5 -33.5t32 -48.5t12 -64.5q0 -35 -9 -62t-25.5 -48t-37.5 -35.5t-45 -22.5q-48 -17 -100.5 -21t-98.5 -4q-14 0 -27 0.5t-27 1.5t-26 1.5t-23 0.5q-37 0 -74.5 -0.5t-80.5 -2.5q-3 2 -4.5 7.5t-1.5 11
t1.5 10.5t4.5 6l29 6q17 3 27 7.5t15.5 15t7 30t1.5 53.5v353z" />
    <glyph glyph-name="C" unicode="C" horiz-adv-x="689" 
d="M438 676q38 0 71 -4t59 -8.5t45.5 -8.5t30.5 -5q0 -7 0.5 -24t2 -39t4 -46.5t5.5 -46.5q-2 -5 -7 -7.5t-11 -3.5t-11.5 0t-8.5 4q-20 70 -67.5 106.5t-120.5 36.5q-42 0 -83 -18t-73.5 -54.5t-53 -91.5t-20.5 -130t20 -132t52.5 -95.5t75 -58.5t87.5 -20t79 14.5
t58.5 37.5t40.5 50t26 53q6 6 19.5 4t18.5 -11q-5 -56 -16 -98t-22 -59l-92.5 -24t-110.5 -13q-74 0 -144.5 18t-124.5 58q-54 41 -90.5 105t-36.5 157q0 92 34.5 157t86.5 108q54 45 126.5 67t150.5 22z" />
    <glyph glyph-name="D" unicode="D" horiz-adv-x="793" 
d="M257 181q0 -42 3 -69t17 -43q14 -15 35 -22t48 -7q65 0 109.5 26t71.5 68t39 93.5t12 102.5q0 135 -70 211t-206 76q-42 0 -52 -13q-5 -6 -6 -20.5t-1 -37.5v-365zM114 498q0 36 -1 58t-5.5 35t-14.5 18.5t-27 7.5l-19 2q-4 2 -5.5 7.5t-1.5 11.5t2 11t7 5q31 2 62 3.5
l63.5 3t67.5 2t75 0.5q62 0 121.5 -7t111.5 -26q49 -18 87 -48t63.5 -68t39 -82.5t13.5 -91.5q0 -101 -46 -178.5t-133 -120.5q-51 -26 -113 -36.5t-140 -10.5q-17 0 -35.5 1l-35.5 2q-33 3 -62 3q-71 0 -156 -3q-6 5 -6 18t6 17l31 5q17 3 27 7t15.5 15t7 30.5t1.5 54.5
v354z" />
    <glyph glyph-name="E" unicode="E" horiz-adv-x="593" 
d="M257 400q0 -21 4 -25.5t24 -4.5h69q19 0 31.5 2t20.5 7.5t13 16.5t9 29l5 25q3 3 8 4.5t11 1.5t11 -2t7 -5q-3 -48 -3 -106t3 -106q-2 -3 -7 -5t-11 -2t-11 1.5t-8 4.5l-5 25q-4 18 -9 29t-13 17t-20.5 8t-31.5 2h-69q-20 0 -24 -4.5t-4 -26.5v-119q0 -35 3.5 -58.5
t12.5 -36.5q5 -7 11.5 -12t18.5 -8t30 -4.5t45 -1.5q33 0 56.5 2t43.5 13.5t37.5 35t38.5 65.5q6 8 20 6t17 -11q-2 -20 -6.5 -43.5t-10.5 -46t-13 -41.5t-12 -29q-20 1 -47 1.5t-58 0.5q-30 1 -62.5 1h-63.5h-130q-36 0 -75.5 -0.5t-96.5 -2.5q-6 5 -6 18t6 17l47 7
q17 2 27 6t15.5 14.5t7 30t1.5 54.5v373q0 34 -1.5 54t-7 30.5t-15.5 14.5t-27 7l-25 5q-7 5 -6.5 17.5t8.5 17.5q18 -1 36 -1.5t36 -0.5q18 -1 36 -1h36h212q48 0 86 0.5t48 2.5q0 -6 1.5 -21.5l3.5 -37t4 -46.5l4 -50q-3 -8 -16 -9.5t-21 5.5q-8 26 -18 47t-20 32
q-14 14 -37.5 22.5t-60.5 8.5h-80q-12 0 -19 -1t-10 -4.5t-3.5 -11.5t-0.5 -22v-175z" />
    <glyph glyph-name="F" unicode="F" horiz-adv-x="548" 
d="M257 392q0 -20 4 -25t24 -5h77q20 0 32.5 2t20.5 8t12.5 17t8.5 29l5 24q3 3 8 4.5t11 1.5t11.5 -2t7.5 -5q-3 -48 -3 -107q0 -28 0.5 -54.5t2.5 -49.5q-2 -3 -7.5 -5t-11.5 -2t-11 1.5t-8 4.5l-5 24q-4 18 -8.5 29t-12.5 17t-20.5 8t-32.5 2h-77q-20 0 -24 -5t-4 -25
v-135q0 -35 1.5 -55t7 -30.5t15.5 -14.5t27 -7l37 -5q5 -5 5 -17.5t-5 -17.5q-47 2 -85 2.5t-74 0.5q-35 0 -73 -0.5t-83 -2.5q-6 5 -6 17.5t6 17.5l33 5q17 3 27 7t15.5 14.5t7 30.5t1.5 55v372q0 35 -1.5 55t-7 31t-15.5 15.5t-27 7.5l-20 3q-7 5 -6.5 18.5t8.5 16.5
q17 -1 34 -1.5t35 -0.5q18 -1 36 -1h36h210q48 0 86 0.5t49 2.5v-22v-37.5t0.5 -46.5t1.5 -50q-3 -8 -16 -9t-22 5q-8 31 -14.5 49.5t-14.5 28.5q-13 16 -36.5 24.5t-61.5 8.5h-78q-12 0 -19 -1t-10 -5t-3.5 -12t-0.5 -23v-181z" />
    <glyph glyph-name="G" unicode="G" horiz-adv-x="734" 
d="M663 113q0 -32 3.5 -47.5t17.5 -18.5q3 -3 2.5 -12.5t-5.5 -11.5l-31.5 -5t-38.5 -10q-13 -4 -34.5 -8.5t-46 -8t-50 -5.5t-46.5 -2q-51 0 -97 7t-100 28q-44 18 -80 47t-62 67.5t-40.5 86t-14.5 101.5q0 94 42.5 172.5t133.5 129.5q51 28 110.5 40.5t123.5 12.5
q42 0 73.5 -4t55 -8.5l40.5 -8t29 -3.5q1 -11 2 -29t2.5 -40t3.5 -45.5t6 -46.5q-2 -4 -7 -6.5t-11 -2.5t-11.5 1.5t-8.5 5.5q-48 141 -188 141q-60 0 -104 -23t-73.5 -62.5t-44 -92.5t-14.5 -112q0 -107 32.5 -173t81.5 -99q36 -24 72.5 -31t64.5 -7q21 0 34.5 2.5t21 11
t10.5 23.5t3 39v63q0 20 -1.5 32t-7.5 19t-16.5 10t-28.5 6l-44 6q-8 5 -8 17.5t8 17.5q54 -2 93 -2.5t76 -0.5q36 0 70.5 0.5t60.5 2.5q6 -5 6 -17.5t-6 -17.5l-23 -4q-11 -2 -18 -5.5t-11 -11t-5.5 -20t-1.5 -32.5v-56z" />
    <glyph glyph-name="H" unicode="H" horiz-adv-x="806" 
d="M299 317q-15 0 -23.5 -0.5t-12.5 -3.5t-5 -9t-1 -16v-144q0 -35 1.5 -55t7 -31t15.5 -15t27 -7l32 -4q6 -5 6 -17.5t-6 -17.5q-86 3 -152 3q-73 0 -149 -3q-6 5 -6 17.5t6 17.5l24 3q17 3 27 7.5t15.5 15.5t7 31t1.5 55v372q0 35 -1.5 55t-7 31t-15.5 15.5t-27 7.5l-24 3
q-6 5 -6 17.5t6 17.5q37 -2 75 -2.5t74 -0.5q34 0 70 0.5t69 2.5q6 -5 6 -17.5t-6 -17.5l-21 -3q-16 -3 -25.5 -7.5t-15 -15.5t-7 -31t-1.5 -55v-116q0 -11 1 -17t5 -9t12.5 -3.5t23.5 -0.5h208q16 0 24.5 0.5t12.5 3.5t4.5 9t0.5 17v116q0 35 -1.5 55t-7 31t-15.5 15t-27 7
l-27 4q-6 5 -6 17.5t6 17.5q82 -3 152 -3q72 0 141 3q6 -5 6 -17.5t-6 -17.5l-20 -3q-17 -3 -27.5 -7.5t-16 -15.5t-7 -31t-1.5 -55v-372q0 -35 1.5 -55t7 -31t16 -15t27.5 -7l24 -4q6 -5 6 -17.5t-6 -17.5q-75 3 -145 3q-75 0 -147 -3q-6 5 -6 17.5t6 17.5l22 3
q17 3 27 7.5t15.5 15.5t7 31t1.5 55v144q0 10 -0.5 16t-4.5 9t-12.5 3.5t-24.5 0.5h-208z" />
    <glyph glyph-name="I" unicode="I" horiz-adv-x="371" 
d="M257 146q0 -35 1.5 -55.5t7 -31.5t16 -15t27.5 -7l28 -5q6 -5 5.5 -17.5t-6.5 -17.5q-81 3 -150 3q-71 0 -152 -3q-6 5 -6 17.5t6 17.5l28 5q17 3 27.5 7t16 15t7 31.5t1.5 55.5v368q0 35 -1.5 55.5t-7 31.5t-16 15t-27.5 7l-28 5q-6 5 -6 17.5t6 17.5q81 -3 152 -3
q70 0 151 3q6 -5 6 -17.5t-6 -17.5l-28 -5q-17 -3 -27.5 -7t-16 -15t-7 -31.5t-1.5 -55.5v-368z" />
    <glyph glyph-name="J" unicode="J" horiz-adv-x="383" 
d="M134 514q0 35 -1.5 55.5t-7 31t-16 14.5t-27.5 7l-38 6q-6 5 -6 17.5t6 17.5q48 -2 87 -2.5t74 -0.5q72 0 150 3q6 -5 6 -17.5t-6 -17.5l-26 -5q-17 -3 -27.5 -7t-16 -15t-7 -31.5t-1.5 -55.5v-362q0 -60 -5 -109.5t-18 -83.5q-13 -33 -33 -61.5t-49 -49.5t-66.5 -34
t-85.5 -15q-11 0 -24 1t-24.5 5.5t-19.5 12.5t-8 21q0 14 7.5 30.5t18.5 27.5q13 13 28 13q12 0 25 -7.5t26 -17.5t24.5 -17.5t19.5 -7.5q9 0 14.5 8t9 20t5 26.5t3.5 27.5t5.5 64.5t3.5 131.5v376z" />
    <glyph glyph-name="K" unicode="K" horiz-adv-x="715" 
d="M257 394q0 -25 4.5 -31t13.5 -6q8 0 18.5 6t21.5 15t21 19t16 18l75 91.5t59 78.5q13 19 13 26q0 3 -3.5 7t-13.5 6l-23 4q-8 5 -7 18.5t11 16.5q38 -2 67.5 -2.5t56.5 -0.5q28 0 59.5 0.5t61.5 2.5q9 -3 10 -16t-5 -19q-26 -3 -48 -7t-38 -11q-30 -12 -64 -42.5
t-84 -85.5l-46 -52q-8 -8 -10.5 -14t-2.5 -9q0 -4 6.5 -16t29.5 -46l82 -125t95 -136q20 -27 36.5 -35t37.5 -12l32 -5q5 -7 4.5 -19t-7.5 -16q-75 3 -144 3q-38 0 -76.5 -0.5t-80.5 -2.5q-10 3 -10 16.5t8 18.5l25 6q17 3 17 10q0 8 -8 20l-10 15.5l-17.5 27l-18 27.5
l-12.5 19l-53 81q-27 42 -42.5 60.5t-32.5 18.5t-20.5 -13.5t-3.5 -54.5v-105q0 -35 1.5 -55t7 -31t15.5 -15t27 -7l28 -4q6 -5 6 -17.5t-6 -17.5q-80 3 -151 3q-34 0 -72 -0.5t-78 -2.5q-6 5 -6 17.5t6 17.5l28 4q17 3 27 7t15.5 15t7 31t1.5 55v372q0 35 -1.5 55t-7 31
t-15.5 15t-27 7l-28 4q-8 5 -8 17.5t8 17.5q75 -3 150 -3q71 0 151 3q7 -5 7 -17.5t-7 -17.5l-28 -4q-17 -3 -27 -7t-15.5 -15t-7 -31t-1.5 -55v-122z" />
    <glyph glyph-name="L" unicode="L" horiz-adv-x="585" 
d="M257 166q0 -35 3.5 -59t13.5 -36q5 -6 11.5 -11t18 -8t29.5 -4.5t45 -1.5q34 0 58 2.5t43 13.5t37 35t40 68q6 8 19.5 5.5t18.5 -11.5q-2 -20 -7 -43.5t-11 -46.5t-13 -42.5t-12 -29.5q-20 1 -47 1.5t-58 0.5q-30 1 -62.5 1h-63.5h-134q-35 0 -73 -0.5t-85 -2.5
q-7 5 -8 17.5t5 17.5l38 5q17 3 27 7t15.5 14.5t7 30.5t1.5 55v372q0 35 -1.5 55t-7 31t-15.5 15t-27 7l-29 4q-8 5 -7.5 17.5t9.5 17.5q78 -3 150 -3q73 0 148 3q6 -5 6 -17.5t-6 -17.5l-26 -4q-17 -3 -27 -7t-15.5 -15t-7 -31t-1.5 -55v-350z" />
    <glyph glyph-name="M" unicode="M" horiz-adv-x="908" 
d="M34 628q-6 6 -5.5 19.5t8.5 15.5q51 -3 126 -3q25 0 48 0.5t50 2.5q0 -23 6 -46.5t17 -50t25 -56l31 -64.5l66 -141l11 -21l14.5 -28t15.5 -29.5l13 -23.5l23 43.5t33 70.5l51 110l32 68.5t24.5 56t19 53t16.5 58.5q35 -3 59.5 -3h47.5q25 0 56.5 0.5t58.5 2.5
q8 -5 8.5 -16t-5.5 -19l-29 -5q-31 -6 -46 -19t-15 -53q0 -77 0.5 -138t1.5 -112t2.5 -97t3.5 -93q1 -35 8.5 -53t36.5 -22l32 -4q6 -6 6 -19t-8 -16q-35 2 -68 2.5t-70 0.5q-34 0 -73 -0.5t-75 -2.5q-9 4 -10 17t7 18l30 4q17 3 26.5 7.5t14 12.5t5 22t0.5 37l-2 260v114
h-2l-113 -244.5t-107 -251.5q-9 -7 -20 -7q-7 0 -14 1.5t-12 4.5q-15 46 -42 111.5t-58.5 135l-62 135.5l-51.5 115h-2q-3 -49 -4.5 -83t-2.5 -73q0 -24 -0.5 -54l-1 -60.5t-0.5 -59.5v-51q0 -19 1.5 -31t6.5 -20t14 -12t24 -7l39 -6q6 -5 5 -18t-7 -17q-28 2 -58.5 2.5
t-59.5 0.5q-24 0 -53.5 -0.5t-59.5 -2.5q-5 1 -7.5 6t-3 11t1.5 11t5 7l18 3q19 4 30 7.5t17 11.5t8.5 21.5t4.5 36.5q4 37 7.5 98t8.5 133q3 51 5 106t2 96q0 43 -16 57.5t-46 21.5z" />
    <glyph glyph-name="N" unicode="N" horiz-adv-x="748" 
d="M652 170v-92.5t2 -68.5q-5 -9 -23 -16t-36 -7l-6.5 9l-17 24l-25 34.5t-32.5 41.5l-231 286l-69 85.5t-40 42.5q-4 -8 -4.5 -22t-0.5 -42v-194q0 -30 1 -59t2.5 -53t4.5 -42.5t7 -28.5q7 -16 22.5 -22t35.5 -10l28 -4q6 -6 5.5 -18t-5.5 -17q-41 2 -72.5 2.5t-61.5 0.5
q-55 0 -112 -3q-5 5 -5.5 17t5.5 18l17 3q20 5 34 11t21 22q4 10 6.5 28.5t4 42.5t2.5 53t1 59v254v34.5t-1 23t-2 16t-4 11.5q-5 13 -18 21t-39 13l-28 4q-5 6 -4.5 19.5t8.5 15.5q35 -2 71 -2.5t67 -0.5q52 0 84 3q8 -34 52.5 -90.5l112.5 -137.5l84 -99l56.5 -66
t39.5 -44q3 8 3.5 19.5t0.5 25.5v138q0 30 -1 59t-2.5 53t-4.5 42.5t-7 28.5q-7 16 -22.5 22t-35.5 10l-27 4q-6 6 -5.5 18t5.5 17q41 -2 72 -2.5t62 -0.5q53 0 112 3q5 -5 5.5 -17t-5.5 -18l-18 -3q-20 -5 -33.5 -11t-20.5 -22q-4 -10 -7 -28.5t-4.5 -42.5t-2.5 -53t-1 -59
v-239z" />
    <glyph glyph-name="O" unicode="O" horiz-adv-x="788" 
d="M588 320q0 64 -13.5 120.5t-39.5 98.5t-63 66.5t-83 24.5t-81.5 -20.5t-59.5 -58t-36 -89t-12 -114.5q0 -31 4 -66t13 -70.5t24.5 -68t38.5 -58t54 -40.5t72 -15q49 0 83.5 22.5t56.5 61.5t32 92t10 114zM397 676q78 0 142.5 -25t111 -70.5t72 -108.5t25.5 -139
q0 -82 -26 -146.5t-73.5 -109.5t-114 -69t-147.5 -24q-75 0 -139 24t-110 68t-72 107.5t-26 141.5q0 74 26.5 138t73.5 111.5t113 74.5t144 27z" />
    <glyph glyph-name="P" unicode="P" horiz-adv-x="601" 
d="M114 498q0 38 -1 60.5t-5.5 34.5t-13 16.5t-24.5 6.5l-31 4q-7 4 -6.5 16.5t8.5 17.5q50 4 107.5 6.5t123.5 2.5q64 0 107.5 -7t75.5 -19q23 -9 45 -23.5t39 -35.5t27.5 -49.5t10.5 -64.5q0 -41 -12.5 -71t-32.5 -51t-44.5 -33.5t-48.5 -20t-45.5 -10t-34.5 -2.5h-16.5
t-15.5 1q-6 4 -7 13t4 14q31 10 50.5 25.5t30.5 36t15 45t4 52.5t-7.5 55.5t-23 49.5t-39.5 35.5t-58 13.5q-28 0 -33.5 -10.5t-5.5 -40.5v-422q0 -35 1.5 -55t7 -31t15.5 -15t27 -7l32 -5q8 -4 8 -16.5t-8 -17.5q-42 2 -79.5 2.5t-73.5 0.5t-72.5 -0.5t-77.5 -2.5
q-8 5 -9 17.5t7 16.5l28 5q17 3 27 7t15.5 15t7 31t1.5 55v354z" />
    <glyph glyph-name="Q" unicode="Q" horiz-adv-x="788" 
d="M389 630q-46 0 -81.5 -20.5t-59.5 -58t-36 -89t-12 -114.5q0 -46 9.5 -101.5t32.5 -104t63 -81t101 -32.5q49 0 83.5 22.5t56.5 62t32 92.5t10 114q0 64 -13.5 120.5t-39.5 98.5t-63 66.5t-83 24.5zM397 676q78 0 142.5 -25t111 -70t72 -108.5t25.5 -140.5
q0 -122 -56 -204.5t-153 -118.5q-10 -6 9 -23q24 -23 50 -45.5t54 -42t56 -34.5t57 -22q22 -5 42 -6.5t33 -1.5q22 0 43 8q7 -3 9 -10.5t0 -13.5q-28 -20 -67 -28.5t-76 -8.5q-54 0 -104 13.5t-95.5 36.5t-86 54.5t-75.5 67.5q-14 15 -24.5 23.5t-28.5 10.5q-62 5 -115.5 31
t-93.5 69.5t-63 103.5t-23 134t26.5 138t73.5 111.5t113 74.5t144 27z" />
    <glyph glyph-name="R" unicode="R" horiz-adv-x="664" 
d="M251 371q0 -13 1.5 -20.5t7.5 -11.5t18.5 -5t34.5 -1q27 0 44.5 7t31.5 21q13 13 24.5 38t11.5 70q0 68 -36 108t-95 40q-15 0 -23.5 -1t-12.5 -6.5t-5 -15.5t-2 -28v-195zM114 498q0 37 -1 59.5t-5.5 34.5t-13 16.5t-24.5 6.5l-27 4q-8 4 -7.5 17.5t9.5 17.5
q57 4 116.5 6.5t131.5 2.5q64 0 115.5 -9.5t80.5 -26.5q88 -52 88 -148q0 -33 -10 -57.5t-25.5 -42t-34.5 -29.5t-36 -21q-8 -4 -8.5 -9t3.5 -13q49 -101 84 -160t71 -90q20 -16 38 -21.5t29 -6.5q7 -4 7.5 -12.5t-3.5 -13.5q-12 -5 -34 -7t-45 -2q-69 0 -115 25.5t-79 79.5
q-24 40 -42.5 77.5t-35.5 77.5q-9 20 -21.5 27.5t-31.5 7.5q-26 0 -31.5 -3.5t-5.5 -18.5v-123q0 -35 1.5 -54.5t7 -30.5t15.5 -15t27 -7l27 -5q5 -4 5 -17t-5 -18q-40 2 -75.5 2.5t-71.5 0.5q-38 0 -72.5 -0.5t-73.5 -2.5q-6 5 -6 18t6 17l27 5q17 3 27 7t15.5 15t7 30.5
t1.5 54.5v354z" />
    <glyph glyph-name="S" unicode="S" horiz-adv-x="506" 
d="M477 187q0 -46 -18 -83.5t-51 -64t-79.5 -41t-103.5 -14.5q-69 0 -111.5 14.5t-58.5 23.5q-7 8 -13 25t-10 39t-6.5 47t-2.5 51q5 10 18.5 10.5t19.5 -7.5q7 -24 23 -52t38.5 -51t50.5 -38.5t60 -15.5q28 0 48 8.5t33.5 23t20 32.5t6.5 37q0 30 -13 54.5t-32.5 44
t-44 34.5t-46.5 26q-27 13 -54 31.5t-48.5 42.5t-35 54t-13.5 67q0 42 16 77.5t46 60.5t73 39t97 14q25 0 54.5 -3.5t59.5 -12.5q17 -5 34 -8q6 -17 12 -54.5t6 -88.5q-4 -9 -18 -10t-21 7q-6 19 -17.5 41t-28 40.5t-38 30.5t-48.5 12q-50 0 -76 -27.5t-26 -65.5
q0 -35 26.5 -64.5t64.5 -49.5l66 -35q23 -12 48 -29.5t45.5 -42t34 -56.5t13.5 -73z" />
    <glyph glyph-name="T" unicode="T" horiz-adv-x="645" 
d="M255 585q0 18 -3 23.5t-21 5.5h-62q-27 0 -46 -7.5t-32.5 -21.5t-24 -35.5t-21.5 -48.5q-9 -5 -20.5 -3t-16.5 12q16 52 22 96.5t11 73.5q7 5 14 5q9 0 14 -4q2 -6 4.5 -10.5t11 -6.5t24 -3t44.5 -1h372q25 0 41 0.5t25.5 2.5t15 6.5t8.5 12.5q6 3 13 3q5 0 9 -2.5
t6 -4.5q-4 -13 -7 -33.5t-5 -44t-3 -48.5t0 -46q-4 -7 -18.5 -8t-18.5 5q-6 24 -13 44.5t-18.5 35t-29 23t-45.5 8.5h-60q-18 0 -22.5 -4.5t-4.5 -24.5v-441q0 -35 1.5 -55t7 -30.5t15.5 -14.5t27 -7l40 -5q5 -5 5 -17.5t-5 -17.5q-49 2 -87.5 2.5t-72.5 0.5
q-36 0 -76.5 -0.5t-93.5 -2.5q-6 5 -6 17.5t6 17.5l45 5q17 3 27 7t15.5 14.5t7 30.5t1.5 55v441z" />
    <glyph glyph-name="U" unicode="U" horiz-adv-x="740" 
d="M109 516q0 35 -1.5 55t-7 31t-15.5 15t-27 7l-25 5q-6 5 -6 17t8 17q72 -3 146 -3t146 3q6 -5 6 -17t-6 -17l-24 -4q-17 -3 -27 -7.5t-15.5 -15.5t-7 -31t-1.5 -55v-231q0 -44 4.5 -88t21 -79t49.5 -57t90 -22q48 0 80 19.5t51.5 53.5t27.5 79.5t8 96.5v121
q0 61 -3.5 112t-11.5 71q-7 16 -22.5 22t-35.5 10l-27 5q-6 6 -5.5 17.5t5.5 16.5q41 -2 72 -2.5t62 -0.5q55 0 112 3q5 -5 5.5 -16.5t-5.5 -17.5l-18 -4q-20 -5 -33.5 -11t-20.5 -22q-8 -20 -11.5 -71t-3.5 -112v-112q0 -71 -11.5 -133t-52.5 -108q-33 -35 -85 -53.5
t-113 -18.5q-57 0 -107 11.5t-91 44.5q-39 32 -56.5 88t-17.5 138v250z" />
    <glyph glyph-name="V" unicode="V" horiz-adv-x="642" 
d="M454 248q-38 -91 -61 -152.5l-40 -103.5q-13 -8 -35 -8q-17 0 -27 8q-4 10 -9 24.5l-10.5 30l-11.5 31l-11 28.5l-162 407q-15 38 -24 58t-17 30t-18 13l-28 8l-28 7q-6 8 -4.5 19t8.5 15q38 -1 67.5 -2t68.5 -1q35 0 69.5 0.5t80.5 2.5q6 -5 6 -16t-5 -18l-30 -6
q-25 -6 -25 -19q0 -6 11 -35.5l29 -74.5l88 -225l18.5 -46l12.5 -31l14.5 32t17.5 42l37 94q10 24 21.5 54.5l23 60.5l20.5 55.5t14 38.5q10 27 10 36q0 5 -4.5 9t-22.5 8l-29 7q-6 6 -5.5 18t9.5 16q35 -2 64.5 -2.5t58.5 -0.5q49 0 93 3q6 -3 6.5 -16t-4.5 -18l-26 -5
q-21 -5 -33 -12t-22 -23q-17 -25 -37 -66t-46 -102z" />
    <glyph glyph-name="W" unicode="W" horiz-adv-x="960" 
d="M981 621q-17 -5 -26.5 -10t-14.5 -12q-8 -12 -21.5 -37.5t-33.5 -73.5l-47.5 -108.5l-58.5 -134.5l-58.5 -137t-46.5 -116q-5 -4 -14 -6t-19 -2q-16 0 -27 8l-18 42.5t-20 45.5l-42 95l-20 45t-16 32q-7 -13 -15.5 -30.5l-18.5 -38.5l-47 -102q-12 -24 -21 -46.5
t-21 -47.5q-8 -8 -33 -8q-8 0 -13.5 2t-12.5 6q-6 16 -16 39.5l-22 51.5l-25.5 58l-26.5 58l-164 358q-10 22 -17 35.5t-13.5 20.5t-15 10t-20.5 5l-25 5q-6 8 -5 19.5t9 15.5q55 -3 130 -3q64 0 121 3q6 -3 8 -16.5t-6 -18.5l-18 -3q-25 -4 -25 -15q0 -5 14 -38l38 -86
l99 -221l17.5 -39.5t13.5 -28.5t10 -21t9 -18l21 40t27 57l13 29q5 12 9 25.5t4 18.5t-1.5 12t-4.5 15l-96 211q-9 19 -15 30t-13 17.5t-16.5 9t-23.5 4.5l-10 1q-8 6 -6.5 19t9.5 16q32 -2 62.5 -2.5t63.5 -0.5q76 0 115 3q4 -1 6.5 -6t2.5 -11t-1 -11t-4 -7l-17 -4
q-9 -2 -18 -5.5t-9 -8.5q0 -6 3 -14l6 -16l30 -69l14 -31.5t14 -29.5l15 31l15 32l9 20q14 29 20.5 49t6.5 25t-4 8t-16 6l-30 7q-5 5 -4.5 18t7.5 17q22 -2 47.5 -2.5t50.5 -0.5q29 0 55.5 0.5t46.5 2.5q3 -2 5 -7t2 -10.5t-1.5 -10.5t-4.5 -8l-28 -6q-13 -3 -21.5 -6
t-16 -10t-16.5 -20t-22 -35l-35 -62t-27 -51q-7 -14 -14.5 -31t-7.5 -21q0 -2 1.5 -7.5t6.5 -17.5l47 -101q18 -42 28.5 -64.5l15.5 -33.5l71.5 179l71.5 183q3 6 7.5 18.5l9 26t7.5 25t3 15.5q0 10 -19 14l-22 6q-6 7 -5 19t8 16q24 -2 51.5 -2.5t50.5 -0.5q50 0 92 3
q7 -4 7.5 -16.5t-4.5 -18.5z" />
    <glyph glyph-name="X" unicode="X" horiz-adv-x="665" 
d="M11 33q22 4 38.5 11t29.5 17.5t24.5 24.5t23.5 31q11 14 25.5 34.5l31 44l34 48.5l33.5 49q14 20 14 31q0 3 -3 10.5t-13 21.5l-29.5 44.5l-37 56l-39.5 59.5l-37 55q-18 25 -36.5 37t-52.5 17l-17 3q-7 6 -7 18t8 17q24 -2 67 -2.5t89 -0.5q61 0 95 0.5t57 2.5
q8 -4 8.5 -16.5t-4.5 -18.5l-22 -4q-12 -3 -23 -6.5t-11 -8.5q0 -7 4 -15l12 -24l43 -69.5l45 -68.5l51.5 77l47.5 74q8 14 9.5 20t1.5 10q0 5 -20 10l-32 5q-6 5 -5.5 18t8.5 17q46 -3 115 -3q36 0 64 0.5t52 2.5q8 -4 8.5 -16t-4.5 -19l-32 -4q-16 -2 -29.5 -6.5
t-27.5 -18.5q-36 -37 -75 -85t-74 -96q-8 -11 -14 -20.5t-6 -13.5q0 -10 14 -31l94.5 -146l65.5 -99q26 -40 47.5 -54t50.5 -18l31 -4q5 -5 5 -17.5t-8 -17.5q-17 1 -32 1.5t-32.5 1t-39.5 0.5h-52q-52 0 -89.5 -0.5t-78.5 -2.5q-7 3 -9 17t6 18l27 3q37 6 37 14q0 3 -1 6.5
t-4 10t-9 16.5l-15 26l-20.5 33.5l-30.5 48.5l-30.5 47t-20.5 29l-60.5 -93t-56.5 -98q-5 -11 -7 -16.5t-2 -10.5q0 -7 32 -13l26 -3q7 -5 6 -18.5t-9 -16.5q-33 2 -69 2.5t-68 0.5q-25 0 -53.5 -0.5t-51.5 -2.5q-8 4 -9.5 16t5.5 17z" />
    <glyph glyph-name="Y" unicode="Y" horiz-adv-x="575" 
d="M367 144q0 -35 1.5 -55t7 -30.5t15.5 -14.5t27 -7l40 -5q5 -5 5 -17.5t-5 -17.5q-49 2 -87.5 2.5t-74.5 0.5t-74 -0.5t-83 -2.5q-6 5 -6 17.5t6 17.5l34 5q17 3 27 7t15.5 14.5t7 30.5t1.5 55v50q0 19 -0.5 32.5t-3 26t-8 26.5t-15.5 34l-119 246l-14 26t-12.5 18.5
t-15.5 11.5t-22 7l-34 6q-7 6 -6 19.5t10 15.5q34 -2 65.5 -2.5t75.5 -0.5q46 0 83 0.5t63 2.5q7 -3 8 -16t-6 -19l-34 -8q-14 -3 -19 -5.5t-5 -3.5q0 -6 5 -20.5t21 -49.5l47 -107l24 -52l22 -46q22 37 43 78.5l41 79.5q29 54 40.5 80.5t11.5 35.5q0 8 -34 14l-23 4
q-6 4 -6.5 17.5t7.5 17.5q60 -3 112 -3q29 0 52.5 0.5t45.5 2.5q9 -3 9.5 -16.5t-5.5 -18.5l-26 -5q-14 -3 -27 -8t-21 -16q-11 -14 -31.5 -45.5t-56.5 -96.5l-63 -114q-10 -18 -16.5 -32t-11 -28.5t-6.5 -31t-2 -37.5v-70z" />
    <glyph glyph-name="Z" unicode="Z" horiz-adv-x="614" 
d="M252 614q-44 0 -71 -6t-45 -20t-30 -36t-25 -53q-10 -6 -23 -3.5t-18 10.5q14 53 22.5 95l16.5 82q3 3 11.5 3t14.5 -2q2 -8 5.5 -12.5t11.5 -7t24 -3.5t44 -1h286q52 0 78 0.5t39 2.5q8 -5 6 -15q-12 -13 -51 -67.5t-99 -146.5l-109 -169l-62.5 -97l-38.5 -60.5
t-19.5 -33.5t-5.5 -15q0 -3 3 -5.5t12.5 -4t28 -2.5t48.5 -1h93q37 0 63 4t46.5 17t38.5 38t39 67q9 6 21.5 3.5t17.5 -10.5q-2 -21 -7 -46t-11 -49t-13 -44t-13 -29q-32 1 -58.5 1.5t-51.5 0.5q-25 1 -49 1h-50h-252q-77 0 -101 -3q-5 2 -7.5 7t-0.5 10q6 6 16.5 21.5
l23.5 35l27 40l25 37.5l197 300q7 10 18.5 28l23.5 38l23.5 39l18.5 31q5 10 7.5 14.5t2.5 9.5q0 3 -7.5 4.5t-26.5 1.5h-108z" />
    <glyph glyph-name="bracketleft" unicode="[" horiz-adv-x="340" 
d="M121 688q17 1 35 1h43q42 0 70.5 -1t39.5 -3q6 -3 6 -15.5t-5 -15.5l-69 -11q-12 -2 -19.5 -7.5t-11.5 -22t-5.5 -47.5t-1.5 -83v-430q0 -53 1.5 -83.5t5.5 -47t11.5 -22t19.5 -7.5l69 -11q5 -3 5 -15.5t-6 -15.5q-11 -2 -39.5 -3t-70.5 -1h-43t-35 1v840z" />
    <glyph glyph-name="backslash" unicode="\" horiz-adv-x="321" 
d="M301 -16h-90l-191 692h90z" />
    <glyph glyph-name="bracketright" unicode="]" horiz-adv-x="340" 
d="M219 -152q-17 -1 -35 -1h-43q-42 0 -70.5 1t-39.5 3q-6 3 -6 15.5t5 15.5l69 11q12 2 19.5 7.5t11.5 22t5.5 47t1.5 83.5v430q0 52 -1.5 83t-5.5 47.5t-11.5 22t-19.5 7.5l-69 11q-5 3 -5 15.5t6 15.5q11 2 39.5 3t70.5 1h43t35 -1v-840z" />
    <glyph glyph-name="asciicircum" unicode="^" 
d="M372 244l-111 263l-111 -263h-90l167 382h68l166 -382h-89z" />
    <glyph glyph-name="underscore" unicode="_" horiz-adv-x="500" 
d="M500 -125h-500v50h500v-50z" />
    <glyph glyph-name="quoteleft" unicode="&#x2018;" horiz-adv-x="253" 
d="M139 414q-15 0 -32.5 7t-32.5 21.5t-24.5 37.5t-9.5 56q0 35 13 63t35 49.5t50.5 36t59.5 21.5q13 -2 15.5 -14t-5.5 -17q-14 -5 -28.5 -13.5t-27.5 -20.5t-21 -26.5t-8 -32.5q0 -16 5 -26.5t13.5 -18t18 -11.5t18.5 -6q13 -4 21.5 -15.5t8.5 -28.5q0 -26 -20 -44
t-49 -18z" />
    <glyph glyph-name="a" unicode="a" horiz-adv-x="443" 
d="M251 163q1 12 -0.5 15.5t-6.5 2.5q-34 -5 -59 -20t-25 -50q0 -24 15 -42t36 -18q23 0 30 13t8 36zM371 137q-1 -26 3 -42.5t11 -26t15 -13.5t16 -4q9 0 17.5 2.5t20.5 9.5q7 -2 10.5 -9t1.5 -14q-5 -6 -15.5 -15t-25.5 -18t-34.5 -15t-40.5 -6q-26 0 -45 9t-39 26
q-9 8 -16 8q-5 0 -21 -11q-14 -10 -35.5 -21t-49.5 -11q-22 0 -42 6.5t-35.5 19.5t-25 33t-9.5 46q0 38 24.5 62.5t79.5 41.5l51 15.5l43 12.5q14 4 18.5 9t5.5 11q1 8 1.5 16.5t0.5 17.5q0 14 -3 29.5t-10 28t-18 20.5t-27 8q-18 0 -32.5 -12.5t-19.5 -44.5
q-2 -12 -6 -19.5t-11 -12.5q-6 -4 -15 -8t-19.5 -7.5t-20.5 -5.5t-17 -2q-13 0 -18 7t-5 18q0 20 15 41.5t33 35.5q13 10 30.5 21t39.5 20t46.5 14.5t51.5 5.5q63 0 97.5 -33.5t30.5 -111.5z" />
    <glyph glyph-name="b" unicode="b" horiz-adv-x="532" 
d="M196 141q0 -20 4.5 -39t15.5 -36q10 -15 25 -24.5t34 -9.5q24 0 41 12.5t27.5 33t15 48t4.5 57.5q0 37 -8.5 68t-24.5 53.5t-37.5 34.5t-47.5 12q-14 0 -24 -3t-16 -8q-5 -4 -7 -16t-2 -30v-153zM196 411q0 -13 3.5 -18t8.5 -7q20 11 47 19.5t59 8.5q42 0 76.5 -15
t59 -42t38 -63.5t13.5 -79.5q0 -54 -18 -96.5t-51 -72t-78 -44.5t-99 -15q-34 0 -63.5 6t-43.5 12q-23 9 -31 9t-18.5 -5t-15.5 -10q-11 -2 -20 7q3 19 3 99v452q0 30 -2.5 42t-17.5 21l-17 10q-5 5 -5 15t5 15q32 8 74 23.5t80 32.5q11 0 17 -7q-2 -31 -3 -64.5t-1 -81.5
v-151z" />
    <glyph glyph-name="c" unicode="c" horiz-adv-x="416" 
d="M281 414q26 0 55.5 -4.5t49.5 -12.5q10 -8 15.5 -20t5.5 -32q0 -23 -8.5 -40t-17.5 -17q-4 0 -9 1.5t-7 3.5q-21 30 -48.5 52.5t-54.5 22.5q-24 0 -43 -12.5t-31.5 -33t-19 -46t-6.5 -51.5q0 -30 9.5 -58.5t27.5 -51t44.5 -36t61.5 -13.5q28 0 50 10.5t39 38.5
q9 1 17.5 -4.5t8.5 -17.5q-8 -19 -23.5 -38t-37.5 -34.5t-51 -25t-65 -9.5q-47 0 -86 15t-67 42t-43.5 64t-15.5 81q0 53 20 95t54.5 71t79.5 44.5t96 15.5z" />
    <glyph glyph-name="d" unicode="d" horiz-adv-x="537" 
d="M336 297q0 12 -2 20t-5 14q-9 16 -24.5 26.5t-32.5 10.5q-19 0 -37 -10t-32.5 -29.5t-23 -49.5t-8.5 -69q0 -25 6 -52.5t19.5 -51t34.5 -38.5t52 -15q21 0 41 12q8 5 10 14.5t2 23.5v194zM466 164q0 -35 1 -58t3.5 -36t7 -18t11.5 -5q14 0 22 1.5t21 6.5q8 -7 8.5 -21.5
t-7.5 -21.5q-37 -2 -69.5 -8t-56.5 -12t-38.5 -11t-15.5 -5q-5 0 -10 4t-7 10l3 31q-2 13 -9 8q-26 -17 -53 -30t-55 -13q-43 0 -78 15.5t-60 42.5t-39 62.5t-14 76.5q0 53 18.5 95.5t51 72.5t75.5 46.5t93 16.5q17 0 33 -1.5t24 -3.5q5 2 7.5 7.5t2.5 11.5v128
q0 30 -2.5 42t-17.5 21l-17 10q-6 5 -5.5 15t5.5 15q32 8 74 23.5t79 32.5q11 0 17 -7q-2 -31 -2.5 -64.5t-0.5 -81.5v-398z" />
    <glyph glyph-name="e" unicode="e" horiz-adv-x="420" 
d="M246 281q11 0 22 2t19 7q4 2 5.5 8.5t1.5 14.5q0 25 -13.5 40t-39.5 15q-16 0 -30 -7t-24.5 -17.5t-17 -23t-6.5 -24.5q0 -11 11 -13t35 -2h37zM180 237q-17 0 -21 -3t-4 -15q0 -28 9 -54.5t26.5 -47.5t44 -33.5t61.5 -12.5q10 0 22.5 1.5t24.5 7t24 16t22 27.5
q8 2 17 -4t9 -19q-15 -32 -36 -53.5t-44.5 -35t-48 -19.5t-46.5 -6q-51 0 -89.5 16.5t-65 44.5t-40 65t-13.5 78q0 47 16 88t45 71t68.5 47.5t86.5 17.5q39 0 69 -11.5t50 -31.5t30.5 -46t10.5 -55q0 -14 -6.5 -23.5t-29.5 -9.5h-192z" />
    <glyph glyph-name="f" unicode="f" horiz-adv-x="311" 
d="M240 346q-19 0 -22.5 -4t-3.5 -24v-202q0 -27 1 -43t5 -24.5t11.5 -11.5t19.5 -4l33 -3q6 -5 6 -16.5t-7 -16.5q-35 2 -68 2.5t-68 0.5q-34 0 -64.5 -0.5t-53.5 -2.5q-7 5 -7 16.5t6 16.5l16 2q13 1 21 4.5t12.5 12t5.5 24.5t1 43v202q0 20 -4 24t-21 4h-37q-5 3 -6 13
t3 14l43 22q10 5 16 10.5t6 15.5q0 16 1.5 37t4.5 43.5t8.5 44.5t13.5 40q11 25 27 48t39.5 41t55.5 29t74 11q22 0 43 -5.5t37.5 -16t26.5 -26t10 -34.5q0 -25 -16 -39.5t-42 -14.5q-16 0 -25.5 6t-14.5 12q-32 41 -47 53.5t-24 12.5q-20 0 -31 -26t-11 -96v-113
q0 -20 3.5 -24t22.5 -4h95q7 -4 7 -20q0 -10 -3 -19.5t-10 -14.5h-89z" />
    <glyph glyph-name="g" unicode="g" horiz-adv-x="479" 
d="M210 -56q-20 0 -34.5 -4t-21.5 -9q-14 -13 -14 -35q0 -51 35 -81.5t95 -30.5q48 0 76.5 21.5t28.5 57.5q0 44 -28 62.5t-70 18.5h-67zM163 270q0 -57 19.5 -90t49.5 -33q23 0 40 23.5t17 78.5q0 61 -19 90t-46 29q-23 0 -42 -23.5t-19 -74.5zM492 377q9 -8 9 -25
q0 -12 -3.5 -23.5t-11.5 -16.5h-74q2 -7 2.5 -14.5t0.5 -20.5q0 -30 -10 -61t-33.5 -56.5t-63 -41.5t-98.5 -16q-12 0 -22.5 1t-18.5 2q-17 -7 -17 -24t14 -26.5t37 -9.5q26 0 56.5 1t65.5 1q28 0 56 -4.5t50 -18t35.5 -37t13.5 -61.5q0 -48 -25.5 -87.5t-64.5 -63.5
q-39 -23 -85 -33.5t-90 -10.5q-54 0 -91.5 11.5t-60.5 29.5t-33.5 41t-10.5 46q0 18 9.5 30t22.5 20l28 17.5l21 13.5q9 5 8 8.5t-7 5.5q-28 9 -45 31.5t-17 48.5q0 14 7 21q21 14 40 28t24 19q7 5 9.5 10t-1.5 12q-38 15 -61.5 49t-23.5 80q0 31 12 60t36.5 51.5t61 36
t85.5 13.5q45 0 83 -11t66 -26h115z" />
    <glyph glyph-name="h" unicode="h" horiz-adv-x="547" 
d="M80 556q0 30 -2.5 42t-17.5 21l-17 10q-5 5 -5 15t5 15q32 8 72.5 23.5t80.5 32.5q11 0 17 -7q-2 -31 -2.5 -64.5t-0.5 -81.5v-184q0 -12 7 -12q3 0 16 8q17 11 47 25.5t68 14.5q31 0 55 -10t39.5 -27t23.5 -40t8 -49v-172q0 -26 1 -41.5t5.5 -24t12 -12t21.5 -4.5l16 -2
q6 -5 6 -17.5t-7 -17.5q-47 3 -121 3q-32 0 -61.5 -0.5t-46.5 -2.5q-7 5 -7 17.5t6 17.5l18 3q17 2 22 13.5t5 52.5v173q0 26 -16.5 46.5t-53.5 20.5q-21 0 -35.5 -8t-20.5 -16q-8 -9 -8 -37v-179q0 -41 5 -52.5t22 -13.5l18 -3q6 -5 6 -17.5t-7 -17.5q-23 2 -49 2.5
t-62 0.5q-31 0 -61 -0.5t-56 -2.5q-7 5 -7 17.5t6 17.5l18 2q12 1 19.5 4.5t11.5 12t5 24t1 41.5v440z" />
    <glyph glyph-name="i" unicode="i" horiz-adv-x="286" 
d="M152 672q33 0 53.5 -21.5t20.5 -53.5q0 -38 -24.5 -57.5t-54.5 -19.5q-35 0 -54.5 21.5t-19.5 53.5q0 35 23.5 56t55.5 21zM214 116q0 -26 1 -41.5t5 -24t11.5 -12t19.5 -4.5l19 -2q6 -5 6 -17.5t-7 -17.5q-53 3 -120 3q-34 0 -64.5 -0.5t-55.5 -2.5q-7 5 -7 17.5t6 17.5
l19 2q12 1 19.5 4.5t11.5 12t5 24t1 41.5v151q0 30 -2.5 42t-16.5 22l-14 9q-5 5 -5 15t5 15q18 5 39 12t41.5 15t38.5 16t29 15q12 0 18 -9q-2 -23 -2.5 -54t-0.5 -65v-184z" />
    <glyph glyph-name="j" unicode="j" horiz-adv-x="281" 
d="M153 672q33 0 53.5 -21.5t20.5 -53.5q0 -38 -24.5 -57.5t-54.5 -19.5q-35 0 -54.5 21.5t-19.5 53.5q0 35 23.5 56t55.5 21zM215 53q0 -52 -5 -92t-16 -69q-10 -27 -24.5 -49.5t-37.5 -42t-57 -36.5t-82 -33q-11 4 -15 15t1 18q16 8 29 18t20 18q29 29 43 84.5t14 147.5
v235q0 30 -2.5 42t-16.5 22l-14 9q-5 5 -5 15t5 15q18 5 39 12t41 15t38 16t30 15q12 0 18 -9q-2 -23 -2.5 -54t-0.5 -65v-247z" />
    <glyph glyph-name="k" unicode="k" horiz-adv-x="532" 
d="M76 556q0 30 -2.5 42t-17.5 21l-17 10q-5 5 -5 15t5 15q31 8 73 23.5t80 32.5q11 0 17 -7q-2 -31 -2.5 -64.5t-0.5 -81.5v-314q0 -14 14 -14q13 0 28 5.5t30 22.5l42 49q14 17 19 26t5 14q0 4 -6 6t-13 4l-25 4q-7 7 -6.5 19.5t8.5 15.5h24q18 0 41 1t48.5 2.5t51.5 4.5
t48 6q8 -4 8.5 -16.5t-4.5 -18.5l-32 -7q-14 -3 -30.5 -11t-36.5 -24q-29 -22 -42.5 -34.5l-24.5 -23.5q-6 -7 -6 -13t7 -17l24.5 -40l38 -59t40 -57t28.5 -35q11 -10 25 -14.5t34 -8.5l15 -3q6 -5 5 -18.5t-9 -16.5q-23 2 -52.5 2.5t-73.5 0.5q-45 0 -73.5 -0.5t-49.5 -2.5
q-8 4 -9 16t5 19l13 3q16 3 16 8q0 3 -5.5 13t-11.5 19l-71 108q-10 15 -25 15q-5 0 -8.5 -5t-3.5 -19v-58q0 -26 1 -41.5t5 -24t12 -12t21 -4.5l16 -2q6 -5 6 -17.5t-7 -17.5q-24 2 -54.5 2.5t-65.5 0.5q-70 0 -122 -3q-7 5 -7 17.5t6 17.5l19 2q13 1 21 4.5t12.5 12
t5.5 24t1 41.5v440z" />
    <glyph glyph-name="l" unicode="l" horiz-adv-x="278" 
d="M76 556q0 30 -2.5 42t-17.5 21l-17 10q-5 5 -5 15t5 15q32 8 73.5 23.5t79.5 32.5q11 0 17 -7q-2 -31 -2.5 -64.5t-0.5 -81.5v-446q0 -26 1 -41.5t5 -24t12 -12t21 -4.5l17 -2q6 -5 6 -17.5t-7 -17.5q-50 3 -120 3q-32 0 -63 -0.5t-57 -2.5q-7 5 -7 17.5t6 17.5l19 2
q12 1 19.5 4.5t11.5 12t5 24t1 41.5v440z" />
    <glyph glyph-name="m" unicode="m" horiz-adv-x="806" 
d="M84 267q0 30 -2.5 42t-16.5 22l-14 9q-5 5 -5 15t5 15q17 5 38 12t41.5 15t38.5 16t30 15q12 0 18 -9q0 -11 -1.5 -25.5t-1.5 -19.5q0 -8 5 -8q2 0 8 3t11 5q8 5 20.5 12t27.5 13t32 10.5t35 4.5q56 0 90 -38q9 -11 14 -14.5t10 -3.5q3 0 10.5 4.5l21.5 12.5l45 24t69 15
q30 0 52.5 -10t37.5 -27t23 -40t8 -49v-172q0 -26 1 -41.5t5 -24t11.5 -12t19.5 -4.5l16 -2q6 -5 6 -17.5t-7 -17.5q-47 3 -117 3q-30 0 -59.5 -0.5t-49.5 -2.5q-7 5 -7 17.5t6 17.5l16 2q9 1 15 4t9 10t4 19.5t1 33.5v170q0 29 -16 49.5t-51 20.5q-21 0 -36 -8t-20 -17
q-7 -11 -7 -30v-185q0 -21 1 -33.5t4 -19.5t8 -10t14 -4l16 -2q6 -5 6 -17.5t-7 -17.5q-23 2 -48.5 2.5t-59.5 0.5q-30 0 -58 -0.5t-48 -2.5q-7 5 -7 17.5t6 17.5l16 2q9 1 14 4t8 10t4 19.5t1 33.5v170q0 29 -16 49.5t-52 20.5q-20 0 -34 -8t-20 -16q-8 -9 -8 -37v-179
q0 -21 1 -33.5t4 -19.5t9 -10t15 -4l16 -2q6 -5 6 -17.5t-7 -17.5q-23 2 -49 2.5t-62 0.5q-69 0 -114 -3q-8 5 -8 17.5t6 17.5l16 2q12 1 19.5 4.5t11.5 12t5 24t1 41.5v151z" />
    <glyph glyph-name="n" unicode="n" horiz-adv-x="550" 
d="M84 267q0 30 -2.5 42t-16.5 22l-14 9q-5 5 -5 15t5 15q18 5 39 12t41.5 15t38.5 16t29 15q12 0 18 -9q0 -11 -1.5 -25.5t-1.5 -19.5q0 -8 5 -8q2 0 8 3t11 5q8 5 20.5 12t28 13t32.5 10.5t34 4.5q31 0 54.5 -10t39 -27t23.5 -40t8 -49v-172q0 -26 1 -41.5t5.5 -24t12 -12
t21.5 -4.5l16 -2q6 -5 6 -17.5t-7 -17.5q-47 3 -121 3q-30 0 -58 -0.5t-50 -2.5q-7 5 -7 17.5t6 17.5l18 3q17 2 22 13.5t5 52.5v169q0 29 -16 50t-54 21q-21 0 -35.5 -8t-20.5 -16q-8 -9 -8 -37v-179q0 -21 1 -33.5t4 -19.5t9 -10t15 -4l16 -2q6 -5 6 -17.5t-7 -17.5
q-23 2 -49 2.5t-62 0.5q-32 0 -62 -0.5t-56 -2.5q-7 5 -7 17.5t6 17.5l16 2q13 1 21 4.5t12.5 12t5.5 24t1 41.5v151z" />
    <glyph glyph-name="o" unicode="o" horiz-adv-x="516" 
d="M255 368q-33 0 -56.5 -36t-23.5 -118q0 -39 6 -72.5t17.5 -58t28.5 -38t39 -13.5q21 0 35.5 11.5t23.5 32t12.5 49t3.5 62.5q-1 36 -6.5 69t-16 58t-26.5 39.5t-37 14.5zM255 -14q-45 0 -85.5 13t-71 38.5t-49 64t-18.5 90.5q-1 54 18.5 95t51.5 69.5t74 43t86 14.5
t84.5 -13.5t71.5 -40t49.5 -66.5t18.5 -93q0 -55 -18.5 -95.5t-50 -67t-73.5 -39.5t-88 -13z" />
    <glyph glyph-name="p" unicode="p" horiz-adv-x="543" 
d="M207 113q0 -35 23 -58q10 -11 23 -17t25 -6q47 0 71.5 44.5t24.5 114.5q0 74 -32 114t-82 40q-13 0 -24.5 -3t-17.5 -11q-4 -5 -7.5 -17t-3.5 -41v-160zM77 267q0 30 -2.5 42t-16.5 22l-14 9q-5 5 -5 15t5 15q15 4 35.5 12t41 17t38.5 18t29 16q5 1 11.5 -2t9.5 -10
q-2 -9 -2 -17v-16q0 -12 8 -14l55 25.5t72 14.5t71.5 -14.5t53.5 -40.5t33.5 -61t11.5 -75q0 -53 -18 -96.5t-50 -74.5t-77 -48.5t-100 -17.5q-11 0 -24.5 0.5t-20.5 2.5q-7 -2 -11 -7.5t-4 -21.5v-99q0 -26 1 -41.5t5 -24t11.5 -11.5t19.5 -4l34 -3q6 -5 6 -17.5t-7 -17.5
q-38 2 -70 2.5t-67 0.5q-65 0 -119 -3q-7 5 -7 17.5t6 17.5l20 2q12 1 19.5 4.5t11.5 12t5 24t1 41.5v406z" />
    <glyph glyph-name="q" unicode="q" horiz-adv-x="528" 
d="M336 257q0 32 -6 55t-14 34q-7 8 -18.5 15t-29.5 7q-20 0 -37.5 -11t-31 -30.5t-21.5 -46.5t-8 -60q0 -44 11.5 -76.5t30 -54t41.5 -32.5t46 -11q11 0 18 2t12 5t6 10t1 15v179zM466 -139q0 -26 1 -41.5t5 -24t11.5 -11.5t19.5 -4l34 -3q6 -5 6 -17.5t-7 -17.5
q-35 2 -67.5 2.5t-67.5 0.5q-68 0 -125 -3q-7 5 -7 17.5t6 17.5l22 2q13 1 21 4.5t12 12t5 24t1 41.5v130q0 8 -1.5 13.5t-7.5 5.5q-36 -17 -58 -20.5t-41 -3.5q-46 0 -82.5 15.5t-62 42.5t-39 63t-13.5 76q0 53 19 95.5t52.5 72.5t80 46.5t100.5 16.5q32 0 61.5 -4t46.5 -8
q12 -3 19 -3q6 0 12.5 2t17.5 12l6 7q9 1 16 -2t9 -8q-4 -31 -5 -59.5t0 -69.5v-420z" />
    <glyph glyph-name="r" unicode="r" horiz-adv-x="371" 
d="M84 265q0 30 -2.5 42t-16.5 22l-14 9q-5 5 -5 15t5 15q17 5 37.5 12t41 15.5t38 16.5t29.5 16q12 0 18 -9q-2 -15 -3 -25.5t-1 -17.5q0 -10 10 -12q10 6 20.5 15t22.5 16.5t25.5 13t29.5 5.5q20 0 37.5 -15t17.5 -44q0 -35 -20 -50t-44 -15q-20 0 -39 18q-17 14 -25 17
t-13 3q-11 0 -15 -15.5t-4 -44.5v-154q0 -26 1 -41.5t5 -24t11.5 -11.5t19.5 -4l32 -3q6 -5 6 -17.5t-7 -17.5q-36 2 -68 2.5t-67 0.5q-31 0 -62 -0.5t-56 -2.5q-7 5 -7 17.5t6 17.5l19 2q12 1 19.5 4.5t11.5 12t5 24t1 41.5v151z" />
    <glyph glyph-name="s" unicode="s" horiz-adv-x="358" 
d="M164 -14q-84 0 -124 31q-8 15 -13 47t-3 66q5 8 17 8.5t17 -6.5q5 -15 14.5 -32.5t22.5 -32.5t29.5 -25t35.5 -10q23 0 37.5 13t14.5 39q0 28 -20 45t-46 30q-45 23 -74 52t-29 74q0 33 12.5 57t34.5 40t51 24t61 8q38 0 68.5 -7.5t38.5 -13.5q8 -17 11.5 -44t3.5 -56
q-3 -8 -16.5 -8.5t-18.5 4.5q-15 44 -34 61.5t-44 17.5q-22 0 -36 -12t-14 -32q0 -17 15 -32t49 -32q51 -25 80.5 -58t29.5 -82q0 -33 -13.5 -58.5t-37 -42t-54.5 -25t-66 -8.5z" />
    <glyph glyph-name="t" unicode="t" horiz-adv-x="323" 
d="M221 346q-10 0 -12 -3t-2 -20v-150q0 -21 1 -42t7.5 -38t21 -27.5t40.5 -10.5q11 0 22 4.5t20 10.5q8 -2 12 -9.5t2 -16.5q-21 -23 -59 -40.5t-85 -17.5q-62 0 -87 32t-25 82v223q0 16 -2.5 19.5t-16.5 3.5h-31q-8 3 -10 14.5t4 16.5q23 8 44 20.5t39 24.5
q14 10 32.5 27.5t41.5 50.5q5 3 15.5 2t14.5 -7v-75q0 -14 2.5 -17t16.5 -3h89q8 -6 8 -19q0 -8 -2.5 -19t-10.5 -16h-90z" />
    <glyph glyph-name="u" unicode="u" horiz-adv-x="544" 
d="M471 132q0 -45 4.5 -65t22.5 -20q10 0 20.5 2.5t19.5 5.5q3 -1 5 -7t2 -13.5t-2.5 -14t-7.5 -8.5q-37 -2 -70 -7.5t-58 -12t-40.5 -11.5t-16.5 -5q-10 1 -12 12q2 9 2.5 19.5t0.5 16.5q0 10 -11 10q-29 -19 -59.5 -33.5t-76.5 -14.5q-63 0 -90 32t-27 96v170
q0 20 -1.5 31.5t-4.5 18t-9 9.5t-15 6l-13 4q-5 7 -4.5 18.5t8.5 16.5q25 1 50 3t47 6q23 4 41.5 10.5t21.5 6.5q5 0 8 -4t4 -8q-2 -19 -2.5 -40t-0.5 -48v-165q0 -18 2 -34.5t9.5 -28.5t21.5 -19.5t38 -7.5q21 0 33.5 7t18.5 12q5 4 8 13t3 17v189q0 30 -8 40t-35 14l-14 2
q-6 5 -5 18.5t10 16.5q27 2 53.5 4.5t50.5 5.5q26 4 46 10t25 6q8 0 10 -12q-1 -14 -2 -37t-1 -51v-182z" />
    <glyph glyph-name="v" unicode="v" horiz-adv-x="457" 
d="M-5 368q-7 5 -7 18.5t10 16.5q28 -2 56 -2.5t68 -0.5q28 0 55.5 1l55.5 2q7 -4 7 -17.5t-5 -17.5l-16 -4q-17 -3 -17 -10q0 -5 2.5 -14.5t6.5 -20.5q15 -42 31 -80.5l32 -74.5l34.5 78t33.5 86q6 15 6 25q0 8 -24 12l-14 3q-7 5 -7 18t8 17q24 -2 42 -2.5t40 -0.5
q24 0 42 1l35 2q8 -4 7.5 -17t-5.5 -18l-17 -3q-11 -2 -19 -5.5t-14 -10t-12 -16t-13 -23.5q-39 -78 -73.5 -157l-69.5 -160q-9 -7 -23 -7t-24 7l-34.5 82.5t-29.5 68.5l-31.5 69.5l-40.5 86.5l-15 29.5t-12 18t-12.5 10t-15.5 5.5z" />
    <glyph glyph-name="w" unicode="w" horiz-adv-x="682" 
d="M323 307q0 6 -3 14.5t-8 16t-12 13.5t-14 8q-19 4 -48 4q-24 0 -37.5 -3.5t-13.5 -11.5q0 -11 9 -33q5 -13 14.5 -34.5l20 -45l20.5 -44.5l16 -33l13.5 27t16.5 35l14.5 33.5t8.5 23.5q2 10 2.5 17t0.5 13zM313 400q48 0 88.5 0.5t88.5 2.5q4 0 6 -5t2 -11t-1 -12t-4 -7
l-15 -3q-37 -8 -37 -15q0 -6 1.5 -12t6.5 -19l32.5 -80.5t35.5 -80.5q18 44 31 81l25 72q9 27 9 39q0 8 -25 14l-17 4q-5 5 -4.5 18.5t8.5 16.5q25 -2 44 -2.5t38 -0.5q44 0 77 3q7 -3 8 -15.5t-5 -19.5l-14 -3q-12 -3 -20 -6.5t-14 -9.5t-11 -15t-11 -23l-68.5 -157.5
l-65.5 -160.5q-7 -7 -23 -7q-8 0 -13 1t-10 6l-21 50.5l-27.5 63.5l-29 65l-25.5 56l-25 -52l-30.5 -66.5l-30 -66l-23.5 -50.5q-7 -7 -23 -7q-8 0 -13 1t-10 6l-72.5 169.5l-73.5 162.5q-11 22 -19.5 28.5t-21.5 9.5l-18 5q-5 6 -5 18.5t8 16.5q31 -2 57 -2.5t58 -0.5h202z
" />
    <glyph glyph-name="x" unicode="x" horiz-adv-x="458" 
d="M433 366q-22 -3 -35 -6.5t-25 -11.5q-5 -3 -14.5 -12t-20 -20.5l-21 -24l-19.5 -23.5q-19 -25 -19 -30t7 -17t14 -22l68 -101q13 -20 24 -32t21 -18.5t20.5 -10t23.5 -4.5l11 -1q6 -5 5.5 -18.5t-8.5 -16.5q-66 3 -121 3q-30 0 -64 -0.5t-69 -2.5q-7 3 -8 16.5t5 18.5
l22 4q11 2 14 5t3 6q0 7 -12 27l-21 33t-22 33q-11 -16 -21 -32.5l-20 -33.5q-12 -21 -12 -29q0 -4 3.5 -6t14.5 -4l16 -3q6 -5 5 -18.5t-7 -16.5q-44 3 -90 3q-32 0 -78 -3q-7 4 -8.5 16.5t6.5 18.5l25 4q13 2 26.5 7t20.5 13q6 6 17.5 20l24 30.5l24 31.5t16.5 23
q9 15 9 22q0 3 -7 15t-25 38l-54 83q-15 23 -29.5 31.5t-31.5 12.5l-21 5q-3 2 -4 7t-1 11t2 11t6 6q29 -2 54.5 -2.5t66.5 -0.5q53 0 107 3q9 -3 9.5 -16.5t-7.5 -18.5l-12 -3q-6 -1 -10.5 -3t-4.5 -4q0 -3 2 -7.5t7 -13.5q10 -17 20 -31.5l21 -29.5l19.5 27.5l23.5 34.5
q5 7 6 10.5t1 7.5q0 6 -16 9l-11 3q-3 2 -4.5 7.5t-1 11t2.5 10t6 6.5q22 -2 43 -2.5t48 -0.5q38 0 76 3q4 -1 6 -6t2 -10.5t-1.5 -11t-4.5 -7.5z" />
    <glyph glyph-name="y" unicode="y" horiz-adv-x="469" 
d="M-6 368q-5 5 -5 18.5t8 16.5q54 -3 132 -3q56 0 112 3q8 -3 8.5 -16.5t-5.5 -18.5l-20 -4q-21 -5 -25.5 -8.5t-4.5 -10.5q0 -9 8 -30l22 -59l10 -26.5l12 -32l12 -31.5t11 -24l15.5 32.5l15.5 33.5l18 41q16 36 26.5 64.5t10.5 36.5q0 5 -6.5 8.5t-15.5 5.5l-20 4
q-7 5 -6 19t9 16q17 -2 40 -2.5t57 -0.5q39 0 78 3q4 -2 6 -6.5t2 -10t-1.5 -11t-4.5 -7.5l-19 -2q-15 -2 -27 -7.5t-19 -14.5q-9 -12 -25.5 -41t-33.5 -64l-53 -109l-33.5 -69l-42 -87.5l-42.5 -88l-34 -70.5q-16 -34 -37 -49.5t-49 -16.5q-20 0 -32.5 5.5t-19.5 14
t-9.5 19.5t-2.5 21q0 23 15.5 37.5t41.5 14.5h24q18 0 29.5 5.5t19.5 15.5q8 11 14.5 25l14.5 30q5 9 9.5 21t4.5 21q0 10 -3.5 26t-15.5 47l-96 242q-14 36 -25 51t-35 20z" />
    <glyph glyph-name="z" unicode="z" horiz-adv-x="415" 
d="M126 0q-41 0 -63 -0.5t-34 -2.5q-11 4 -7 16l16.5 25.5l22.5 36.5l25 41.5l24 40.5l93 165q11 21 11 29q0 2 -5.5 3.5t-22.5 1.5h-31q-27 0 -44 -4t-27 -15q-6 -6 -15 -20.5t-17 -37.5q-7 -6 -19.5 -3t-16.5 11q2 15 6 34l8 37.5t8.5 35t8.5 25.5q4 4 11 4t10 -4
q1 -6 3 -9.5t7 -6t16 -3t30 -0.5h180q65 0 83 3q3 -2 5 -6t1 -7q-14 -20 -31 -48l-40 -69l-107 -182q-18 -32 -18 -41q0 -4 9 -5t31 -1h24q32 0 56.5 7t37.5 27q10 15 30 54q6 6 19 4.5t17 -9.5q-1 -14 -5.5 -33.5t-10 -38.5t-11.5 -35t-11 -23q-31 1 -53 1.5t-40 0.5
q-18 1 -34 1h-33h-97z" />
    <glyph glyph-name="braceleft" unicode="{" horiz-adv-x="340" 
d="M239 162q0 -26 -3 -51.5l-6 -51.5q-4 -26 -7 -51t-3 -51q0 -14 2.5 -27t11.5 -25t25.5 -21t44.5 -14q5 -5 4 -15.5t-6 -12.5q-34 0 -64.5 4t-54 17.5t-37 39.5t-13.5 70q0 25 2.5 51t5.5 52t5.5 52t2.5 49q0 10 -2 23t-10.5 24.5t-26.5 20t-49 10.5q-5 6 -5 14t5 12
q34 2 52 10t26 19.5t9 24t1 24.5q0 24 -2.5 49.5t-5.5 51.5t-5.5 52t-2.5 51q0 44 14.5 70t38 39.5t54 17.5t62.5 4q5 -2 6 -12.5t-4 -15.5q-28 -5 -44.5 -15t-25.5 -22t-11.5 -25.5t-2.5 -24.5q0 -26 3 -51t7 -51l6 -51.5t3 -51.5q0 -42 -18 -68t-57 -36v-4q39 -10 57 -36
t18 -68z" />
    <glyph glyph-name="bar" unicode="|" horiz-adv-x="248" 
d="M168 -250h-88v1000h88v-1000z" />
    <glyph glyph-name="braceright" unicode="}" horiz-adv-x="340" 
d="M101 162q0 42 18 68t57 36v4q-39 10 -57 36t-18 68q0 26 3 51.5t7 51.5l6 51t3 51q0 11 -2.5 24.5t-11.5 25.5t-25.5 22t-44.5 15q-5 5 -4 15.5t6 12.5q32 0 62.5 -4t54 -17.5t38 -39.5t14.5 -70q0 -25 -2.5 -51t-5.5 -52t-5.5 -51.5t-2.5 -49.5q0 -12 1 -24.5t9 -24
t26 -19.5t52 -10q5 -4 5 -12t-5 -14q-32 -2 -49.5 -10.5t-26 -20t-10.5 -24.5t-2 -23q0 -23 2.5 -49t5.5 -52t5.5 -52t2.5 -51q0 -44 -13.5 -70t-37 -39.5t-54 -17.5t-64.5 -4q-5 2 -6 12.5t4 15.5q28 5 44.5 14t25.5 21t11.5 25t2.5 27q0 51 -9.5 102t-9.5 103z" />
    <glyph glyph-name="asciitilde" unicode="~" 
d="M323 249q36 0 53.5 18t31.5 56q12 8 30 3.5t26 -18.5q-8 -28 -23 -57.5t-32 -47.5q-14 -17 -32 -21.5t-44 -4.5h-138q-32 0 -51 -21t-34 -58q-6 -3 -14 -4t-16.5 0.5t-15 5.5t-8.5 11q1 9 5.5 23t11.5 29t15.5 30t17.5 26q17 20 38.5 25t51.5 5h127z" />
    <glyph glyph-name="exclamdown" unicode="&#xa1;" horiz-adv-x="254" 
d="M127 394q36 0 58.5 -23t22.5 -58q0 -16 -6 -31t-16.5 -26.5t-25.5 -18.5t-33 -7q-34 0 -57.5 24t-23.5 59q0 18 7 33t18.5 25.5t26 16.5t29.5 6zM127 -266q-39 0 -59.5 8.5t-20.5 34.5q0 12 4 38l12 79l42 281q9 6 22 6t22 -6l42 -281l12 -79t4 -38q0 -26 -20.5 -34.5
t-59.5 -8.5z" />
    <glyph glyph-name="cent" unicode="&#xa2;" 
d="M356 525q22 -1 41 -4.5t34 -8.5q7 -5 14 -18.5t7 -31.5q0 -26 -8.5 -40t-18.5 -14t-16 6q-13 13 -29 32t-27 27q-1 0 -1 0.5t-2 0.5l-36 -298q4 -2 8 -2h8q35 0 60 13t49 45q11 2 19.5 -3.5t7.5 -15.5q-8 -16 -20.5 -33.5t-31.5 -32.5t-45.5 -25.5t-62.5 -13.5l-13 -104
q-8 -6 -23.5 -6t-24.5 6l13 104q-48 3 -85.5 19t-63.5 42t-39.5 60t-13.5 74q0 58 21.5 99.5t57 69t80.5 41t93 14.5l10 85q8 6 24 6t24 -6zM303 484q-26 -1 -46.5 -13.5t-34.5 -33.5t-21.5 -48.5t-7.5 -57.5q0 -53 19 -89.5t56 -53.5z" />
    <glyph glyph-name="sterling" unicode="&#xa3;" 
d="M326 275q0 -26 -7 -50.5t-22 -44.5q-20 -28 -41.5 -42t-37.5 -23v-3q8 1 19.5 0.5t26.5 -2.5q20 -3 39.5 -14t37.5 -24q6 -5 15.5 -12l19 -13.5t19.5 -11t18 -4.5t14.5 4.5t6.5 16.5q0 7 -3 20.5t-8 27.5q-1 20 11 31.5t29 11.5q23 0 35.5 -18.5t12.5 -42.5
q0 -21 -13.5 -40.5t-35 -34.5t-48.5 -24t-54 -9q-53 0 -106.5 23.5t-104.5 52.5q-8 0 -20.5 -11t-12.5 -24q0 -7 -7.5 -12.5t-18 -9t-23 -5.5t-22.5 -2q-16 0 -25 8t-9 21q0 16 10.5 30.5t28.5 25.5t41 19.5t48 12.5q20 6 36 28.5t16 71.5q0 29 -1.5 45t-5.5 27h-115
q-8 8 -7.5 23.5t8.5 21.5h105q-7 27 -10 53.5t-3 58.5q0 95 56 151.5t155 56.5q32 0 55 -6.5t29 -10.5q10 -6 16 -14t6 -21q0 -26 -11 -45t-21 -19q-6 0 -12 2.5t-11 10.5q-19 29 -39 43t-37 14q-22 -1 -38 -24.5t-16 -62.5q0 -22 2.5 -49t7.5 -49q3 -17 7 -35.5l12 -53.5
h132q6 -6 6 -22t-7 -23h-128z" />
    <glyph glyph-name="fraction" unicode="&#x2044;" horiz-adv-x="100" 
d="M-111 -40q-14 -3 -28 4t-19 20l370 670q11 1 27 -5t20 -19z" />
    <glyph glyph-name="fraction" unicode="&#x2215;" horiz-adv-x="100" 
d="M-111 -40q-14 -3 -28 4t-19 20l370 670q11 1 27 -5t20 -19z" />
    <glyph glyph-name="yen" unicode="&#xa5;" 
d="M475 245q8 -7 8 -22t-8 -23h-150v-84q0 -27 1 -43t5 -24.5t11.5 -11.5t19.5 -4l33 -3q6 -5 6 -16.5t-7 -16.5q-38 2 -70.5 2.5t-64.5 0.5q-34 0 -67.5 -0.5t-72.5 -2.5q-7 5 -7 16.5t6 16.5l36 3q12 1 19.5 4t11.5 11.5t5 24.5t1 43v84h-150q-8 8 -8 23t8 22h150
q0 24 -11 52l-10 24h-129q-8 8 -8 23t8 22h110l-78 168q-11 23 -24.5 39.5t-40.5 21.5l-18 3q-6 5 -5.5 17t8.5 16q35 -2 69.5 -2.5t72.5 -0.5q43 0 71 0.5t47 2.5q9 -2 8 -14.5t-7 -18.5l-30 -7q-20 -5 -20 -17q0 -8 7.5 -26l12.5 -31q13 -35 32.5 -78.5l39.5 -90.5
q2 5 8.5 19l14.5 32l16.5 37.5l15.5 35.5l14 32.5t12.5 31l9 24.5t3.5 14q0 13 -29 19l-18 5q-8 5 -7.5 17t11.5 16q30 -2 53 -2.5t43 -0.5q17 0 39.5 0.5t48.5 2.5q8 -3 7.5 -15.5t-6.5 -17.5l-22 -6q-12 -3 -21 -6.5t-17 -11.5t-17 -22t-21 -38l-76 -148h117q8 -7 8 -22
t-8 -23h-137l-4 -10q-5 -12 -7 -27.5t-2 -38.5h150z" />
    <glyph glyph-name="florin" unicode="&#x192;" 
d="M440 393q6 -6 3.5 -22.5t-10.5 -22.5h-115l-38 -210q-14 -75 -33.5 -126t-44.5 -79q-19 -20 -47.5 -38.5t-71.5 -18.5q-54 0 -79.5 21.5t-25.5 44.5q0 10 4 19t10.5 16t14 11t14.5 4q12 0 23 -14l34 -42q5 -5 11 -9.5t11 -4.5q6 0 10.5 5.5t7.5 14.5t4.5 19t3.5 19
q14 92 26.5 184t26.5 184h-94q-3 3 -4 10t0.5 14.5t4.5 13.5t8 8h93q6 37 15.5 73t25.5 71q9 18 23 38.5t35.5 38.5t52 29.5t71.5 11.5q56 0 88 -20t31 -48q1 -10 -3.5 -21t-11.5 -20t-16 -14.5t-16 -5.5q-13 0 -19.5 6.5t-15.5 19.5q-26 34 -40 45.5t-20 11.5
q-8 0 -15 -12.5t-15 -44.5q-8 -35 -16 -76t-15 -84h114z" />
    <glyph glyph-name="section" unicode="&#xa7;" horiz-adv-x="525" 
d="M248 240q70 -58 98 -112.5t20 -121.5l2 -2q27 29 38.5 58.5t11.5 65.5q0 57 -31 104.5t-97 100.5q-41 33 -67.5 59t-41.5 50.5t-20 51t-3 60.5q-20 -16 -35.5 -43.5t-15.5 -57.5q0 -15 2.5 -34t16 -44.5t42 -58.5t80.5 -76zM320 676q31 0 50.5 -6t30.5 -15t15 -19t4 -18
q0 -23 -17.5 -33t-34.5 -10q-11 0 -21.5 4.5t-19.5 11.5q-32 24 -45.5 29.5t-21.5 5.5q-14 0 -28 -14t-14 -33q0 -13 4.5 -27t20 -32.5t44 -43.5t76.5 -60q57 -42 89.5 -97t32.5 -139q0 -51 -22 -105t-62 -98t-94.5 -72.5t-119.5 -28.5q-42 0 -65.5 15t-23.5 44
q0 18 12.5 31.5t35.5 13.5q9 0 22 -4.5t33 -18.5t34 -20t32 -6t31.5 12.5t13.5 36.5q0 19 -12 41t-31.5 45.5t-44 46t-49.5 42.5q-65 51 -100 106t-35 129q0 54 23 105.5t62 91.5t89.5 64.5t105.5 24.5z" />
    <glyph glyph-name="currency" unicode="&#xa4;" 
d="M260 527q35 0 65.5 -9.5t53.5 -26.5l37 49q21 -2 40.5 -18t24.5 -42l-46 -42q18 -21 29.5 -54t11.5 -71t-11.5 -71t-29.5 -54l46 -42q-5 -26 -24.5 -42t-40.5 -18l-37 49q-23 -17 -53.5 -26.5t-65.5 -9.5t-65.5 9.5t-53.5 26.5l-37 -49q-21 2 -40.5 18t-24.5 42l46 42
q-18 21 -29.5 54t-11.5 71t11.5 71t29.5 54l-46 42q5 26 24.5 42t40.5 18l37 -49q23 17 53.5 26.5t65.5 9.5zM260 450q-25 0 -47.5 -10t-39.5 -28t-27 -43.5t-10 -55.5q0 -31 10 -56t27 -43t39.5 -28t47.5 -10t47.5 10t39.5 28t27 43.5t10 55.5t-10 55.5t-27 43.5t-39.5 28
t-47.5 10z" />
    <glyph glyph-name="quotesingle" unicode="'" horiz-adv-x="253" 
d="M127 700q32 0 48 -5t16 -29q0 -8 -1.5 -21.5t-6.5 -35.5l-37 -205q-8 -6 -19 -6t-19 6l-37 205q-5 22 -6.5 35.5t-1.5 21.5q0 24 16 29t48 5z" />
    <glyph glyph-name="quotedblleft" unicode="&#x201c;" horiz-adv-x="472" 
d="M358 414q-15 0 -32.5 7t-32.5 21.5t-24.5 37.5t-9.5 56q0 35 13 63t35 49.5t50.5 36t59.5 21.5q13 -2 15.5 -14t-5.5 -17q-14 -5 -28.5 -13.5t-27.5 -20.5t-21 -26.5t-8 -32.5q0 -16 5 -26.5t13.5 -18t18 -11.5t18.5 -6q13 -4 21.5 -15.5t8.5 -28.5q0 -26 -20 -44
t-49 -18zM139 414q-15 0 -32.5 7t-32.5 21.5t-24.5 37.5t-9.5 56q0 35 13 63t35 49.5t50.5 36t59.5 21.5q13 -2 15.5 -14t-5.5 -17q-14 -5 -28.5 -13.5t-27.5 -20.5t-21 -26.5t-8 -32.5q0 -16 5 -26.5t13.5 -18t18 -11.5t18.5 -6q13 -4 21.5 -15.5t8.5 -28.5q0 -26 -20 -44
t-49 -18z" />
    <glyph glyph-name="guillemotleft" unicode="&#xab;" horiz-adv-x="432" 
d="M320 224q-7 -14 0 -29l76 -163q-3 -6 -8.5 -11t-13.5 -4l-74.5 87l-77.5 87q-15 18 0 36l77.5 85.5l74.5 86.5q6 -2 12.5 -5t9.5 -10zM142 224q-7 -14 0 -29l76 -163q-3 -6 -8.5 -11t-13.5 -4l-74.5 87l-77.5 87q-15 18 0 36l77.5 85.5l74.5 86.5q6 -2 12.5 -5t9.5 -10z
" />
    <glyph glyph-name="guilsinglleft" unicode="&#x2039;" horiz-adv-x="255" 
d="M143 224q-7 -14 0 -29l76 -163q-3 -6 -8.5 -11t-13.5 -4l-74.5 87l-77.5 87q-15 18 0 36l77.5 85.5l74.5 86.5q6 -2 12.5 -5t9.5 -10z" />
    <glyph glyph-name="guilsinglright" unicode="&#x203a;" horiz-adv-x="255" 
d="M36 384q3 7 9.5 10t12.5 5l74.5 -86.5l77.5 -85.5q15 -18 0 -36l-77.5 -87l-74.5 -87q-8 -1 -13.5 4t-8.5 11l76 163q7 15 0 29z" />
    <glyph glyph-name="endash" unicode="&#x2013;" horiz-adv-x="500" 
d="M500 242v-69h-500v69h500z" />
    <glyph glyph-name="dagger" unicode="&#x2020;" horiz-adv-x="490" 
d="M216 -127v127q0 45 -3.5 82.5t-9.5 69t-13.5 58.5l-14.5 52q23 29 31.5 65.5t8.5 92.5q-20 0 -35.5 -5t-29 -11t-26.5 -11t-27 -5q-24 0 -40.5 14.5t-16.5 40.5q0 25 16.5 39.5t40.5 14.5q14 0 27 -5t26.5 -11t29 -11t35.5 -5q-2 30 -8 50t-12.5 35l-12 28t-5.5 28
q0 30 18 50t50 20t50 -20t18 -50q0 -15 -5.5 -28l-12 -28t-13 -35t-7.5 -50q19 0 35 5t30 11t27 11t27 5q23 0 39.5 -14.5t16.5 -39.5q0 -26 -16.5 -40.5t-39.5 -14.5q-14 0 -27 5t-27 11t-30 11t-35 5q0 -56 8.5 -92.5t31.5 -65.5q-8 -25 -15 -52t-13 -58.5t-9.5 -69
t-3.5 -82.5v-127h-58z" />
    <glyph glyph-name="daggerdbl" unicode="&#x2021;" horiz-adv-x="492" 
d="M246 676q20 0 32.5 -6.5t20 -16.5t10 -21t2.5 -21q0 -15 -5 -28t-11.5 -28t-12.5 -34.5t-7 -47.5q21 0 38.5 5t32.5 10.5l27.5 10.5t24.5 5q23 0 38.5 -15t15.5 -38q0 -24 -15.5 -39t-38.5 -15q-12 0 -24.5 5l-27.5 10.5t-32.5 10.5t-38.5 5q0 -49 9.5 -83.5t32.5 -57.5
q-23 -21 -32.5 -56.5t-9.5 -92.5q21 0 38.5 5t32.5 10.5l27.5 10.5t24.5 5q23 0 38.5 -15t15.5 -41q0 -22 -15.5 -36.5t-38.5 -14.5q-12 0 -24.5 5l-27.5 10.5t-32.5 10.5t-38.5 5q0 -29 5.5 -49t12.5 -36.5t12.5 -32t5.5 -35.5q0 -25 -15.5 -44.5t-49.5 -19.5
q-33 0 -49 19.5t-16 44.5q0 20 5.5 35.5t12.5 32t12.5 36.5t5.5 49q-21 0 -38.5 -5t-32.5 -10.5l-27.5 -10.5t-23.5 -5q-23 0 -39 14.5t-16 36.5q0 26 16 41t39 15q11 0 23.5 -5l27.5 -10.5t32.5 -10.5t38.5 -5q0 57 -9.5 92.5t-32.5 56.5q23 23 32.5 57.5t9.5 83.5
q-21 0 -38.5 -5t-32.5 -10.5l-27.5 -10.5t-23.5 -5q-23 0 -39 15t-16 39q0 23 16 38t39 15q11 0 23.5 -5l27.5 -10.5t32.5 -10.5t38.5 -5q-2 28 -7.5 47.5t-12 34.5t-11.5 28t-5 28q0 10 2.5 21t10 21t20 16.5t32.5 6.5z" />
    <glyph glyph-name="periodcentered" unicode="&#xb7;" horiz-adv-x="260" 
d="M130 126q-15 0 -29.5 6t-26 16.5t-18.5 25.5t-7 33q0 35 23.5 59t57.5 24q18 0 33 -7t25.5 -18.5t16.5 -26.5t6 -31q0 -35 -22.5 -58t-58.5 -23z" />
    <glyph glyph-name="periodcentered" unicode="&#x2219;" horiz-adv-x="260" 
d="M130 126q-15 0 -29.5 6t-26 16.5t-18.5 25.5t-7 33q0 35 23.5 59t57.5 24q18 0 33 -7t25.5 -18.5t16.5 -26.5t6 -31q0 -35 -22.5 -58t-58.5 -23z" />
    <glyph glyph-name="paragraph" unicode="&#xb6;" horiz-adv-x="490" 
d="M372 112q0 -60 -10.5 -108.5t-49.5 -77.5q-16 -12 -38 -16.5t-39 -4.5q-18 0 -37 5t-34.5 15.5t-25 27t-9.5 40.5q0 25 11 41t22 20q23 1 41 -10t21 -24q-2 -5 -8 -15t-6 -22q0 -20 12.5 -29.5t27.5 -9.5q9 0 18 5t16 18t11.5 35t4.5 56v147q0 21 -4 28.5t-18 7.5
q-49 0 -92 14.5t-75.5 41.5t-51.5 64.5t-19 82.5q0 61 27 104.5t69 67.5q44 25 95.5 34.5t107.5 9.5q50 0 78.5 -2t40.5 -4q7 -4 7 -15t-6 -16l-34 -6q-19 -3 -29.5 -6t-16 -9t-6.5 -17.5t-1 -31.5v-441z" />
    <glyph glyph-name="bullet" unicode="&#x2022;" horiz-adv-x="395" 
d="M197 492q32 0 60.5 -12t49.5 -33t33.5 -49.5t12.5 -61.5t-12.5 -61.5t-33.5 -50t-49.5 -33.5t-60.5 -12t-60 12t-49 33t-33.5 50t-12.5 62t12 61.5t33 49.5t49 33t61 12z" />
    <glyph glyph-name="quotesinglbase" unicode="&#x201a;" horiz-adv-x="253" 
d="M114 170q15 0 32.5 -7t32.5 -22t24.5 -38.5t9.5 -56.5q0 -36 -13 -64t-35 -48.5t-50.5 -34.5t-59.5 -21q-13 2 -15.5 14t5.5 17q13 5 28 13.5t28 20.5t21 26.5t8 32.5q0 16 -5 26.5t-13.5 18t-18 11.5t-18.5 6q-13 4 -21.5 15.5t-8.5 28.5q0 26 20 44t49 18z" />
    <glyph glyph-name="quotedblbase" unicode="&#x201e;" horiz-adv-x="472" 
d="M333 170q15 0 32.5 -7t32.5 -22t24.5 -38.5t9.5 -56.5q0 -36 -13 -64t-35 -48.5t-50.5 -34.5t-59.5 -21q-13 2 -15.5 14t5.5 17q13 5 28 13.5t28 20.5t21 26.5t8 32.5q0 16 -5 26.5t-13.5 18t-18 11.5t-18.5 6q-13 4 -21.5 15.5t-8.5 28.5q0 26 20 44t49 18zM114 170
q15 0 32.5 -7t32.5 -22t24.5 -38.5t9.5 -56.5q0 -36 -13 -64t-35 -48.5t-50.5 -34.5t-59.5 -21q-13 2 -15.5 14t5.5 17q13 5 28 13.5t28 20.5t21 26.5t8 32.5q0 16 -5 26.5t-13.5 18t-18 11.5t-18.5 6q-13 4 -21.5 15.5t-8.5 28.5q0 26 20 44t49 18z" />
    <glyph glyph-name="quotedblright" unicode="&#x201d;" horiz-adv-x="472" 
d="M333 700q15 0 32.5 -7t32.5 -21.5t24.5 -37.5t9.5 -56q0 -35 -13 -63t-35 -49.5t-50.5 -36t-59.5 -21.5q-13 2 -15.5 14t5.5 17q13 5 28 13.5t28 20.5t21 26.5t8 32.5q0 16 -5 26.5t-13.5 18t-18 11.5t-18.5 6q-13 4 -21.5 15.5t-8.5 28.5q0 26 20 44t49 18zM114 700
q15 0 32.5 -7t32.5 -21.5t24.5 -37.5t9.5 -56q0 -35 -13 -63t-35 -49.5t-50.5 -36t-59.5 -21.5q-13 2 -15.5 14t5.5 17q13 5 28 13.5t28 20.5t21 26.5t8 32.5q0 16 -5 26.5t-13.5 18t-18 11.5t-18.5 6q-13 4 -21.5 15.5t-8.5 28.5q0 26 20 44t49 18z" />
    <glyph glyph-name="guillemotright" unicode="&#xbb;" horiz-adv-x="432" 
d="M214 384q3 7 9.5 10t12.5 5l74.5 -86.5l77.5 -85.5q15 -18 0 -36l-77.5 -87l-74.5 -87q-8 -1 -13.5 4t-8.5 11l76 163q7 15 0 29zM36 384q3 7 9.5 10t12.5 5l74.5 -86.5l77.5 -85.5q15 -18 0 -36l-77.5 -87l-74.5 -87q-8 -1 -13.5 4t-8.5 11l76 163q7 15 0 29z" />
    <glyph glyph-name="ellipsis" unicode="&#x2026;" horiz-adv-x="1000" 
d="M167 -14q-15 0 -29.5 6t-26 16.5t-18.5 25.5t-7 33q0 35 23.5 59t57.5 24q18 0 33 -7t25.5 -18.5t16.5 -26.5t6 -31q0 -35 -22.5 -58t-58.5 -23zM833 -14q-15 0 -29.5 6t-26 16.5t-18.5 25.5t-7 33q0 35 23.5 59t57.5 24q18 0 33 -7t25.5 -18.5t16.5 -26.5t6 -31
q0 -35 -22.5 -58t-58.5 -23zM500 -14q-15 0 -29.5 6t-26 16.5t-18.5 25.5t-7 33q0 35 23.5 59t57.5 24q18 0 33 -7t25.5 -18.5t16.5 -26.5t6 -31q0 -35 -22.5 -58t-58.5 -23z" />
    <glyph glyph-name="perthousand" unicode="&#x2030;" horiz-adv-x="1188" 
d="M240 -40q-14 -3 -27 4t-18 20l186.5 335l183.5 335q11 2 26 -4.5t19 -19.5l-186.5 -335zM1051 173q0 19 -2 43.5t-8.5 47t-18 38t-30.5 15.5q-20 0 -32 -15t-19 -37t-9.5 -47t-2.5 -45q0 -19 2.5 -44t9.5 -47.5t19 -38t32 -15.5q19 0 30.5 16t18 38.5t8.5 47.5t2 43z
M990 -12q-44 0 -73.5 18t-48.5 45.5t-27 60t-8 60.5q0 29 8 61.5t27 60t48.5 45.5t73.5 18q43 0 73 -18t49 -45.5t27 -60t8 -61.5q0 -28 -8 -60.5t-27 -60t-49 -45.5t-73 -18zM254 456q0 18 -2 43t-8.5 47.5t-18.5 38t-31 15.5q-20 0 -32 -15t-18.5 -37.5t-9 -47.5t-2.5 -44
t2.5 -44t9 -47.5t18.5 -38t32 -15.5q19 0 31 16t18.5 38.5t8.5 47.5t2 43zM193 271q-44 0 -74 18t-48.5 45.5t-26.5 60t-8 60.5t8 60.5t26.5 60.5t48.5 46t74 18q43 0 73 -18t49 -46t27 -60.5t8 -60.5t-8 -60.5t-27 -60t-49 -45.5t-73 -18zM681 173q0 19 -2 43.5t-8.5 47
t-18 38t-30.5 15.5q-20 0 -32 -15t-19 -37t-9.5 -47t-2.5 -45q0 -19 2.5 -44t9.5 -47.5t19 -38t32 -15.5q19 0 30.5 16t18 38.5t8.5 47.5t2 43zM620 -12q-44 0 -73.5 18t-48.5 45.5t-27 60t-8 60.5q0 29 8 61.5t27 60t48.5 45.5t73.5 18q43 0 73 -18t49 -45.5t27 -60
t8 -61.5q0 -28 -8 -60.5t-27 -60t-49 -45.5t-73 -18z" />
    <glyph glyph-name="questiondown" unicode="&#xbf;" horiz-adv-x="332" 
d="M201 394q18 0 33 -7t25.5 -18.5t16.5 -26.5t6 -31q0 -35 -22.5 -58t-58.5 -23q-15 0 -29.5 6t-26 16.5t-18.5 25.5t-7 33q0 35 23.5 59t57.5 24zM222 -266q-35 0 -67.5 16.5t-58 44.5t-41 65t-15.5 78q0 44 17.5 69t45.5 38l66 30q20 11 30.5 21t10.5 22q0 25 -10 54
q4 7 15.5 9t17.5 -4q6 -9 14 -22.5t14.5 -29.5t11 -33.5t4.5 -32.5q0 -21 -6 -35.5t-17.5 -25.5t-28 -20t-38.5 -18l-47 -20q-23 -10 -35.5 -17.5t-12.5 -18.5q0 -23 32.5 -33.5t112.5 -10.5q7 0 16.5 -3.5t18 -11.5t14.5 -20t6 -29q0 -25 -19 -43.5t-51 -18.5z" />
    <glyph glyph-name="grave" unicode="`" horiz-adv-x="380" 
d="M276 463q-3 -19 -25 -16l-141 139q-10 10 -16 19.5t-6 17.5q0 15 27 36q13 9 22 12.5t17 3.5t15.5 -6.5t15.5 -23.5z" />
    <glyph glyph-name="acute" unicode="&#xb4;" horiz-adv-x="380" 
d="M187 645q8 17 15.5 23.5t15.5 6.5t17 -3.5t22 -12.5q27 -21 27 -36q0 -8 -6 -17.5t-16 -19.5l-141 -139q-22 -3 -25 16z" />
    <glyph glyph-name="circumflex" unicode="&#x2c6;" horiz-adv-x="380" 
d="M326 466q-7 -17 -26 -19l-89 104q-17 20 -21 20t-21 -20l-89 -104q-19 2 -26 19l112 201q5 9 9.5 11.5t14.5 2.5t14.5 -2.5t9.5 -11.5z" />
    <glyph glyph-name="tilde" unicode="&#x2dc;" horiz-adv-x="380" 
d="M148 515q-38 0 -59 -14t-35 -45q-5 -3 -15.5 -1.5t-13.5 7.5q2 11 6.5 24.5t10.5 27t13 25.5t13 20q14 16 28.5 19.5t35.5 3.5h109q32 0 52.5 10.5t32.5 41.5q7 2 16.5 1t12.5 -6q-5 -24 -14 -46.5t-21 -39.5q-11 -16 -24.5 -22t-38.5 -6h-109z" />
    <glyph glyph-name="macron" unicode="&#xaf;" horiz-adv-x="380" 
d="M48 515q-9 12 -9 33.5t9 33.5h283q10 -12 10 -33.5t-10 -33.5h-283z" />
    <glyph glyph-name="macron" unicode="&#x2c9;" horiz-adv-x="380" 
d="M48 515q-9 12 -9 33.5t9 33.5h283q10 -12 10 -33.5t-10 -33.5h-283z" />
    <glyph glyph-name="breve" unicode="&#x2d8;" horiz-adv-x="380" 
d="M190 505q-72 0 -108.5 39.5t-32.5 110.5q6 4 15.5 4t14.5 -4q9 -41 41 -62.5t70 -21.5t70 21.5t41 62.5q5 4 14.5 4t15.5 -4q4 -71 -32.5 -110.5t-108.5 -39.5z" />
    <glyph glyph-name="dotaccent" unicode="&#x2d9;" horiz-adv-x="380" 
d="M191 487q-26 0 -44.5 15t-18.5 44q-1 28 17.5 46t45.5 18q26 0 43.5 -18t17.5 -41q0 -29 -17.5 -46.5t-43.5 -17.5z" />
    <glyph glyph-name="dieresis" unicode="&#xa8;" horiz-adv-x="380" 
d="M296 487q-26 0 -44.5 15t-18.5 44q-1 28 17.5 46t45.5 18q26 0 43.5 -18t17.5 -41q0 -29 -17.5 -46.5t-43.5 -17.5zM86 487q-26 0 -44.5 15t-18.5 44q-1 28 17.5 46t45.5 18q26 0 43.5 -18t17.5 -41q0 -29 -17.5 -46.5t-43.5 -17.5z" />
    <glyph glyph-name="ring" unicode="&#x2da;" horiz-adv-x="380" 
d="M190 511q26 0 39.5 20t13.5 48t-13.5 48t-39.5 22q-26 -2 -39.5 -22t-13.5 -48t13.5 -48t39.5 -20zM190 469q-28 0 -50.5 9.5t-38 24.5t-23.5 35t-8 41t8 40.5t23.5 35t38 24.5t50.5 9t50.5 -9t38 -24.5t23.5 -35t8 -40.5t-8 -41t-23.5 -35t-38 -24.5t-50.5 -9.5z" />
    <glyph glyph-name="cedilla" unicode="&#xb8;" horiz-adv-x="380" 
d="M270 0l-38 -52q-6 -8 -4 -11.5t13 -9.5q28 -15 44.5 -35.5t16.5 -49.5q0 -21 -10.5 -38t-28.5 -29t-41 -19t-47 -7q-36 0 -56.5 11.5t-20.5 32.5q0 14 9 23.5t23 9.5q10 0 19 -6t17 -12.5l16 -12.5t16 -6t17 6.5t9 18.5q0 24 -24.5 42.5t-51.5 29.5l-3 8l72 106h53z" />
    <glyph glyph-name="hungarumlaut" unicode="&#x2dd;" horiz-adv-x="380" 
d="M282 645q8 17 15.5 23.5t15.5 6.5t17 -3.5t22 -12.5q27 -21 27 -36q0 -8 -6 -17.5t-16 -19.5l-141 -139q-22 -3 -25 16zM92 645q8 17 15.5 23.5t15.5 6.5t17 -3.5t22 -12.5q27 -21 27 -36q0 -8 -6 -17.5t-16 -19.5l-141 -139q-22 -3 -25 16z" />
    <glyph glyph-name="ogonek" unicode="&#x2db;" horiz-adv-x="380" 
d="M263 20q-40 -40 -65 -79t-25 -73q0 -26 16 -42.5t44 -16.5q15 0 27 3.5t23 11.5q5 -2 7.5 -7.5t2.5 -11.5q-20 -29 -48.5 -42t-57.5 -13t-48 8t-30.5 21t-16.5 29t-5 32q0 41 32 86.5t95 93.5h49z" />
    <glyph glyph-name="caron" unicode="&#x2c7;" horiz-adv-x="380" 
d="M214 465q-5 -9 -9.5 -11.5t-14.5 -2.5t-14.5 2.5t-9.5 11.5l-112 201q7 17 26 19l89 -104q17 -20 21 -20t21 20l89 104q19 -2 26 -19z" />
    <glyph glyph-name="emdash" unicode="&#x2014;" horiz-adv-x="1000" 
d="M1000 242v-69h-1000v69h1000z" />
    <glyph glyph-name="AE" unicode="&#xc6;" horiz-adv-x="841" 
d="M341 370q18 0 22 6t4 32v160q0 38 -3 46h-5q-6 -8 -14.5 -23t-25.5 -49l-78 -156q-5 -11 -1.5 -13.5t15.5 -2.5h86zM367 284q0 22 -4 27.5t-22 5.5h-101q-19 0 -26 -3.5t-12 -15.5l-60 -129t-38 -87q-4 -11 -6 -17.5t-2 -11.5t5.5 -8.5t19.5 -6.5l38 -6q8 -5 7.5 -18.5
t-8.5 -16.5q-26 2 -58 2.5t-66 0.5q-31 0 -53.5 -0.5t-49.5 -2.5q-7 5 -7.5 17.5t6.5 17.5l27 4q22 4 39 16t35 47q56 105 107 210.5l109 220.5l20.5 44.5t9.5 29.5q0 6 -6 10t-15 6l-46 8q-7 5 -7.5 18t10.5 17q20 -1 41.5 -1.5t43.5 -0.5q22 -1 44 -1h44h48h210
q48 0 86 0.5t48 2.5q0 -6 1.5 -21.5l3.5 -37t4 -46.5l4 -50q-3 -8 -16 -9.5t-21 5.5q-8 26 -18 47t-20 32q-14 14 -37.5 22.5t-60.5 8.5h-80q-12 0 -19 -1t-10 -4.5t-3.5 -11.5t-0.5 -22v-175q0 -21 4 -25.5t24 -4.5h69q19 0 31.5 2t20.5 7.5t13 16.5t9 29l5 25q3 3 8 4.5
t11 1.5t11 -2t7 -5q-3 -48 -3 -106t3 -106q-2 -3 -7 -5t-11 -2t-11 1.5t-8 4.5l-5 25q-4 18 -9 29t-13 17t-20.5 8t-31.5 2h-69q-20 0 -24 -4.5t-4 -26.5v-119q0 -35 3.5 -58.5t12.5 -36.5q5 -7 11.5 -12t18.5 -8t30 -4.5t45 -1.5q33 0 56.5 2t43.5 13.5t37.5 35t38.5 65.5
q6 8 20 6t17 -11q-2 -20 -6.5 -43.5t-10.5 -46t-13 -41.5t-12 -29q-20 1 -47 1.5t-58 0.5q-30 1 -62.5 1h-63.5h-130q-32 0 -71 -0.5t-96 -2.5q-6 5 -6 18t6 17l47 7q17 2 27 6t15.5 14.5t7 30t1.5 54.5v140z" />
    <glyph glyph-name="ordfeminine" unicode="&#xaa;" horiz-adv-x="374" 
d="M132 326q0 -14 11.5 -26.5t28.5 -12.5t24.5 8.5t8.5 19.5l3 49q0 19 -8 19q-6 0 -13 -1t-15 -4q-16 -7 -28 -18t-12 -34zM196 540q59 0 87 -21.5t25 -75.5l-5 -107q-1 -26 7 -38t22 -12q8 0 14 2t13 5q6 -1 9.5 -6.5t-0.5 -14.5q-12 -14 -36.5 -23t-44.5 -9q-17 0 -34 4
t-28 15q-10 10 -16 10q-3 0 -21 -12q-10 -5 -27 -11t-34 -6q-27 0 -45 7.5t-29 18.5t-16 24.5t-5 25.5q0 23 12 41t43 29l60 18l41 12q14 4 17.5 9t4.5 10v10q0 22 -9 41t-35 19q-29 0 -34 -32q-3 -21 -16 -31q-9 -5 -25 -10t-34 -5q-12 0 -18.5 5t-6.5 12q0 9 5.5 21.5
t25.5 29.5q19 16 55.5 30.5t77.5 14.5z" />
    <glyph glyph-name="Oslash" unicode="&#xd8;" horiz-adv-x="788" 
d="M621 609q60 -45 93.5 -115.5t33.5 -161.5q0 -81 -26 -145.5t-73.5 -109.5t-114 -69t-147.5 -24q-50 0 -95 10.5t-83 31.5l-49 -69q-12 -1 -26 8.5t-17 23.5l46 65q-57 45 -90 113.5t-33 157.5q0 74 26.5 138t73.5 111.5t113 74.5t144 27q51 0 95.5 -10t82.5 -29l43 60
q14 1 27.5 -8t17.5 -21zM265 105q23 -34 58 -54.5t83 -20.5q49 0 83.5 22.5t56.5 61.5t32 92t10 114q0 54 -9.5 102.5t-28.5 86.5zM521 560q-25 33 -58 51.5t-74 18.5q-46 0 -81.5 -20.5t-59.5 -58t-36 -89t-12 -114.5q0 -43 8 -94t28 -97z" />
    <glyph glyph-name="OE" unicode="&#x152;" horiz-adv-x="1018" 
d="M539 525q0 42 -7 60t-24 25q-26 10 -65 10q-60 0 -105.5 -23t-75.5 -63t-45.5 -92.5t-15.5 -112.5q0 -53 15 -104.5t45.5 -92.5t78 -66.5t112.5 -25.5q44 0 65.5 15t21.5 66v404zM821 660q48 0 86 0.5t48 2.5q0 -6 1.5 -21.5l3.5 -37t4 -46.5l4 -50q-3 -8 -16 -9.5
t-21 5.5q-8 26 -18 47t-20 32q-14 14 -37.5 22.5t-60.5 8.5h-80q-12 0 -19 -1t-10 -4.5t-3.5 -11.5t-0.5 -22v-175q0 -21 4 -25.5t24 -4.5h69q19 0 31.5 2t20.5 7.5t13 16.5t9 29l5 25q3 3 8 4.5t11 1.5t11 -2t7 -5q-3 -48 -3 -106t3 -106q-2 -3 -7 -5t-11 -2t-11 1.5
t-8 4.5l-5 25q-4 18 -9 29t-13 17t-20.5 8t-31.5 2h-69q-20 0 -24 -4.5t-4 -26.5v-119q0 -35 3.5 -58.5t12.5 -36.5q5 -7 11.5 -12t18.5 -8t30 -4.5t45 -1.5q33 0 56.5 2t43.5 13.5t37.5 35t38.5 65.5q6 8 20 6t17 -11q-2 -20 -6.5 -43.5t-10.5 -46t-13 -41.5t-12 -29
q-20 1 -47 1.5t-58 0.5q-30 1 -62.5 1h-63.5h-100q-59 0 -110 -3l-51 -2t-51 -1q-96 0 -169.5 24.5t-122.5 67.5t-74 102t-25 128q0 74 26.5 138t79 111t130.5 74t180 27q55 0 101.5 -3t92.5 -3h171z" />
    <glyph glyph-name="ordmasculine" unicode="&#xba;" horiz-adv-x="404" 
d="M257 370q0 57 -13.5 95.5t-42.5 38.5q-22 0 -37.5 -24t-15.5 -75q0 -60 15.5 -94.5t43.5 -34.5q26 0 38 28t12 66zM205 540q74 0 120 -40t46 -108q0 -38 -13.5 -66.5t-36.5 -47.5t-54 -28.5t-67 -9.5q-35 0 -65 9.5t-52.5 27.5t-35.5 44.5t-13 61.5q0 38 14 67.5
t37.5 49.5t54.5 30t65 10z" />
    <glyph glyph-name="ae" unicode="&#xe6;" horiz-adv-x="627" 
d="M496 313q0 24 -14 39.5t-37 15.5q-16 0 -29.5 -7.5t-23 -19t-14.5 -26t-5 -28.5q0 -15 3.5 -19t16.5 -1l82 22q13 4 17 8.5t4 15.5zM442 -14q-51 0 -87 16.5t-55 42.5q-6 8 -11 8q-3 0 -6 -2t-8 -5q-35 -24 -65 -42t-70 -18q-19 0 -38 7.5t-34.5 21t-25.5 33.5t-10 45
q0 37 24 62.5t76 40.5l104 30q8 2 10.5 7t2.5 19v11q0 16 -1 33.5t-6 32.5t-15.5 24.5t-30.5 9.5q-18 0 -32 -12.5t-19 -44.5q-2 -12 -6 -19.5t-11 -12.5q-6 -4 -15.5 -8t-20 -7.5t-20 -5.5t-15.5 -2q-11 0 -17 7t-6 17q0 20 14.5 41t34.5 38q13 10 30.5 21t38 19.5t42.5 14
t43 5.5q32 0 57 -9.5t43 -34.5q29 24 64 34t71 10q34 0 61 -9.5t46 -25t29 -34.5t10 -37q0 -16 -8 -23.5t-26 -12.5l-197 -53q-11 -2 -14 -6t-3 -19q0 -58 34 -94.5t100 -36.5q21 0 46.5 10.5t46.5 45.5q9 0 16 -4.5t9 -15.5q-28 -64 -77 -88.5t-103 -24.5zM249 168
q0 14 -10 14q-19 -2 -43 -13q-17 -8 -28 -22t-11 -36q0 -29 16.5 -43.5t34.5 -14.5q41 0 41 49v66z" />
    <glyph glyph-name="dotlessi" unicode="&#x131;" horiz-adv-x="286" 
d="M214 116q0 -26 1 -41.5t5 -24t11.5 -12t19.5 -4.5l19 -2q6 -5 6 -17.5t-7 -17.5q-53 3 -120 3q-34 0 -64.5 -0.5t-55.5 -2.5q-7 5 -7 17.5t6 17.5l19 2q12 1 19.5 4.5t11.5 12t5 24t1 41.5v151q0 30 -2.5 42t-16.5 22l-14 9q-5 5 -5 15t5 15q18 5 39 12t41.5 15t38.5 16
t29 15q12 0 18 -9q-2 -23 -2.5 -54t-0.5 -65v-184z" />
    <glyph glyph-name="oslash" unicode="&#xf8;" horiz-adv-x="516" 
d="M106 -47q-28 4 -34 26l38 51q-36 26 -57.5 66t-21.5 96q-1 54 18.5 95t51.5 69.5t74 43t86 14.5q27 0 55.5 -5.5t51.5 -17.5l35 48q12 -1 22 -8t13 -18l-33 -44q37 -26 58.5 -68t21.5 -100q0 -55 -18.5 -95.5t-50 -67t-73.5 -39.5t-88 -13q-28 0 -55.5 5t-52.5 18z
M200 80q10 -23 27 -35.5t39 -12.5t37 11.5t24 32t13 49t4 62.5q-1 22 -3 43t-7 41zM317 321q-10 22 -25.5 34.5t-36.5 12.5q-35 0 -59 -36t-24 -118q0 -23 2.5 -44t8.5 -41z" />
    <glyph glyph-name="oe" unicode="&#x153;" horiz-adv-x="740" 
d="M570 281q11 0 22 2t19 7q4 2 5.5 8.5t1.5 14.5q0 25 -15.5 40t-39.5 15q-17 0 -32 -7t-26.5 -17.5t-18.5 -23.5t-7 -24t11 -13t36 -2h44zM498 237q-19 0 -23 -3t-4 -17q0 -29 9.5 -55.5t28 -46.5t45.5 -32t62 -12q10 0 22.5 1.5t25 7t24.5 16t23 27.5q8 0 16 -5t8 -18
q-14 -32 -34 -53.5t-43 -35t-47.5 -19.5t-48.5 -6q-51 0 -90 19t-62 46q-24 -29 -67 -47t-92 -18q-43 0 -83 13t-70.5 39t-48.5 64.5t-18 90.5q-1 54 18.5 95t51.5 69t73.5 42.5t85.5 14.5q51 0 92.5 -20t63.5 -53q26 32 67 52.5t85 20.5q41 0 72 -12t51.5 -31.5t30.5 -46
t10 -54.5q0 -14 -6.5 -23.5t-29.5 -9.5h-198zM348 187q-1 36 -6.5 69t-16 58t-26.5 39.5t-38 14.5q-34 0 -57.5 -36t-23.5 -118q0 -40 6 -73.5t18 -57.5t29 -37.5t39 -13.5q43 0 59.5 43t16.5 112z" />
    <glyph glyph-name="germandbls" unicode="&#xdf;" horiz-adv-x="573" 
d="M214 116q0 -26 1 -41.5t5 -24t11.5 -11.5t19.5 -4l25 -3q6 -5 6 -17.5t-7 -17.5q-59 3 -128 3q-33 0 -63.5 -0.5t-53.5 -2.5q-8 5 -8 17.5t6 17.5l16 2q13 1 21 4.5t12.5 12t5.5 24t1 41.5v202q1 20 -3.5 24t-21.5 4h-37q-5 3 -6 13t3 14l43 22q10 5 16 10.5t6 15.5
q0 42 6.5 81.5t19.5 68.5t33 55.5t48 46t64.5 31t82.5 11.5q51 0 86 -13.5t57 -35.5t32 -48.5t10 -52.5q0 -20 -6 -36.5t-14.5 -30t-17.5 -23t-15 -14.5l-25 -16q-26 -16 -39 -33t-13 -41q0 -14 8.5 -29t21 -30t28 -29t30.5 -26q30 -24 52.5 -59.5t22.5 -75.5
q0 -70 -44 -103t-113 -33q-17 0 -35 3t-33 10.5t-24.5 20t-9.5 32.5q0 17 6.5 34t22.5 17q7 0 15.5 -11l19 -24.5t23 -24.5t29.5 -11q14 0 23.5 9t9.5 26q0 20 -16.5 43.5t-44.5 46.5l-36 31t-32.5 34t-23 39t-8.5 45q0 22 6 40t16 32.5t22.5 27.5t25.5 25q10 9 19.5 19.5
t17.5 24.5t13 31.5t5 40.5q0 28 -7.5 50.5t-20 38.5t-27.5 24.5t-30 8.5q-25 0 -45.5 -17.5t-35 -50.5t-22.5 -80t-8 -105v-300z" />
    <glyph glyph-name="degree" unicode="&#xb0;" horiz-adv-x="374" 
d="M265 498q0 43 -22 70.5t-56 27.5t-56 -27.5t-22 -70.5q0 -44 22 -71t56 -27q38 0 58 27t20 71zM187 640q30 0 56.5 -10t47 -28.5t32 -45t11.5 -58.5q0 -34 -11.5 -60.5t-32 -44.5t-47 -27.5t-56.5 -9.5t-56.5 9.5t-47 27.5t-32 44.5t-11.5 60.5q0 32 11.5 58.5t32 45
t47 28.5t56.5 10z" />
    <glyph glyph-name="oacute" unicode="&#xf3;" horiz-adv-x="516" 
d="M315 645q8 17 15.5 23.5t15.5 6.5t17 -3.5t22 -12.5q27 -21 27 -36q0 -8 -6 -17.5t-16 -19.5l-141 -139q-22 -3 -25 16zM255 368q-33 0 -56.5 -36t-23.5 -118q0 -39 6 -72.5t17.5 -58t28.5 -38t39 -13.5q21 0 35.5 11.5t23.5 32t12.5 49t3.5 62.5q-1 36 -6.5 69t-16 58
t-26.5 39.5t-37 14.5zM255 -14q-45 0 -85.5 13t-71 38.5t-49 64t-18.5 90.5q-1 54 18.5 95t51.5 69.5t74 43t86 14.5t84.5 -13.5t71.5 -40t49.5 -66.5t18.5 -93q0 -55 -18.5 -95.5t-50 -67t-73.5 -39.5t-88 -13z" />
    <glyph glyph-name="Odieresis" unicode="&#xd6;" horiz-adv-x="788" 
d="M505 707q-26 0 -44 15t-18 44q-1 28 17 46t45 18t44 -18t17 -41q0 -29 -17 -46.5t-44 -17.5zM285 707q-26 0 -44 15t-18 44q-1 28 17 46t45 18t44 -18t17 -41q0 -29 -17 -46.5t-44 -17.5zM588 320q0 64 -13.5 120.5t-39.5 98.5t-63 66.5t-83 24.5t-81.5 -20.5t-59.5 -58
t-36 -89t-12 -114.5q0 -31 4 -66t13 -70.5t24.5 -68t38.5 -58t54 -40.5t72 -15q49 0 83.5 22.5t56.5 61.5t32 92t10 114zM397 676q78 0 142.5 -25t111 -70.5t72 -108.5t25.5 -139q0 -82 -26 -146.5t-73.5 -109.5t-114 -69t-147.5 -24q-75 0 -139 24t-110 68t-72 107.5
t-26 141.5q0 74 26.5 138t73.5 111.5t113 74.5t144 27z" />
    <glyph glyph-name="odieresis" unicode="&#xf6;" horiz-adv-x="516" 
d="M364 487q-26 0 -44.5 15t-18.5 44q-1 28 17.5 46t45.5 18q26 0 43.5 -18t17.5 -41q0 -29 -17.5 -46.5t-43.5 -17.5zM154 487q-26 0 -44.5 15t-18.5 44q-1 28 17.5 46t45.5 18q26 0 43.5 -18t17.5 -41q0 -29 -17.5 -46.5t-43.5 -17.5zM255 368q-33 0 -56.5 -36t-23.5 -118
q0 -39 6 -72.5t17.5 -58t28.5 -38t39 -13.5q21 0 35.5 11.5t23.5 32t12.5 49t3.5 62.5q-1 36 -6.5 69t-16 58t-26.5 39.5t-37 14.5zM255 -14q-45 0 -85.5 13t-71 38.5t-49 64t-18.5 90.5q-1 54 18.5 95t51.5 69.5t74 43t86 14.5t84.5 -13.5t71.5 -40t49.5 -66.5t18.5 -93
q0 -55 -18.5 -95.5t-50 -67t-73.5 -39.5t-88 -13z" />
    <glyph glyph-name="Ecircumflex" unicode="&#xca;" horiz-adv-x="593" 
d="M317 755q-11 5 -19.5 5t-19.5 -5l-139 -65q-8 0 -13.5 9t-2.5 17l148 131q26 24 52 0l148 -131q3 -8 -2.5 -16.5t-11.5 -9.5zM257 400q0 -21 4 -25.5t24 -4.5h69q19 0 31.5 2t20.5 7.5t13 16.5t9 29l5 25q3 3 8 4.5t11 1.5t11 -2t7 -5q-3 -48 -3 -106t3 -106q-2 -3 -7 -5
t-11 -2t-11 1.5t-8 4.5l-5 25q-4 18 -9 29t-13 17t-20.5 8t-31.5 2h-69q-20 0 -24 -4.5t-4 -26.5v-119q0 -35 3.5 -58.5t12.5 -36.5q5 -7 11.5 -12t18.5 -8t30 -4.5t45 -1.5q33 0 56.5 2t43.5 13.5t37.5 35t38.5 65.5q6 8 20 6t17 -11q-2 -20 -6.5 -43.5t-10.5 -46
t-13 -41.5t-12 -29q-20 1 -47 1.5t-58 0.5q-30 1 -62.5 1h-63.5h-130q-36 0 -75.5 -0.5t-96.5 -2.5q-6 5 -6 18t6 17l47 7q17 2 27 6t15.5 14.5t7 30t1.5 54.5v373q0 34 -1.5 54t-7 30.5t-15.5 14.5t-27 7l-25 5q-7 5 -6.5 17.5t8.5 17.5q18 -1 36 -1.5t36 -0.5q18 -1 36 -1
h36h212q48 0 86 0.5t48 2.5q0 -6 1.5 -21.5l3.5 -37t4 -46.5l4 -50q-3 -8 -16 -9.5t-21 5.5q-8 26 -18 47t-20 32q-14 14 -37.5 22.5t-60.5 8.5h-80q-12 0 -19 -1t-10 -4.5t-3.5 -11.5t-0.5 -22v-175z" />
    <glyph glyph-name="ucircumflex" unicode="&#xfb;" horiz-adv-x="544" 
d="M408 466q-7 -17 -26 -19l-89 104q-17 20 -21 20t-21 -20l-89 -104q-19 2 -26 19l112 201q5 9 9.5 11.5t14.5 2.5t14.5 -2.5t9.5 -11.5zM471 132q0 -45 4.5 -65t22.5 -20q10 0 20.5 2.5t19.5 5.5q3 -1 5 -7t2 -13.5t-2.5 -14t-7.5 -8.5q-37 -2 -70 -7.5t-58 -12
t-40.5 -11.5t-16.5 -5q-10 1 -12 12q2 9 2.5 19.5t0.5 16.5q0 10 -11 10q-29 -19 -59.5 -33.5t-76.5 -14.5q-63 0 -90 32t-27 96v170q0 20 -1.5 31.5t-4.5 18t-9 9.5t-15 6l-13 4q-5 7 -4.5 18.5t8.5 16.5q25 1 50 3t47 6q23 4 41.5 10.5t21.5 6.5q5 0 8 -4t4 -8
q-2 -19 -2.5 -40t-0.5 -48v-165q0 -18 2 -34.5t9.5 -28.5t21.5 -19.5t38 -7.5q21 0 33.5 7t18.5 12q5 4 8 13t3 17v189q0 30 -8 40t-35 14l-14 2q-6 5 -5 18.5t10 16.5q27 2 53.5 4.5t50.5 5.5q26 4 46 10t25 6q8 0 10 -12q-1 -14 -2 -37t-1 -51v-182z" />
    <glyph glyph-name="logicalnot" unicode="&#xac;" 
d="M373 250h-313v72h401v-255h-88v183z" />
    <glyph glyph-name="Edieresis" unicode="&#xcb;" horiz-adv-x="593" 
d="M408 707q-26 0 -44 15t-18 44q-1 28 17 46t45 18t44 -18t17 -41q0 -29 -17 -46.5t-44 -17.5zM188 707q-26 0 -44 15t-18 44q-1 28 17 46t45 18t44 -18t17 -41q0 -29 -17 -46.5t-44 -17.5zM257 400q0 -21 4 -25.5t24 -4.5h69q19 0 31.5 2t20.5 7.5t13 16.5t9 29l5 25
q3 3 8 4.5t11 1.5t11 -2t7 -5q-3 -48 -3 -106t3 -106q-2 -3 -7 -5t-11 -2t-11 1.5t-8 4.5l-5 25q-4 18 -9 29t-13 17t-20.5 8t-31.5 2h-69q-20 0 -24 -4.5t-4 -26.5v-119q0 -35 3.5 -58.5t12.5 -36.5q5 -7 11.5 -12t18.5 -8t30 -4.5t45 -1.5q33 0 56.5 2t43.5 13.5t37.5 35
t38.5 65.5q6 8 20 6t17 -11q-2 -20 -6.5 -43.5t-10.5 -46t-13 -41.5t-12 -29q-20 1 -47 1.5t-58 0.5q-30 1 -62.5 1h-63.5h-130q-36 0 -75.5 -0.5t-96.5 -2.5q-6 5 -6 18t6 17l47 7q17 2 27 6t15.5 14.5t7 30t1.5 54.5v373q0 34 -1.5 54t-7 30.5t-15.5 14.5t-27 7l-25 5
q-7 5 -6.5 17.5t8.5 17.5q18 -1 36 -1.5t36 -0.5q18 -1 36 -1h36h212q48 0 86 0.5t48 2.5q0 -6 1.5 -21.5l3.5 -37t4 -46.5l4 -50q-3 -8 -16 -9.5t-21 5.5q-8 26 -18 47t-20 32q-14 14 -37.5 22.5t-60.5 8.5h-80q-12 0 -19 -1t-10 -4.5t-3.5 -11.5t-0.5 -22v-175z" />
    <glyph glyph-name="Otilde" unicode="&#xd5;" horiz-adv-x="788" 
d="M350 738q-42 0 -60 -15t-33 -44q-7 -3 -16.5 -1.5t-13.5 7.5q8 26 19.5 52.5t26.5 43.5q14 16 31 20t42 4h122q34 0 53 11t35 42q5 2 15.5 1t14.5 -7q-5 -18 -14.5 -39t-21.5 -39q-13 -21 -29 -28.5t-43 -7.5h-128zM588 320q0 64 -13.5 120.5t-39.5 98.5t-63 66.5
t-83 24.5t-81.5 -20.5t-59.5 -58t-36 -89t-12 -114.5q0 -31 4 -66t13 -70.5t24.5 -68t38.5 -58t54 -40.5t72 -15q49 0 83.5 22.5t56.5 61.5t32 92t10 114zM397 676q78 0 142.5 -25t111 -70.5t72 -108.5t25.5 -139q0 -82 -26 -146.5t-73.5 -109.5t-114 -69t-147.5 -24
q-75 0 -139 24t-110 68t-72 107.5t-26 141.5q0 74 26.5 138t73.5 111.5t113 74.5t144 27z" />
    <glyph glyph-name="uacute" unicode="&#xfa;" horiz-adv-x="544" 
d="M334 645q8 17 15.5 23.5t15.5 6.5t17 -3.5t22 -12.5q27 -21 27 -36q0 -8 -6 -17.5t-16 -19.5l-141 -139q-22 -3 -25 16zM471 132q0 -45 4.5 -65t22.5 -20q10 0 20.5 2.5t19.5 5.5q3 -1 5 -7t2 -13.5t-2.5 -14t-7.5 -8.5q-37 -2 -70 -7.5t-58 -12t-40.5 -11.5t-16.5 -5
q-10 1 -12 12q2 9 2.5 19.5t0.5 16.5q0 10 -11 10q-29 -19 -59.5 -33.5t-76.5 -14.5q-63 0 -90 32t-27 96v170q0 20 -1.5 31.5t-4.5 18t-9 9.5t-15 6l-13 4q-5 7 -4.5 18.5t8.5 16.5q25 1 50 3t47 6q23 4 41.5 10.5t21.5 6.5q5 0 8 -4t4 -8q-2 -19 -2.5 -40t-0.5 -48v-165
q0 -18 2 -34.5t9.5 -28.5t21.5 -19.5t38 -7.5q21 0 33.5 7t18.5 12q5 4 8 13t3 17v189q0 30 -8 40t-35 14l-14 2q-6 5 -5 18.5t10 16.5q27 2 53.5 4.5t50.5 5.5q26 4 46 10t25 6q8 0 10 -12q-1 -14 -2 -37t-1 -51v-182z" />
    <glyph glyph-name="eacute" unicode="&#xe9;" horiz-adv-x="420" 
d="M302 645q8 17 15.5 23.5t15.5 6.5t17 -3.5t22 -12.5q27 -21 27 -36q0 -8 -6 -17.5t-16 -19.5l-141 -139q-22 -3 -25 16zM246 281q11 0 22 2t19 7q4 2 5.5 8.5t1.5 14.5q0 25 -13.5 40t-39.5 15q-16 0 -30 -7t-24.5 -17.5t-17 -23t-6.5 -24.5q0 -11 11 -13t35 -2h37z
M180 237q-17 0 -21 -3t-4 -15q0 -28 9 -54.5t26.5 -47.5t44 -33.5t61.5 -12.5q10 0 22.5 1.5t24.5 7t24 16t22 27.5q8 2 17 -4t9 -19q-15 -32 -36 -53.5t-44.5 -35t-48 -19.5t-46.5 -6q-51 0 -89.5 16.5t-65 44.5t-40 65t-13.5 78q0 47 16 88t45 71t68.5 47.5t86.5 17.5
q39 0 69 -11.5t50 -31.5t30.5 -46t10.5 -55q0 -14 -6.5 -23.5t-29.5 -9.5h-192z" />
    <glyph glyph-name="iacute" unicode="&#xed;" horiz-adv-x="286" 
d="M205 645q8 17 15.5 23.5t15.5 6.5t17 -3.5t22 -12.5q27 -21 27 -36q0 -8 -6 -17.5t-16 -19.5l-141 -139q-22 -3 -25 16zM214 116q0 -26 1 -41.5t5 -24t11.5 -12t19.5 -4.5l19 -2q6 -5 6 -17.5t-7 -17.5q-53 3 -120 3q-34 0 -64.5 -0.5t-55.5 -2.5q-7 5 -7 17.5t6 17.5
l19 2q12 1 19.5 4.5t11.5 12t5 24t1 41.5v151q0 30 -2.5 42t-16.5 22l-14 9q-5 5 -5 15t5 15q18 5 39 12t41.5 15t38.5 16t29 15q12 0 18 -9q-2 -23 -2.5 -54t-0.5 -65v-184z" />
    <glyph glyph-name="icircumflex" unicode="&#xee;" horiz-adv-x="286" 
d="M279 466q-7 -17 -26 -19l-89 104q-17 20 -21 20t-21 -20l-89 -104q-19 2 -26 19l112 201q5 9 9.5 11.5t14.5 2.5t14.5 -2.5t9.5 -11.5zM214 116q0 -26 1 -41.5t5 -24t11.5 -12t19.5 -4.5l19 -2q6 -5 6 -17.5t-7 -17.5q-53 3 -120 3q-34 0 -64.5 -0.5t-55.5 -2.5
q-7 5 -7 17.5t6 17.5l19 2q12 1 19.5 4.5t11.5 12t5 24t1 41.5v151q0 30 -2.5 42t-16.5 22l-14 9q-5 5 -5 15t5 15q18 5 39 12t41.5 15t38.5 16t29 15q12 0 18 -9q-2 -23 -2.5 -54t-0.5 -65v-184z" />
    <glyph glyph-name="registered" unicode="&#xae;" horiz-adv-x="780" 
d="M672 331q0 63 -22.5 117t-61 94.5t-89.5 63.5t-109 23t-109 -23t-89.5 -63.5t-61 -94.5t-22.5 -117t22.5 -117.5t61 -95t89.5 -64t109 -23.5t109 23.5t89.5 64t61 95t22.5 117.5zM390 -16q-72 0 -136 27t-111.5 74t-75 110t-27.5 135t27.5 135t75 110t111.5 74t136 27
t136 -27t111.5 -74t75 -110t27.5 -135t-27.5 -135t-75 -110t-111.5 -74t-136 -27zM348 360q0 -15 4.5 -18t27.5 -3q31 0 42 21.5t11 45.5q0 29 -15 47t-40 18q-21 0 -25.5 -5t-4.5 -19v-87zM260 412q0 32 -6 47t-25 17l-10 1q-5 4 -4.5 13t5.5 12q46 3 85.5 4t74.5 1
q27 0 53.5 -3.5t48 -14.5t35 -31.5t13.5 -53.5q0 -28 -17.5 -46.5t-34.5 -26.5q-6 -3 -5.5 -7.5t5.5 -13.5q22 -45 39 -76.5t34 -43.5q8 -6 17.5 -10t15.5 -4q4 -2 4 -8t-4 -8q-6 -2 -19 -3.5t-36 -1.5q-38 0 -62.5 14t-41.5 48q-9 17 -17.5 36t-18.5 39q-8 15 -22 15
q-13 0 -16 -2.5t-3 -12.5v-42q0 -20 0.5 -32t3.5 -19t10 -10t20 -5l8 -1q5 -4 4.5 -13t-5.5 -11q-21 1 -39.5 1.5t-44.5 0.5q-23 0 -43.5 -0.5t-39.5 -1.5q-7 2 -7.5 11.5t4.5 12.5l10 1q12 2 18 5t9 9.5t3.5 18.5t0.5 33v162z" />
    <glyph glyph-name="Atilde" unicode="&#xc3;" horiz-adv-x="624" 
d="M268 738q-42 0 -60 -15t-33 -44q-7 -3 -16.5 -1.5t-13.5 7.5q8 26 19.5 52.5t26.5 43.5q14 16 31 20t42 4h122q34 0 53 11t35 42q5 2 15.5 1t14.5 -7q-5 -18 -14.5 -39t-21.5 -39q-13 -21 -29 -28.5t-43 -7.5h-128zM319 279q17 0 22 4.5t-2 24.5l-26 81l-20 60.5
t-16 44.5q-8 -17 -19 -46t-22 -64l-25 -75q-8 -20 -3 -25t24 -5h87zM212 226q-18 0 -23 -3t-10 -17l-37 -116q-5 -15 -6 -22.5t-1 -13.5q0 -5 7.5 -9t28.5 -8l30 -5q5 -5 5.5 -18t-7.5 -17q-26 2 -55.5 2t-61.5 1q-26 0 -47 -1.5t-56 -1.5q-8 5 -8 17t5 18l27 3
q18 2 33.5 11.5t27.5 38.5q14 30 28 68l34 92l90 244l29.5 76.5t9.5 50.5q18 4 33.5 14t27 20t18.5 18t8 8q18 0 23 -20q6 -22 16 -52.5l29 -84.5l136 -392q8 -23 14 -38.5t13.5 -26t16.5 -16t23 -8.5l38 -6q5 -4 5.5 -17t-6.5 -18q-36 2 -75.5 2.5t-78.5 0.5
q-38 0 -69 -0.5t-66 -2.5q-8 5 -9 17t7 18l32 5q17 3 22 7.5t5 9.5t-5 22.5t-14 45.5l-27 86q-4 12 -13 15t-35 3h-112z" />
    <glyph glyph-name="Aacute" unicode="&#xc1;" horiz-adv-x="624" 
d="M470 839q24 15 33 15q8 0 16.5 -6.5t18.5 -23.5q9 -16 10.5 -27.5t-0.5 -16.5q-2 -6 -9.5 -12.5t-23.5 -11.5l-219 -65q-6 2 -10 9.5t-2 15.5zM319 279q17 0 22 4.5t-2 24.5l-26 81l-20 60.5t-16 44.5q-8 -17 -19 -46t-22 -64l-25 -75q-8 -20 -3 -25t24 -5h87zM212 226
q-18 0 -23 -3t-10 -17l-37 -116q-5 -15 -6 -22.5t-1 -13.5q0 -5 7.5 -9t28.5 -8l30 -5q5 -5 5.5 -18t-7.5 -17q-26 2 -55.5 2t-61.5 1q-26 0 -47 -1.5t-56 -1.5q-8 5 -8 17t5 18l27 3q18 2 33.5 11.5t27.5 38.5q14 30 28 68l34 92l90 244l29.5 76.5t9.5 50.5q18 4 33.5 14
t27 20t18.5 18t8 8q18 0 23 -20q6 -22 16 -52.5l29 -84.5l136 -392q8 -23 14 -38.5t13.5 -26t16.5 -16t23 -8.5l38 -6q5 -4 5.5 -17t-6.5 -18q-36 2 -75.5 2.5t-78.5 0.5q-38 0 -69 -0.5t-66 -2.5q-8 5 -9 17t7 18l32 5q17 3 22 7.5t5 9.5t-5 22.5t-14 45.5l-27 86
q-4 12 -13 15t-35 3h-112z" />
    <glyph glyph-name="Ccedilla" unicode="&#xc7;" horiz-adv-x="689" 
d="M407 -14q-67 2 -129.5 20t-110.5 54q-54 41 -90.5 105t-36.5 157q0 92 34.5 157t86.5 108q54 45 126.5 67t150.5 22q38 0 71 -4t59 -8.5t45.5 -8.5t30.5 -5q0 -7 0.5 -24t2 -39t4 -46.5t5.5 -46.5q-2 -5 -7 -7.5t-11 -3.5t-11.5 0t-8.5 4q-20 70 -67.5 106.5t-120.5 36.5
q-42 0 -83 -18t-73.5 -54.5t-53 -91.5t-20.5 -130t20 -132t52.5 -95.5t75 -58.5t87.5 -20t79 14.5t58.5 37.5t40.5 50t26 53q6 6 19.5 4t18.5 -11q-5 -56 -16 -98t-22 -59q-37 -11 -82.5 -22t-97.5 -13l-27 -38q-6 -8 -4 -11.5t13 -9.5q28 -15 44.5 -35.5t16.5 -49.5
q0 -21 -10.5 -38t-28.5 -29t-41 -19t-47 -7q-36 0 -56.5 11.5t-20.5 32.5q0 14 9 23.5t23 9.5q10 0 19 -6t17 -12.5l16 -12.5t16 -6t17 6.5t9 18.5q0 24 -24.5 42.5t-51.5 29.5l-3 8z" />
    <glyph glyph-name="ntilde" unicode="&#xf1;" horiz-adv-x="550" 
d="M253 515q-38 0 -59 -14t-35 -45q-5 -3 -15.5 -1.5t-13.5 7.5q2 11 6.5 24.5t10.5 27t13 25.5t13 20q14 16 28.5 19.5t35.5 3.5h109q32 0 52.5 10.5t32.5 41.5q7 2 16.5 1t12.5 -6q-5 -24 -14 -46.5t-21 -39.5q-11 -16 -24.5 -22t-38.5 -6h-109zM84 267q0 30 -2.5 42
t-16.5 22l-14 9q-5 5 -5 15t5 15q18 5 39 12t41.5 15t38.5 16t29 15q12 0 18 -9q0 -11 -1.5 -25.5t-1.5 -19.5q0 -8 5 -8q2 0 8 3t11 5q8 5 20.5 12t28 13t32.5 10.5t34 4.5q31 0 54.5 -10t39 -27t23.5 -40t8 -49v-172q0 -26 1 -41.5t5.5 -24t12 -12t21.5 -4.5l16 -2
q6 -5 6 -17.5t-7 -17.5q-47 3 -121 3q-30 0 -58 -0.5t-50 -2.5q-7 5 -7 17.5t6 17.5l18 3q17 2 22 13.5t5 52.5v169q0 29 -16 50t-54 21q-21 0 -35.5 -8t-20.5 -16q-8 -9 -8 -37v-179q0 -21 1 -33.5t4 -19.5t9 -10t15 -4l16 -2q6 -5 6 -17.5t-7 -17.5q-23 2 -49 2.5t-62 0.5
q-32 0 -62 -0.5t-56 -2.5q-7 5 -7 17.5t6 17.5l16 2q13 1 21 4.5t12.5 12t5.5 24t1 41.5v151z" />
    <glyph glyph-name="Aring" unicode="&#xc5;" horiz-adv-x="624" 
d="M313 389l-20 60.5t-16 44.5q-8 -17 -19 -46t-22 -64l-25 -75q-8 -20 -3 -25t24 -5h87q17 0 22 4.5t-2 24.5zM546 127q8 -23 14 -38.5t13.5 -26t16.5 -16t23 -8.5l38 -6q5 -4 5.5 -17t-6.5 -18q-36 2 -75.5 2.5t-78.5 0.5q-38 0 -69 -0.5t-66 -2.5q-7 5 -8 17t6 18l32 5
q17 3 22 7.5t5 9.5t-5 22.5t-14 45.5l-27 86q-4 12 -13 15t-35 3h-112q-18 0 -23 -3t-10 -17l-37 -116q-5 -15 -6 -22.5t-1 -13.5q0 -5 7.5 -9t28.5 -8l30 -5q5 -5 5.5 -18t-7.5 -17q-26 2 -55.5 2t-61.5 1q-26 0 -47 -1.5t-56 -1.5q-8 5 -8 17t5 18l27 3q18 2 33.5 11.5
t27.5 38.5q14 30 28 68l34 92l90 244l31 81.5t25 73.5q-33 12 -51 39t-18 59q0 20 8 39t23 34t36.5 24t48.5 9t48.5 -9t36.5 -24t23 -34t8 -39q0 -31 -17 -58t-49 -39q5 -19 14.5 -48.5t26.5 -77.5zM319 810q-25 -2 -38 -21.5t-13 -46.5t13 -46.5t38 -19.5t38 19.5t13 46.5
t-13 46.5t-38 21.5z" />
    <glyph glyph-name="mu" unicode="&#xb5;" horiz-adv-x="536" 
d="M467 132q0 -45 4.5 -65t22.5 -20q10 0 20.5 2.5t19.5 5.5q3 -1 5 -7t2 -13.5t-2.5 -14t-7.5 -8.5q-37 -2 -70 -7.5t-58 -12t-40.5 -11.5t-16.5 -5q-10 1 -12 12q2 9 2.5 19.5t0.5 16.5q0 10 -11 10l-28.5 -17.5t-30.5 -15.5q-17 -7 -35.5 -11t-41.5 -4q-8 0 -18.5 3.5
t-16.5 8.5q-10 -2 -10 -22v-31q0 -24 7.5 -45.5t17 -39l17 -32t7.5 -24.5q0 -12 -8.5 -25t-22.5 -23.5t-31 -17.5t-35 -7q-13 0 -18.5 8t-5.5 28v517q0 20 -1.5 31.5t-4.5 18t-9 9.5t-15 6l-13 4q-5 7 -4.5 18.5t8.5 16.5q25 1 50 3t47 6q23 4 41.5 10.5t21.5 6.5q5 0 8 -4
t4 -8q-2 -19 -2.5 -40t-0.5 -48v-165q0 -18 2 -34.5t9.5 -28.5t21.5 -19.5t38 -7.5q21 0 33.5 7t18.5 12q5 4 8 13t3 17v189q0 30 -8 40t-35 14l-14 2q-6 5 -5 18.5t10 16.5q27 2 53.5 4.5t50.5 5.5q26 4 46 10t25 6q8 0 10 -12q-1 -14 -2 -37t-1 -51v-182z" />
    <glyph glyph-name="mu" unicode="&#x3bc;" horiz-adv-x="536" 
d="M467 132q0 -45 4.5 -65t22.5 -20q10 0 20.5 2.5t19.5 5.5q3 -1 5 -7t2 -13.5t-2.5 -14t-7.5 -8.5q-37 -2 -70 -7.5t-58 -12t-40.5 -11.5t-16.5 -5q-10 1 -12 12q2 9 2.5 19.5t0.5 16.5q0 10 -11 10l-28.5 -17.5t-30.5 -15.5q-17 -7 -35.5 -11t-41.5 -4q-8 0 -18.5 3.5
t-16.5 8.5q-10 -2 -10 -22v-31q0 -24 7.5 -45.5t17 -39l17 -32t7.5 -24.5q0 -12 -8.5 -25t-22.5 -23.5t-31 -17.5t-35 -7q-13 0 -18.5 8t-5.5 28v517q0 20 -1.5 31.5t-4.5 18t-9 9.5t-15 6l-13 4q-5 7 -4.5 18.5t8.5 16.5q25 1 50 3t47 6q23 4 41.5 10.5t21.5 6.5q5 0 8 -4
t4 -8q-2 -19 -2.5 -40t-0.5 -48v-165q0 -18 2 -34.5t9.5 -28.5t21.5 -19.5t38 -7.5q21 0 33.5 7t18.5 12q5 4 8 13t3 17v189q0 30 -8 40t-35 14l-14 2q-6 5 -5 18.5t10 16.5q27 2 53.5 4.5t50.5 5.5q26 4 46 10t25 6q8 0 10 -12q-1 -14 -2 -37t-1 -51v-182z" />
    <glyph glyph-name="Ugrave" unicode="&#xd9;" horiz-adv-x="740" 
d="M435 716q2 -8 -2 -15.5t-10 -9.5l-219 65q-16 5 -23.5 11.5t-9.5 12.5q-2 5 -0.5 16.5t10.5 27.5q10 17 18.5 23.5t16.5 6.5q9 0 33 -15zM109 516q0 35 -1.5 55t-7 31t-15.5 15t-27 7l-25 5q-6 5 -6 17t8 17q72 -3 146 -3t146 3q6 -5 6 -17t-6 -17l-24 -4
q-17 -3 -27 -7.5t-15.5 -15.5t-7 -31t-1.5 -55v-231q0 -44 4.5 -88t21 -79t49.5 -57t90 -22q48 0 80 19.5t51.5 53.5t27.5 79.5t8 96.5v121q0 61 -3.5 112t-11.5 71q-7 16 -22.5 22t-35.5 10l-27 5q-6 6 -5.5 17.5t5.5 16.5q41 -2 72 -2.5t62 -0.5q55 0 112 3
q5 -5 5.5 -16.5t-5.5 -17.5l-18 -4q-20 -5 -33.5 -11t-20.5 -22q-8 -20 -11.5 -71t-3.5 -112v-112q0 -71 -11.5 -133t-52.5 -108q-33 -35 -85 -53.5t-113 -18.5q-57 0 -107 11.5t-91 44.5q-39 32 -56.5 88t-17.5 138v250z" />
    <glyph glyph-name="Egrave" unicode="&#xc8;" horiz-adv-x="593" 
d="M342 716q2 -8 -2 -15.5t-10 -9.5l-219 65q-16 5 -23.5 11.5t-9.5 12.5q-2 5 -0.5 16.5t10.5 27.5q10 17 18.5 23.5t16.5 6.5q9 0 33 -15zM257 400q0 -21 4 -25.5t24 -4.5h69q19 0 31.5 2t20.5 7.5t13 16.5t9 29l5 25q3 3 8 4.5t11 1.5t11 -2t7 -5q-3 -48 -3 -106t3 -106
q-2 -3 -7 -5t-11 -2t-11 1.5t-8 4.5l-5 25q-4 18 -9 29t-13 17t-20.5 8t-31.5 2h-69q-20 0 -24 -4.5t-4 -26.5v-119q0 -35 3.5 -58.5t12.5 -36.5q5 -7 11.5 -12t18.5 -8t30 -4.5t45 -1.5q33 0 56.5 2t43.5 13.5t37.5 35t38.5 65.5q6 8 20 6t17 -11q-2 -20 -6.5 -43.5
t-10.5 -46t-13 -41.5t-12 -29q-20 1 -47 1.5t-58 0.5q-30 1 -62.5 1h-63.5h-130q-36 0 -75.5 -0.5t-96.5 -2.5q-6 5 -6 18t6 17l47 7q17 2 27 6t15.5 14.5t7 30t1.5 54.5v373q0 34 -1.5 54t-7 30.5t-15.5 14.5t-27 7l-25 5q-7 5 -6.5 17.5t8.5 17.5q18 -1 36 -1.5t36 -0.5
q18 -1 36 -1h36h212q48 0 86 0.5t48 2.5q0 -6 1.5 -21.5l3.5 -37t4 -46.5l4 -50q-3 -8 -16 -9.5t-21 5.5q-8 26 -18 47t-20 32q-14 14 -37.5 22.5t-60.5 8.5h-80q-12 0 -19 -1t-10 -4.5t-3.5 -11.5t-0.5 -22v-175z" />
    <glyph glyph-name="otilde" unicode="&#xf5;" horiz-adv-x="516" 
d="M216 515q-38 0 -59 -14t-35 -45q-5 -3 -15.5 -1.5t-13.5 7.5q2 11 6.5 24.5t10.5 27t13 25.5t13 20q14 16 28.5 19.5t35.5 3.5h109q32 0 52.5 10.5t32.5 41.5q7 2 16.5 1t12.5 -6q-5 -24 -14 -46.5t-21 -39.5q-11 -16 -24.5 -22t-38.5 -6h-109zM255 368q-33 0 -56.5 -36
t-23.5 -118q0 -39 6 -72.5t17.5 -58t28.5 -38t39 -13.5q21 0 35.5 11.5t23.5 32t12.5 49t3.5 62.5q-1 36 -6.5 69t-16 58t-26.5 39.5t-37 14.5zM255 -14q-45 0 -85.5 13t-71 38.5t-49 64t-18.5 90.5q-1 54 18.5 95t51.5 69.5t74 43t86 14.5t84.5 -13.5t71.5 -40t49.5 -66.5
t18.5 -93q0 -55 -18.5 -95.5t-50 -67t-73.5 -39.5t-88 -13z" />
    <glyph glyph-name="Ntilde" unicode="&#xd1;" horiz-adv-x="748" 
d="M330 738q-42 0 -60 -15t-33 -44q-7 -3 -16.5 -1.5t-13.5 7.5q8 26 19.5 52.5t26.5 43.5q14 16 31 20t42 4h122q34 0 53 11t35 42q5 2 15.5 1t14.5 -7q-5 -18 -14.5 -39t-21.5 -39q-13 -21 -29 -28.5t-43 -7.5h-128zM652 170v-92.5t2 -68.5q-5 -9 -23 -16t-36 -7l-6.5 9
l-17 24l-25 34.5t-32.5 41.5l-231 286l-69 85.5t-40 42.5q-4 -8 -4.5 -22t-0.5 -42v-194q0 -30 1 -59t2.5 -53t4.5 -42.5t7 -28.5q7 -16 22.5 -22t35.5 -10l28 -4q6 -6 5.5 -18t-5.5 -17q-41 2 -72.5 2.5t-61.5 0.5q-55 0 -112 -3q-5 5 -5.5 17t5.5 18l17 3q20 5 34 11
t21 22q4 10 6.5 28.5t4 42.5t2.5 53t1 59v254v34.5t-1 23t-2 16t-4 11.5q-5 13 -18 21t-39 13l-28 4q-5 6 -4.5 19.5t8.5 15.5q35 -2 71 -2.5t67 -0.5q52 0 84 3q8 -34 52.5 -90.5l112.5 -137.5l84 -99l56.5 -66t39.5 -44q3 8 3.5 19.5t0.5 25.5v138q0 30 -1 59t-2.5 53
t-4.5 42.5t-7 28.5q-7 16 -22.5 22t-35.5 10l-27 4q-6 6 -5.5 18t5.5 17q41 -2 72 -2.5t62 -0.5q53 0 112 3q5 -5 5.5 -17t-5.5 -18l-18 -3q-20 -5 -33.5 -11t-20.5 -22q-4 -10 -7 -28.5t-4.5 -42.5t-2.5 -53t-1 -59v-239z" />
    <glyph glyph-name="Uacute" unicode="&#xda;" horiz-adv-x="740" 
d="M548 839q24 15 33 15q8 0 16.5 -6.5t18.5 -23.5q9 -16 10.5 -27.5t-0.5 -16.5q-2 -6 -9.5 -12.5t-23.5 -11.5l-219 -65q-6 2 -10 9.5t-2 15.5zM109 516q0 35 -1.5 55t-7 31t-15.5 15t-27 7l-25 5q-6 5 -6 17t8 17q72 -3 146 -3t146 3q6 -5 6 -17t-6 -17l-24 -4
q-17 -3 -27 -7.5t-15.5 -15.5t-7 -31t-1.5 -55v-231q0 -44 4.5 -88t21 -79t49.5 -57t90 -22q48 0 80 19.5t51.5 53.5t27.5 79.5t8 96.5v121q0 61 -3.5 112t-11.5 71q-7 16 -22.5 22t-35.5 10l-27 5q-6 6 -5.5 17.5t5.5 16.5q41 -2 72 -2.5t62 -0.5q55 0 112 3
q5 -5 5.5 -16.5t-5.5 -17.5l-18 -4q-20 -5 -33.5 -11t-20.5 -22q-8 -20 -11.5 -71t-3.5 -112v-112q0 -71 -11.5 -133t-52.5 -108q-33 -35 -85 -53.5t-113 -18.5q-57 0 -107 11.5t-91 44.5q-39 32 -56.5 88t-17.5 138v250z" />
    <glyph glyph-name="Acircumflex" unicode="&#xc2;" horiz-adv-x="624" 
d="M332 755q-11 5 -19.5 5t-19.5 -5l-139 -65q-8 0 -13.5 9t-2.5 17l148 131q26 24 52 0l148 -131q3 -8 -2.5 -16.5t-11.5 -9.5zM319 279q17 0 22 4.5t-2 24.5l-26 81l-20 60.5t-16 44.5q-8 -17 -19 -46t-22 -64l-25 -75q-8 -20 -3 -25t24 -5h87zM212 226q-18 0 -23 -3
t-10 -17l-37 -116q-5 -15 -6 -22.5t-1 -13.5q0 -5 7.5 -9t28.5 -8l30 -5q5 -5 5.5 -18t-7.5 -17q-26 2 -55.5 2t-61.5 1q-26 0 -47 -1.5t-56 -1.5q-8 5 -8 17t5 18l27 3q18 2 33.5 11.5t27.5 38.5q14 30 28 68l34 92l90 244l29.5 76.5t9.5 50.5q18 4 33.5 14t27 20t18.5 18
t8 8q18 0 23 -20q6 -22 16 -52.5l29 -84.5l136 -392q8 -23 14 -38.5t13.5 -26t16.5 -16t23 -8.5l38 -6q5 -4 5.5 -17t-6.5 -18q-36 2 -75.5 2.5t-78.5 0.5q-38 0 -69 -0.5t-66 -2.5q-8 5 -9 17t7 18l32 5q17 3 22 7.5t5 9.5t-5 22.5t-14 45.5l-27 86q-4 12 -13 15t-35 3
h-112z" />
    <glyph glyph-name="ocircumflex" unicode="&#xf4;" horiz-adv-x="516" 
d="M394 466q-7 -17 -26 -19l-89 104q-17 20 -21 20t-21 -20l-89 -104q-19 2 -26 19l112 201q5 9 9.5 11.5t14.5 2.5t14.5 -2.5t9.5 -11.5zM255 368q-33 0 -56.5 -36t-23.5 -118q0 -39 6 -72.5t17.5 -58t28.5 -38t39 -13.5q21 0 35.5 11.5t23.5 32t12.5 49t3.5 62.5
q-1 36 -6.5 69t-16 58t-26.5 39.5t-37 14.5zM255 -14q-45 0 -85.5 13t-71 38.5t-49 64t-18.5 90.5q-1 54 18.5 95t51.5 69.5t74 43t86 14.5t84.5 -13.5t71.5 -40t49.5 -66.5t18.5 -93q0 -55 -18.5 -95.5t-50 -67t-73.5 -39.5t-88 -13z" />
    <glyph glyph-name="ydieresis" unicode="&#xff;" horiz-adv-x="469" 
d="M341 487q-26 0 -44.5 15t-18.5 44q-1 28 17.5 46t45.5 18q26 0 43.5 -18t17.5 -41q0 -29 -17.5 -46.5t-43.5 -17.5zM131 487q-26 0 -44.5 15t-18.5 44q-1 28 17.5 46t45.5 18q26 0 43.5 -18t17.5 -41q0 -29 -17.5 -46.5t-43.5 -17.5zM-6 368q-5 5 -5 18.5t8 16.5
q54 -3 132 -3q56 0 112 3q8 -3 8.5 -16.5t-5.5 -18.5l-20 -4q-21 -5 -25.5 -8.5t-4.5 -10.5q0 -9 8 -30l22 -59l10 -26.5l12 -32l12 -31.5t11 -24l15.5 32.5l15.5 33.5l18 41q16 36 26.5 64.5t10.5 36.5q0 5 -6.5 8.5t-15.5 5.5l-20 4q-7 5 -6 19t9 16q17 -2 40 -2.5
t57 -0.5q39 0 78 3q4 -2 6 -6.5t2 -10t-1.5 -11t-4.5 -7.5l-19 -2q-15 -2 -27 -7.5t-19 -14.5q-9 -12 -25.5 -41t-33.5 -64l-53 -109l-33.5 -69l-42 -87.5l-42.5 -88l-34 -70.5q-16 -34 -37 -49.5t-49 -16.5q-20 0 -32.5 5.5t-19.5 14t-9.5 19.5t-2.5 21q0 23 15.5 37.5
t41.5 14.5h24q18 0 29.5 5.5t19.5 15.5q8 11 14.5 25l14.5 30q5 9 9.5 21t4.5 21q0 10 -3.5 26t-15.5 47l-96 242q-14 36 -25 51t-35 20z" />
    <glyph glyph-name="Eacute" unicode="&#xc9;" horiz-adv-x="593" 
d="M455 839q24 15 33 15q8 0 16.5 -6.5t18.5 -23.5q9 -16 10.5 -27.5t-0.5 -16.5q-2 -6 -9.5 -12.5t-23.5 -11.5l-219 -65q-6 2 -10 9.5t-2 15.5zM257 400q0 -21 4 -25.5t24 -4.5h69q19 0 31.5 2t20.5 7.5t13 16.5t9 29l5 25q3 3 8 4.5t11 1.5t11 -2t7 -5q-3 -48 -3 -106
t3 -106q-2 -3 -7 -5t-11 -2t-11 1.5t-8 4.5l-5 25q-4 18 -9 29t-13 17t-20.5 8t-31.5 2h-69q-20 0 -24 -4.5t-4 -26.5v-119q0 -35 3.5 -58.5t12.5 -36.5q5 -7 11.5 -12t18.5 -8t30 -4.5t45 -1.5q33 0 56.5 2t43.5 13.5t37.5 35t38.5 65.5q6 8 20 6t17 -11q-2 -20 -6.5 -43.5
t-10.5 -46t-13 -41.5t-12 -29q-20 1 -47 1.5t-58 0.5q-30 1 -62.5 1h-63.5h-130q-36 0 -75.5 -0.5t-96.5 -2.5q-6 5 -6 18t6 17l47 7q17 2 27 6t15.5 14.5t7 30t1.5 54.5v373q0 34 -1.5 54t-7 30.5t-15.5 14.5t-27 7l-25 5q-7 5 -6.5 17.5t8.5 17.5q18 -1 36 -1.5t36 -0.5
q18 -1 36 -1h36h212q48 0 86 0.5t48 2.5q0 -6 1.5 -21.5l3.5 -37t4 -46.5l4 -50q-3 -8 -16 -9.5t-21 5.5q-8 26 -18 47t-20 32q-14 14 -37.5 22.5t-60.5 8.5h-80q-12 0 -19 -1t-10 -4.5t-3.5 -11.5t-0.5 -22v-175z" />
    <glyph glyph-name="Ograve" unicode="&#xd2;" horiz-adv-x="788" 
d="M459 716q2 -8 -2 -15.5t-10 -9.5l-219 65q-16 5 -23.5 11.5t-9.5 12.5q-2 5 -0.5 16.5t10.5 27.5q10 17 18.5 23.5t16.5 6.5q9 0 33 -15zM588 320q0 64 -13.5 120.5t-39.5 98.5t-63 66.5t-83 24.5t-81.5 -20.5t-59.5 -58t-36 -89t-12 -114.5q0 -31 4 -66t13 -70.5
t24.5 -68t38.5 -58t54 -40.5t72 -15q49 0 83.5 22.5t56.5 61.5t32 92t10 114zM397 676q78 0 142.5 -25t111 -70.5t72 -108.5t25.5 -139q0 -82 -26 -146.5t-73.5 -109.5t-114 -69t-147.5 -24q-75 0 -139 24t-110 68t-72 107.5t-26 141.5q0 74 26.5 138t73.5 111.5t113 74.5
t144 27z" />
    <glyph glyph-name="acircumflex" unicode="&#xe2;" horiz-adv-x="443" 
d="M358 466q-7 -17 -26 -19l-89 104q-17 20 -21 20t-21 -20l-89 -104q-19 2 -26 19l112 201q5 9 9.5 11.5t14.5 2.5t14.5 -2.5t9.5 -11.5zM251 163q1 12 -0.5 15.5t-6.5 2.5q-34 -5 -59 -20t-25 -50q0 -24 15 -42t36 -18q23 0 30 13t8 36zM371 137q-1 -26 3 -42.5t11 -26
t15 -13.5t16 -4q9 0 17.5 2.5t20.5 9.5q7 -2 10.5 -9t1.5 -14q-5 -6 -15.5 -15t-25.5 -18t-34.5 -15t-40.5 -6q-26 0 -45 9t-39 26q-9 8 -16 8q-5 0 -21 -11q-14 -10 -35.5 -21t-49.5 -11q-22 0 -42 6.5t-35.5 19.5t-25 33t-9.5 46q0 38 24.5 62.5t79.5 41.5l51 15.5
l43 12.5q14 4 18.5 9t5.5 11q1 8 1.5 16.5t0.5 17.5q0 14 -3 29.5t-10 28t-18 20.5t-27 8q-18 0 -32.5 -12.5t-19.5 -44.5q-2 -12 -6 -19.5t-11 -12.5q-6 -4 -15 -8t-19.5 -7.5t-20.5 -5.5t-17 -2q-13 0 -18 7t-5 18q0 20 15 41.5t33 35.5q13 10 30.5 21t39.5 20t46.5 14.5
t51.5 5.5q63 0 97.5 -33.5t30.5 -111.5z" />
    <glyph glyph-name="divide" unicode="&#xf7;" 
d="M60 177v72h401v-72h-401zM261 295q-26 0 -43.5 17.5t-17.5 43.5q0 25 17.5 42.5t43.5 17.5q23 0 41 -17.5t18 -42.5q0 -26 -18 -43.5t-41 -17.5zM261 10q-26 0 -43.5 17.5t-17.5 43.5q0 25 17.5 42.5t43.5 17.5q23 0 41 -17.5t18 -42.5q0 -26 -18 -43.5t-41 -17.5z" />
    <glyph glyph-name="ccedilla" unicode="&#xe7;" horiz-adv-x="416" 
d="M236 -13q-46 1 -83.5 16t-64.5 41.5t-42 63t-15 80.5q0 53 20 95t54.5 71t79.5 44.5t96 15.5q26 0 55.5 -4.5t49.5 -12.5q10 -8 15.5 -20t5.5 -32q0 -23 -8.5 -40t-17.5 -17q-4 0 -9 1.5t-7 3.5q-21 30 -48.5 52.5t-54.5 22.5q-24 0 -43 -12.5t-31.5 -33t-19 -46
t-6.5 -51.5q0 -30 9.5 -58.5t27.5 -51t44.5 -36t61.5 -13.5q28 0 50 10.5t39 38.5q9 1 17.5 -4.5t8.5 -17.5q-14 -31 -45.5 -60.5t-82.5 -40.5l-32 -44q-6 -8 -4 -11.5t13 -9.5q28 -15 44.5 -35.5t16.5 -49.5q0 -21 -10.5 -38t-28.5 -29t-41 -19t-47 -7q-36 0 -56.5 11.5
t-20.5 32.5q0 14 9 23.5t23 9.5q10 0 19 -6t17 -12.5l16 -12.5t16 -6t17 6.5t9 18.5q0 24 -24.5 42.5t-51.5 29.5l-3 8z" />
    <glyph glyph-name="ugrave" unicode="&#xf9;" horiz-adv-x="544" 
d="M308 463q-3 -19 -25 -16l-141 139q-10 10 -16 19.5t-6 17.5q0 15 27 36q13 9 22 12.5t17 3.5t15.5 -6.5t15.5 -23.5zM471 132q0 -45 4.5 -65t22.5 -20q10 0 20.5 2.5t19.5 5.5q3 -1 5 -7t2 -13.5t-2.5 -14t-7.5 -8.5q-37 -2 -70 -7.5t-58 -12t-40.5 -11.5t-16.5 -5
q-10 1 -12 12q2 9 2.5 19.5t0.5 16.5q0 10 -11 10q-29 -19 -59.5 -33.5t-76.5 -14.5q-63 0 -90 32t-27 96v170q0 20 -1.5 31.5t-4.5 18t-9 9.5t-15 6l-13 4q-5 7 -4.5 18.5t8.5 16.5q25 1 50 3t47 6q23 4 41.5 10.5t21.5 6.5q5 0 8 -4t4 -8q-2 -19 -2.5 -40t-0.5 -48v-165
q0 -18 2 -34.5t9.5 -28.5t21.5 -19.5t38 -7.5q21 0 33.5 7t18.5 12q5 4 8 13t3 17v189q0 30 -8 40t-35 14l-14 2q-6 5 -5 18.5t10 16.5q27 2 53.5 4.5t50.5 5.5q26 4 46 10t25 6q8 0 10 -12q-1 -14 -2 -37t-1 -51v-182z" />
    <glyph glyph-name="Agrave" unicode="&#xc0;" horiz-adv-x="624" 
d="M362 716q2 -8 -2 -15.5t-10 -9.5l-219 65q-16 5 -23.5 11.5t-9.5 12.5q-2 5 -0.5 16.5t10.5 27.5q10 17 18.5 23.5t16.5 6.5q9 0 33 -15zM319 279q17 0 22 4.5t-2 24.5l-26 81l-20 60.5t-16 44.5q-8 -17 -19 -46t-22 -64l-25 -75q-8 -20 -3 -25t24 -5h87zM212 226
q-18 0 -23 -3t-10 -17l-37 -116q-5 -15 -6 -22.5t-1 -13.5q0 -5 7.5 -9t28.5 -8l30 -5q5 -5 5.5 -18t-7.5 -17q-26 2 -55.5 2t-61.5 1q-26 0 -47 -1.5t-56 -1.5q-8 5 -8 17t5 18l27 3q18 2 33.5 11.5t27.5 38.5q14 30 28 68l34 92l90 244l29.5 76.5t9.5 50.5q18 4 33.5 14
t27 20t18.5 18t8 8q18 0 23 -20q6 -22 16 -52.5l29 -84.5l136 -392q8 -23 14 -38.5t13.5 -26t16.5 -16t23 -8.5l38 -6q5 -4 5.5 -17t-6.5 -18q-36 2 -75.5 2.5t-78.5 0.5q-38 0 -69 -0.5t-66 -2.5q-8 5 -9 17t7 18l32 5q17 3 22 7.5t5 9.5t-5 22.5t-14 45.5l-27 86
q-4 12 -13 15t-35 3h-112z" />
    <glyph glyph-name="Ucircumflex" unicode="&#xdb;" horiz-adv-x="740" 
d="M390 755q-11 5 -19.5 5t-19.5 -5l-139 -65q-8 0 -13.5 9t-2.5 17l148 131q26 24 52 0l148 -131q3 -8 -2.5 -16.5t-11.5 -9.5zM109 516q0 35 -1.5 55t-7 31t-15.5 15t-27 7l-25 5q-6 5 -6 17t8 17q72 -3 146 -3t146 3q6 -5 6 -17t-6 -17l-24 -4q-17 -3 -27 -7.5
t-15.5 -15.5t-7 -31t-1.5 -55v-231q0 -44 4.5 -88t21 -79t49.5 -57t90 -22q48 0 80 19.5t51.5 53.5t27.5 79.5t8 96.5v121q0 61 -3.5 112t-11.5 71q-7 16 -22.5 22t-35.5 10l-27 5q-6 6 -5.5 17.5t5.5 16.5q41 -2 72 -2.5t62 -0.5q55 0 112 3q5 -5 5.5 -16.5t-5.5 -17.5
l-18 -4q-20 -5 -33.5 -11t-20.5 -22q-8 -20 -11.5 -71t-3.5 -112v-112q0 -71 -11.5 -133t-52.5 -108q-33 -35 -85 -53.5t-113 -18.5q-57 0 -107 11.5t-91 44.5q-39 32 -56.5 88t-17.5 138v250z" />
    <glyph glyph-name="Ydieresis" unicode="&#x178;" horiz-adv-x="575" 
d="M423 707q-26 0 -44 15t-18 44q-1 28 17 46t45 18t44 -18t17 -41q0 -29 -17 -46.5t-44 -17.5zM203 707q-26 0 -44 15t-18 44q-1 28 17 46t45 18t44 -18t17 -41q0 -29 -17 -46.5t-44 -17.5zM367 144q0 -35 1.5 -55t7 -30.5t15.5 -14.5t27 -7l40 -5q5 -5 5 -17.5t-5 -17.5
q-49 2 -87.5 2.5t-74.5 0.5t-74 -0.5t-83 -2.5q-6 5 -6 17.5t6 17.5l34 5q17 3 27 7t15.5 14.5t7 30.5t1.5 55v50q0 19 -0.5 32.5t-3 26t-8 26.5t-15.5 34l-119 246l-14 26t-12.5 18.5t-15.5 11.5t-22 7l-34 6q-7 6 -6 19.5t10 15.5q34 -2 65.5 -2.5t75.5 -0.5q46 0 83 0.5
t63 2.5q7 -3 8 -16t-6 -19l-34 -8q-14 -3 -19 -5.5t-5 -3.5q0 -6 5 -20.5t21 -49.5l47 -107l24 -52l22 -46q22 37 43 78.5l41 79.5q29 54 40.5 80.5t11.5 35.5q0 8 -34 14l-23 4q-6 4 -6.5 17.5t7.5 17.5q60 -3 112 -3q29 0 52.5 0.5t45.5 2.5q9 -3 9.5 -16.5t-5.5 -18.5
l-26 -5q-14 -3 -27 -8t-21 -16q-11 -14 -31.5 -45.5t-56.5 -96.5l-63 -114q-10 -18 -16.5 -32t-11 -28.5t-6.5 -31t-2 -37.5v-70z" />
    <glyph glyph-name="Adieresis" unicode="&#xc4;" horiz-adv-x="624" 
d="M423 707q-26 0 -44 15t-18 44q-1 28 17 46t45 18t44 -18t17 -41q0 -29 -17 -46.5t-44 -17.5zM203 707q-26 0 -44 15t-18 44q-1 28 17 46t45 18t44 -18t17 -41q0 -29 -17 -46.5t-44 -17.5zM319 279q17 0 22 4.5t-2 24.5l-26 81l-20 60.5t-16 44.5q-8 -17 -19 -46t-22 -64
l-25 -75q-8 -20 -3 -25t24 -5h87zM212 226q-18 0 -23 -3t-10 -17l-37 -116q-5 -15 -6 -22.5t-1 -13.5q0 -5 7.5 -9t28.5 -8l30 -5q5 -5 5.5 -18t-7.5 -17q-26 2 -55.5 2t-61.5 1q-26 0 -47 -1.5t-56 -1.5q-8 5 -8 17t5 18l27 3q18 2 33.5 11.5t27.5 38.5q14 30 28 68l34 92
l90 244l29.5 76.5t9.5 50.5q18 4 33.5 14t27 20t18.5 18t8 8q18 0 23 -20q6 -22 16 -52.5l29 -84.5l136 -392q8 -23 14 -38.5t13.5 -26t16.5 -16t23 -8.5l38 -6q5 -4 5.5 -17t-6.5 -18q-36 2 -75.5 2.5t-78.5 0.5q-38 0 -69 -0.5t-66 -2.5q-8 5 -9 17t7 18l32 5q17 3 22 7.5
t5 9.5t-5 22.5t-14 45.5l-27 86q-4 12 -13 15t-35 3h-112z" />
    <glyph glyph-name="Icircumflex" unicode="&#xce;" horiz-adv-x="371" 
d="M206 755q-11 5 -19.5 5t-19.5 -5l-139 -65q-8 0 -13.5 9t-2.5 17l148 131q26 24 52 0l148 -131q3 -8 -2.5 -16.5t-11.5 -9.5zM257 146q0 -35 1.5 -55.5t7 -31.5t16 -15t27.5 -7l28 -5q6 -5 5.5 -17.5t-6.5 -17.5q-81 3 -150 3q-71 0 -152 -3q-6 5 -6 17.5t6 17.5l28 5
q17 3 27.5 7t16 15t7 31.5t1.5 55.5v368q0 35 -1.5 55.5t-7 31.5t-16 15t-27.5 7l-28 5q-6 5 -6 17.5t6 17.5q81 -3 152 -3q70 0 151 3q6 -5 6 -17.5t-6 -17.5l-28 -5q-17 -3 -27.5 -7t-16 -15t-7 -31.5t-1.5 -55.5v-368z" />
    <glyph glyph-name="idieresis" unicode="&#xef;" horiz-adv-x="286" 
d="M249 487q-26 0 -44.5 15t-18.5 44q-1 28 17.5 46t45.5 18q26 0 43.5 -18t17.5 -41q0 -29 -17.5 -46.5t-43.5 -17.5zM39 487q-26 0 -44.5 15t-18.5 44q-1 28 17.5 46t45.5 18q26 0 43.5 -18t17.5 -41q0 -29 -17.5 -46.5t-43.5 -17.5zM214 116q0 -26 1 -41.5t5 -24
t11.5 -12t19.5 -4.5l19 -2q6 -5 6 -17.5t-7 -17.5q-53 3 -120 3q-34 0 -64.5 -0.5t-55.5 -2.5q-7 5 -7 17.5t6 17.5l19 2q12 1 19.5 4.5t11.5 12t5 24t1 41.5v151q0 30 -2.5 42t-16.5 22l-14 9q-5 5 -5 15t5 15q18 5 39 12t41.5 15t38.5 16t29 15q12 0 18 -9
q-2 -23 -2.5 -54t-0.5 -65v-184z" />
    <glyph glyph-name="Oacute" unicode="&#xd3;" horiz-adv-x="788" 
d="M532 839q24 15 33 15q8 0 16.5 -6.5t18.5 -23.5q9 -16 10.5 -27.5t-0.5 -16.5q-2 -6 -9.5 -12.5t-23.5 -11.5l-219 -65q-6 2 -10 9.5t-2 15.5zM588 320q0 64 -13.5 120.5t-39.5 98.5t-63 66.5t-83 24.5t-81.5 -20.5t-59.5 -58t-36 -89t-12 -114.5q0 -31 4 -66t13 -70.5
t24.5 -68t38.5 -58t54 -40.5t72 -15q49 0 83.5 22.5t56.5 61.5t32 92t10 114zM397 676q78 0 142.5 -25t111 -70.5t72 -108.5t25.5 -139q0 -82 -26 -146.5t-73.5 -109.5t-114 -69t-147.5 -24q-75 0 -139 24t-110 68t-72 107.5t-26 141.5q0 74 26.5 138t73.5 111.5t113 74.5
t144 27z" />
    <glyph glyph-name="aring" unicode="&#xe5;" horiz-adv-x="443" 
d="M222 511q26 0 39.5 20t13.5 48t-13.5 48t-39.5 22q-26 -2 -39.5 -22t-13.5 -48t13.5 -48t39.5 -20zM222 469q-28 0 -50.5 9.5t-38 24.5t-23.5 35t-8 41t8 40.5t23.5 35t38 24.5t50.5 9t50.5 -9t38 -24.5t23.5 -35t8 -40.5t-8 -41t-23.5 -35t-38 -24.5t-50.5 -9.5z
M251 163q1 12 -0.5 15.5t-6.5 2.5q-34 -5 -59 -20t-25 -50q0 -24 15 -42t36 -18q23 0 30 13t8 36zM371 137q-1 -26 3 -42.5t11 -26t15 -13.5t16 -4q9 0 17.5 2.5t20.5 9.5q7 -2 10.5 -9t1.5 -14q-5 -6 -15.5 -15t-25.5 -18t-34.5 -15t-40.5 -6q-26 0 -45 9t-39 26
q-9 8 -16 8q-5 0 -21 -11q-14 -10 -35.5 -21t-49.5 -11q-22 0 -42 6.5t-35.5 19.5t-25 33t-9.5 46q0 38 24.5 62.5t79.5 41.5l51 15.5l43 12.5q14 4 18.5 9t5.5 11q1 8 1.5 16.5t0.5 17.5q0 14 -3 29.5t-10 28t-18 20.5t-27 8q-18 0 -32.5 -12.5t-19.5 -44.5
q-2 -12 -6 -19.5t-11 -12.5q-6 -4 -15 -8t-19.5 -7.5t-20.5 -5.5t-17 -2q-13 0 -18 7t-5 18q0 20 15 41.5t33 35.5q13 10 30.5 21t39.5 20t46.5 14.5t51.5 5.5q63 0 97.5 -33.5t30.5 -111.5z" />
    <glyph glyph-name="trademark" unicode="&#x2122;" horiz-adv-x="1070" 
d="M726 444q4 -8 13 -23.5t14 -22.5q5 7 12.5 21t16.5 33l33 66l13 26.5l17 36t17 40.5t13 41q18 -2 34.5 -2h33.5q23 0 43 0.5t37 1.5q5 -2 6 -11t-3 -14l-19 -5q-20 -6 -26.5 -15t-9.5 -37q-1 -6 -1.5 -16.5t-1 -22.5t-0.5 -24.5v-22.5q0 -12 0.5 -32.5t1.5 -43.5
t1.5 -46.5t1.5 -41.5q1 -23 5 -32.5t24 -13.5l19 -3q5 -4 4.5 -12.5t-6.5 -12.5q-20 1 -42 1.5t-53 0.5t-53.5 -0.5t-42.5 -1.5q-6 5 -6.5 13t4.5 12l18 4q18 4 24 13.5t5 33.5l-3 191v13.5t-2 7.5q-1 0 -4.5 -6.5t-8 -16l-9.5 -19.5t-8 -17l-44 -91q-9 -18 -18 -38.5
l-16.5 -39l-14 -35l-10.5 -27.5q-5 -5 -15.5 -5t-14.5 4q-4 13 -11 29.5l-14.5 33.5t-15.5 32t-13 26l-53 104q-3 5 -7.5 15t-10 20.5t-10 18t-5.5 7.5q-3 -3 -3 -42v-151q0 -18 1 -29.5t4.5 -18.5t10.5 -10t19 -5l17 -2q5 -5 4.5 -13.5t-6.5 -11.5q-16 1 -35 1.5t-37 0.5
q-21 0 -40 -0.5t-38 -1.5q-5 2 -6 11t4 14l15 2q20 3 28 11t10 36q0 4 1.5 17t3 32t3 41.5t2.5 46.5q2 31 3 62.5t-1 56.5q-3 43 -42 49l-14 2q-4 5 -3.5 14t7.5 11q20 -1 42 -1.5t50 -0.5h34.5t31.5 2q0 -15 5 -32.5t12.5 -35.5t16 -35l15.5 -30zM178 594q0 21 -3 25.5
t-18 4.5h-14q-17 0 -29 -1t-22.5 -6.5t-19.5 -17t-19 -33.5q-5 -5 -14.5 -3.5t-11.5 7.5q10 35 15.5 63l9.5 47q2 3 8.5 3t10.5 -3q3 -14 12 -17t35 -3h254q22 0 30.5 2t13.5 12q4 2 10.5 1.5t8.5 -3.5q-3 -8 -5 -21t-3 -27.5t-1.5 -30t0.5 -28.5q-4 -5 -13 -6t-14 4
q-3 22 -8.5 34.5t-14 18.5t-19.5 7t-26 1h-26q-17 0 -19 -5t-2 -25v-248q0 -17 1 -28t4.5 -18t11 -10.5t20.5 -5.5l23 -3q3 -5 3 -13t-4 -12q-28 1 -57 1.5t-56 0.5q-26 0 -54.5 -0.5t-56.5 -1.5q-4 4 -4 12t3 13l23 3q25 4 31 16t6 46v248z" />
    <glyph glyph-name="ograve" unicode="&#xf2;" horiz-adv-x="516" 
d="M294 463q-3 -19 -25 -16l-141 139q-10 10 -16 19.5t-6 17.5q0 15 27 36q13 9 22 12.5t17 3.5t15.5 -6.5t15.5 -23.5zM255 368q-33 0 -56.5 -36t-23.5 -118q0 -39 6 -72.5t17.5 -58t28.5 -38t39 -13.5q21 0 35.5 11.5t23.5 32t12.5 49t3.5 62.5q-1 36 -6.5 69t-16 58
t-26.5 39.5t-37 14.5zM255 -14q-45 0 -85.5 13t-71 38.5t-49 64t-18.5 90.5q-1 54 18.5 95t51.5 69.5t74 43t86 14.5t84.5 -13.5t71.5 -40t49.5 -66.5t18.5 -93q0 -55 -18.5 -95.5t-50 -67t-73.5 -39.5t-88 -13z" />
    <glyph glyph-name="udieresis" unicode="&#xfc;" horiz-adv-x="544" 
d="M378 487q-26 0 -44.5 15t-18.5 44q-1 28 17.5 46t45.5 18q26 0 43.5 -18t17.5 -41q0 -29 -17.5 -46.5t-43.5 -17.5zM168 487q-26 0 -44.5 15t-18.5 44q-1 28 17.5 46t45.5 18q26 0 43.5 -18t17.5 -41q0 -29 -17.5 -46.5t-43.5 -17.5zM471 132q0 -45 4.5 -65t22.5 -20
q10 0 20.5 2.5t19.5 5.5q3 -1 5 -7t2 -13.5t-2.5 -14t-7.5 -8.5q-37 -2 -70 -7.5t-58 -12t-40.5 -11.5t-16.5 -5q-10 1 -12 12q2 9 2.5 19.5t0.5 16.5q0 10 -11 10q-29 -19 -59.5 -33.5t-76.5 -14.5q-63 0 -90 32t-27 96v170q0 20 -1.5 31.5t-4.5 18t-9 9.5t-15 6l-13 4
q-5 7 -4.5 18.5t8.5 16.5q25 1 50 3t47 6q23 4 41.5 10.5t21.5 6.5q5 0 8 -4t4 -8q-2 -19 -2.5 -40t-0.5 -48v-165q0 -18 2 -34.5t9.5 -28.5t21.5 -19.5t38 -7.5q21 0 33.5 7t18.5 12q5 4 8 13t3 17v189q0 30 -8 40t-35 14l-14 2q-6 5 -5 18.5t10 16.5q27 2 53.5 4.5
t50.5 5.5q26 4 46 10t25 6q8 0 10 -12q-1 -14 -2 -37t-1 -51v-182z" />
    <glyph glyph-name="edieresis" unicode="&#xeb;" horiz-adv-x="420" 
d="M336 487q-26 0 -44.5 15t-18.5 44q-1 28 17.5 46t45.5 18q26 0 43.5 -18t17.5 -41q0 -29 -17.5 -46.5t-43.5 -17.5zM126 487q-26 0 -44.5 15t-18.5 44q-1 28 17.5 46t45.5 18q26 0 43.5 -18t17.5 -41q0 -29 -17.5 -46.5t-43.5 -17.5zM246 281q11 0 22 2t19 7q4 2 5.5 8.5
t1.5 14.5q0 25 -13.5 40t-39.5 15q-16 0 -30 -7t-24.5 -17.5t-17 -23t-6.5 -24.5q0 -11 11 -13t35 -2h37zM180 237q-17 0 -21 -3t-4 -15q0 -28 9 -54.5t26.5 -47.5t44 -33.5t61.5 -12.5q10 0 22.5 1.5t24.5 7t24 16t22 27.5q8 2 17 -4t9 -19q-15 -32 -36 -53.5t-44.5 -35
t-48 -19.5t-46.5 -6q-51 0 -89.5 16.5t-65 44.5t-40 65t-13.5 78q0 47 16 88t45 71t68.5 47.5t86.5 17.5q39 0 69 -11.5t50 -31.5t30.5 -46t10.5 -55q0 -14 -6.5 -23.5t-29.5 -9.5h-192z" />
    <glyph glyph-name="plusminus" unicode="&#xb1;" 
d="M60 0v72h401v-72h-401zM217 100v147h-157v72h157v139h88v-139h156v-72h-156v-147h-88z" />
    <glyph glyph-name="aacute" unicode="&#xe1;" horiz-adv-x="443" 
d="M304 645q8 17 15.5 23.5t15.5 6.5t17 -3.5t22 -12.5q27 -21 27 -36q0 -8 -6 -17.5t-16 -19.5l-141 -139q-22 -3 -25 16zM251 163q1 12 -0.5 15.5t-6.5 2.5q-34 -5 -59 -20t-25 -50q0 -24 15 -42t36 -18q23 0 30 13t8 36zM371 137q-1 -26 3 -42.5t11 -26t15 -13.5t16 -4
q9 0 17.5 2.5t20.5 9.5q7 -2 10.5 -9t1.5 -14q-5 -6 -15.5 -15t-25.5 -18t-34.5 -15t-40.5 -6q-26 0 -45 9t-39 26q-9 8 -16 8q-5 0 -21 -11q-14 -10 -35.5 -21t-49.5 -11q-22 0 -42 6.5t-35.5 19.5t-25 33t-9.5 46q0 38 24.5 62.5t79.5 41.5l51 15.5l43 12.5q14 4 18.5 9
t5.5 11q1 8 1.5 16.5t0.5 17.5q0 14 -3 29.5t-10 28t-18 20.5t-27 8q-18 0 -32.5 -12.5t-19.5 -44.5q-2 -12 -6 -19.5t-11 -12.5q-6 -4 -15 -8t-19.5 -7.5t-20.5 -5.5t-17 -2q-13 0 -18 7t-5 18q0 20 15 41.5t33 35.5q13 10 30.5 21t39.5 20t46.5 14.5t51.5 5.5
q63 0 97.5 -33.5t30.5 -111.5z" />
    <glyph glyph-name="Idieresis" unicode="&#xcf;" horiz-adv-x="371" 
d="M297 707q-26 0 -44 15t-18 44q-1 28 17 46t45 18t44 -18t17 -41q0 -29 -17 -46.5t-44 -17.5zM77 707q-26 0 -44 15t-18 44q-1 28 17 46t45 18t44 -18t17 -41q0 -29 -17 -46.5t-44 -17.5zM257 146q0 -35 1.5 -55.5t7 -31.5t16 -15t27.5 -7l28 -5q6 -5 5.5 -17.5
t-6.5 -17.5q-81 3 -150 3q-71 0 -152 -3q-6 5 -6 17.5t6 17.5l28 5q17 3 27.5 7t16 15t7 31.5t1.5 55.5v368q0 35 -1.5 55.5t-7 31.5t-16 15t-27.5 7l-28 5q-6 5 -6 17.5t6 17.5q81 -3 152 -3q70 0 151 3q6 -5 6 -17.5t-6 -17.5l-28 -5q-17 -3 -27.5 -7t-16 -15t-7 -31.5
t-1.5 -55.5v-368z" />
    <glyph glyph-name="igrave" unicode="&#xec;" horiz-adv-x="286" 
d="M179 463q-3 -19 -25 -16l-141 139q-10 10 -16 19.5t-6 17.5q0 15 27 36q13 9 22 12.5t17 3.5t15.5 -6.5t15.5 -23.5zM214 116q0 -26 1 -41.5t5 -24t11.5 -12t19.5 -4.5l19 -2q6 -5 6 -17.5t-7 -17.5q-53 3 -120 3q-34 0 -64.5 -0.5t-55.5 -2.5q-7 5 -7 17.5t6 17.5l19 2
q12 1 19.5 4.5t11.5 12t5 24t1 41.5v151q0 30 -2.5 42t-16.5 22l-14 9q-5 5 -5 15t5 15q18 5 39 12t41.5 15t38.5 16t29 15q12 0 18 -9q-2 -23 -2.5 -54t-0.5 -65v-184z" />
    <glyph glyph-name="Iacute" unicode="&#xcd;" horiz-adv-x="371" 
d="M334 839q24 15 33 15q8 0 16.5 -6.5t18.5 -23.5q9 -16 10.5 -27.5t-0.5 -16.5q-2 -6 -9.5 -12.5t-23.5 -11.5l-219 -65q-6 2 -10 9.5t-2 15.5zM257 146q0 -35 1.5 -55.5t7 -31.5t16 -15t27.5 -7l28 -5q6 -5 5.5 -17.5t-6.5 -17.5q-81 3 -150 3q-71 0 -152 -3
q-6 5 -6 17.5t6 17.5l28 5q17 3 27.5 7t16 15t7 31.5t1.5 55.5v368q0 35 -1.5 55.5t-7 31.5t-16 15t-27.5 7l-28 5q-6 5 -6 17.5t6 17.5q81 -3 152 -3q70 0 151 3q6 -5 6 -17.5t-6 -17.5l-28 -5q-17 -3 -27.5 -7t-16 -15t-7 -31.5t-1.5 -55.5v-368z" />
    <glyph glyph-name="copyright" unicode="&#xa9;" horiz-adv-x="780" 
d="M672 331q0 63 -22.5 117t-61 94.5t-89.5 63.5t-109 23t-109 -23t-89.5 -63.5t-61 -94.5t-22.5 -117t22.5 -117.5t61 -95t89.5 -64t109 -23.5t109 23.5t89.5 64t61 95t22.5 117.5zM390 -16q-72 0 -136 27t-111.5 74t-75 110t-27.5 135t27.5 135t75 110t111.5 74t136 27
t136 -27t111.5 -74t75 -110t27.5 -135t-27.5 -135t-75 -110t-111.5 -74t-136 -27zM422 149q-64 0 -104.5 18.5t-64 45.5t-32 58.5t-8.5 57.5q0 40 14 74.5t41 60t66 40t88 14.5q42 0 70.5 -7t45.5 -10l4.5 -50t4.5 -53q-4 -5 -13 -6t-14 3q-8 27 -19.5 44t-24 26.5t-26 13.5
t-24.5 4q-17 0 -35.5 -7.5t-34 -24.5t-26 -45.5t-10.5 -71.5q0 -40 10 -68.5t25.5 -46.5t35.5 -26.5t41 -8.5q32 0 56.5 21t46.5 62q5 5 13 4t13 -6q-2 -24 -9.5 -49t-16.5 -40q-12 -8 -27.5 -13t-31 -8t-30 -4.5t-24.5 -1.5z" />
    <glyph glyph-name="adieresis" unicode="&#xe4;" horiz-adv-x="443" 
d="M328 487q-26 0 -44.5 15t-18.5 44q-1 28 17.5 46t45.5 18q26 0 43.5 -18t17.5 -41q0 -29 -17.5 -46.5t-43.5 -17.5zM118 487q-26 0 -44.5 15t-18.5 44q-1 28 17.5 46t45.5 18q26 0 43.5 -18t17.5 -41q0 -29 -17.5 -46.5t-43.5 -17.5zM251 163q1 12 -0.5 15.5t-6.5 2.5
q-34 -5 -59 -20t-25 -50q0 -24 15 -42t36 -18q23 0 30 13t8 36zM371 137q-1 -26 3 -42.5t11 -26t15 -13.5t16 -4q9 0 17.5 2.5t20.5 9.5q7 -2 10.5 -9t1.5 -14q-5 -6 -15.5 -15t-25.5 -18t-34.5 -15t-40.5 -6q-26 0 -45 9t-39 26q-9 8 -16 8q-5 0 -21 -11q-14 -10 -35.5 -21
t-49.5 -11q-22 0 -42 6.5t-35.5 19.5t-25 33t-9.5 46q0 38 24.5 62.5t79.5 41.5l51 15.5l43 12.5q14 4 18.5 9t5.5 11q1 8 1.5 16.5t0.5 17.5q0 14 -3 29.5t-10 28t-18 20.5t-27 8q-18 0 -32.5 -12.5t-19.5 -44.5q-2 -12 -6 -19.5t-11 -12.5q-6 -4 -15 -8t-19.5 -7.5
t-20.5 -5.5t-17 -2q-13 0 -18 7t-5 18q0 20 15 41.5t33 35.5q13 10 30.5 21t39.5 20t46.5 14.5t51.5 5.5q63 0 97.5 -33.5t30.5 -111.5z" />
    <glyph glyph-name="agrave" unicode="&#xe0;" horiz-adv-x="443" 
d="M268 463q-3 -19 -25 -16l-141 139q-10 10 -16 19.5t-6 17.5q0 15 27 36q13 9 22 12.5t17 3.5t15.5 -6.5t15.5 -23.5zM251 163q1 12 -0.5 15.5t-6.5 2.5q-34 -5 -59 -20t-25 -50q0 -24 15 -42t36 -18q23 0 30 13t8 36zM371 137q-1 -26 3 -42.5t11 -26t15 -13.5t16 -4
q9 0 17.5 2.5t20.5 9.5q7 -2 10.5 -9t1.5 -14q-5 -6 -15.5 -15t-25.5 -18t-34.5 -15t-40.5 -6q-26 0 -45 9t-39 26q-9 8 -16 8q-5 0 -21 -11q-14 -10 -35.5 -21t-49.5 -11q-22 0 -42 6.5t-35.5 19.5t-25 33t-9.5 46q0 38 24.5 62.5t79.5 41.5l51 15.5l43 12.5q14 4 18.5 9
t5.5 11q1 8 1.5 16.5t0.5 17.5q0 14 -3 29.5t-10 28t-18 20.5t-27 8q-18 0 -32.5 -12.5t-19.5 -44.5q-2 -12 -6 -19.5t-11 -12.5q-6 -4 -15 -8t-19.5 -7.5t-20.5 -5.5t-17 -2q-13 0 -18 7t-5 18q0 20 15 41.5t33 35.5q13 10 30.5 21t39.5 20t46.5 14.5t51.5 5.5
q63 0 97.5 -33.5t30.5 -111.5z" />
    <glyph glyph-name="Igrave" unicode="&#xcc;" horiz-adv-x="371" 
d="M231 716q2 -8 -2 -15.5t-10 -9.5l-219 65q-16 5 -23.5 11.5t-9.5 12.5q-2 5 -0.5 16.5t10.5 27.5q10 17 18.5 23.5t16.5 6.5q9 0 33 -15zM257 146q0 -35 1.5 -55.5t7 -31.5t16 -15t27.5 -7l28 -5q6 -5 5.5 -17.5t-6.5 -17.5q-81 3 -150 3q-71 0 -152 -3q-6 5 -6 17.5
t6 17.5l28 5q17 3 27.5 7t16 15t7 31.5t1.5 55.5v368q0 35 -1.5 55.5t-7 31.5t-16 15t-27.5 7l-28 5q-6 5 -6 17.5t6 17.5q81 -3 152 -3q70 0 151 3q6 -5 6 -17.5t-6 -17.5l-28 -5q-17 -3 -27.5 -7t-16 -15t-7 -31.5t-1.5 -55.5v-368z" />
    <glyph glyph-name="Ocircumflex" unicode="&#xd4;" horiz-adv-x="788" 
d="M414 755q-11 5 -19.5 5t-19.5 -5l-139 -65q-8 0 -13.5 9t-2.5 17l148 131q26 24 52 0l148 -131q3 -8 -2.5 -16.5t-11.5 -9.5zM588 320q0 64 -13.5 120.5t-39.5 98.5t-63 66.5t-83 24.5t-81.5 -20.5t-59.5 -58t-36 -89t-12 -114.5q0 -31 4 -66t13 -70.5t24.5 -68t38.5 -58
t54 -40.5t72 -15q49 0 83.5 22.5t56.5 61.5t32 92t10 114zM397 676q78 0 142.5 -25t111 -70.5t72 -108.5t25.5 -139q0 -82 -26 -146.5t-73.5 -109.5t-114 -69t-147.5 -24q-75 0 -139 24t-110 68t-72 107.5t-26 141.5q0 74 26.5 138t73.5 111.5t113 74.5t144 27z" />
    <glyph glyph-name="egrave" unicode="&#xe8;" horiz-adv-x="420" 
d="M266 463q-3 -19 -25 -16l-141 139q-10 10 -16 19.5t-6 17.5q0 15 27 36q13 9 22 12.5t17 3.5t15.5 -6.5t15.5 -23.5zM246 281q11 0 22 2t19 7q4 2 5.5 8.5t1.5 14.5q0 25 -13.5 40t-39.5 15q-16 0 -30 -7t-24.5 -17.5t-17 -23t-6.5 -24.5q0 -11 11 -13t35 -2h37zM180 237
q-17 0 -21 -3t-4 -15q0 -28 9 -54.5t26.5 -47.5t44 -33.5t61.5 -12.5q10 0 22.5 1.5t24.5 7t24 16t22 27.5q8 2 17 -4t9 -19q-15 -32 -36 -53.5t-44.5 -35t-48 -19.5t-46.5 -6q-51 0 -89.5 16.5t-65 44.5t-40 65t-13.5 78q0 47 16 88t45 71t68.5 47.5t86.5 17.5
q39 0 69 -11.5t50 -31.5t30.5 -46t10.5 -55q0 -14 -6.5 -23.5t-29.5 -9.5h-192z" />
    <glyph glyph-name="atilde" unicode="&#xe3;" horiz-adv-x="443" 
d="M180 515q-38 0 -59 -14t-35 -45q-5 -3 -15.5 -1.5t-13.5 7.5q2 11 6.5 24.5t10.5 27t13 25.5t13 20q14 16 28.5 19.5t35.5 3.5h109q32 0 52.5 10.5t32.5 41.5q7 2 16.5 1t12.5 -6q-5 -24 -14 -46.5t-21 -39.5q-11 -16 -24.5 -22t-38.5 -6h-109zM251 163q1 12 -0.5 15.5
t-6.5 2.5q-34 -5 -59 -20t-25 -50q0 -24 15 -42t36 -18q23 0 30 13t8 36zM371 137q-1 -26 3 -42.5t11 -26t15 -13.5t16 -4q9 0 17.5 2.5t20.5 9.5q7 -2 10.5 -9t1.5 -14q-5 -6 -15.5 -15t-25.5 -18t-34.5 -15t-40.5 -6q-26 0 -45 9t-39 26q-9 8 -16 8q-5 0 -21 -11
q-14 -10 -35.5 -21t-49.5 -11q-22 0 -42 6.5t-35.5 19.5t-25 33t-9.5 46q0 38 24.5 62.5t79.5 41.5l51 15.5l43 12.5q14 4 18.5 9t5.5 11q1 8 1.5 16.5t0.5 17.5q0 14 -3 29.5t-10 28t-18 20.5t-27 8q-18 0 -32.5 -12.5t-19.5 -44.5q-2 -12 -6 -19.5t-11 -12.5q-6 -4 -15 -8
t-19.5 -7.5t-20.5 -5.5t-17 -2q-13 0 -18 7t-5 18q0 20 15 41.5t33 35.5q13 10 30.5 21t39.5 20t46.5 14.5t51.5 5.5q63 0 97.5 -33.5t30.5 -111.5z" />
    <glyph glyph-name="Udieresis" unicode="&#xdc;" horiz-adv-x="740" 
d="M481 707q-26 0 -44 15t-18 44q-1 28 17 46t45 18t44 -18t17 -41q0 -29 -17 -46.5t-44 -17.5zM261 707q-26 0 -44 15t-18 44q-1 28 17 46t45 18t44 -18t17 -41q0 -29 -17 -46.5t-44 -17.5zM109 516q0 35 -1.5 55t-7 31t-15.5 15t-27 7l-25 5q-6 5 -6 17t8 17q72 -3 146 -3
t146 3q6 -5 6 -17t-6 -17l-24 -4q-17 -3 -27 -7.5t-15.5 -15.5t-7 -31t-1.5 -55v-231q0 -44 4.5 -88t21 -79t49.5 -57t90 -22q48 0 80 19.5t51.5 53.5t27.5 79.5t8 96.5v121q0 61 -3.5 112t-11.5 71q-7 16 -22.5 22t-35.5 10l-27 5q-6 6 -5.5 17.5t5.5 16.5q41 -2 72 -2.5
t62 -0.5q55 0 112 3q5 -5 5.5 -16.5t-5.5 -17.5l-18 -4q-20 -5 -33.5 -11t-20.5 -22q-8 -20 -11.5 -71t-3.5 -112v-112q0 -71 -11.5 -133t-52.5 -108q-33 -35 -85 -53.5t-113 -18.5q-57 0 -107 11.5t-91 44.5q-39 32 -56.5 88t-17.5 138v250z" />
    <glyph glyph-name="ecircumflex" unicode="&#xea;" horiz-adv-x="420" 
d="M366 466q-7 -17 -26 -19l-89 104q-17 20 -21 20t-21 -20l-89 -104q-19 2 -26 19l112 201q5 9 9.5 11.5t14.5 2.5t14.5 -2.5t9.5 -11.5zM246 281q11 0 22 2t19 7q4 2 5.5 8.5t1.5 14.5q0 25 -13.5 40t-39.5 15q-16 0 -30 -7t-24.5 -17.5t-17 -23t-6.5 -24.5q0 -11 11 -13
t35 -2h37zM180 237q-17 0 -21 -3t-4 -15q0 -28 9 -54.5t26.5 -47.5t44 -33.5t61.5 -12.5q10 0 22.5 1.5t24.5 7t24 16t22 27.5q8 2 17 -4t9 -19q-15 -32 -36 -53.5t-44.5 -35t-48 -19.5t-46.5 -6q-51 0 -89.5 16.5t-65 44.5t-40 65t-13.5 78q0 47 16 88t45 71t68.5 47.5
t86.5 17.5q39 0 69 -11.5t50 -31.5t30.5 -46t10.5 -55q0 -14 -6.5 -23.5t-29.5 -9.5h-192z" />
    <glyph glyph-name="numbersign" unicode="#" 
d="M393 396l-40 -147h88l-11 -64h-94l-50 -182h-60l48 182h-97l-50 -182h-59l48 182h-98l11 64h104l39 147h-99l12 65h104l43 163h64l-44 -163h95l43 163h65l-44 -163h90l-9 -65h-99zM234 396l-40 -147h97l39 147h-96z" />
    <glyph glyph-name="exclam" unicode="!" horiz-adv-x="254" 
d="M127 -14q-15 0 -29.5 6t-26 16.5t-18.5 25.5t-7 33q0 35 23.5 59t57.5 24q18 0 33 -7t25.5 -18.5t16.5 -26.5t6 -31q0 -35 -22.5 -58t-58.5 -23zM127 646q39 0 59.5 -8.5t20.5 -34.5q0 -12 -4 -38l-12 -79l-42 -281q-9 -6 -22 -6t-22 6l-42 281l-12 79t-4 38
q0 26 20.5 34.5t59.5 8.5z" />
    <glyph glyph-name="quotedbl" unicode="&#x22;" horiz-adv-x="472" 
d="M336 700q32 0 48 -5t16 -29q0 -8 -1.5 -21.5t-6.5 -35.5l-37 -205q-8 -6 -19 -6t-19 6l-37 205q-5 22 -6.5 35.5t-1.5 21.5q0 24 16 29t48 5zM136 700q32 0 48 -5t16 -29q0 -8 -1.5 -21.5t-6.5 -35.5l-37 -205q-8 -6 -19 -6t-19 6l-37 205q-5 22 -6.5 35.5t-1.5 21.5
q0 24 16 29t48 5z" />
    <glyph glyph-name="Lslash" unicode="&#x141;" horiz-adv-x="591" 
d="M263 321v-155q0 -35 3.5 -59t13.5 -36q5 -6 11.5 -11t18 -8t29.5 -4.5t45 -1.5q34 0 58 2.5t43 13.5t37 35t40 68q6 8 19.5 5.5t18.5 -11.5q-2 -20 -7 -43.5t-11 -46.5t-13 -42.5t-12 -29.5q-20 1 -47 1.5t-58 0.5q-30 1 -62.5 1h-63.5h-134q-35 0 -73 -0.5t-85 -2.5
q-7 5 -8 17.5t5 17.5l38 5q17 3 27 7t15.5 14.5t7 30.5t1.5 55v88l-82 -51q-8 5 -14.5 19.5t-3.5 28.5l100 62v225q0 35 -1.5 55t-7 31t-15.5 15t-27 7l-29 4q-8 5 -8 17.5t8 17.5q78 -3 152 -3q71 0 148 3q6 -5 6 -17.5t-6 -17.5l-26 -4q-17 -3 -27 -7t-15.5 -15t-7 -31
t-1.5 -55v-137l118 73q11 -2 17 -17t4 -28z" />
    <glyph glyph-name="lslash" unicode="&#x142;" horiz-adv-x="286" 
d="M212 332v-216q0 -26 1 -41.5t5 -24t12 -12t21 -4.5l17 -2q6 -5 6 -17.5t-7 -17.5q-50 3 -120 3q-32 0 -63 -0.5t-57 -2.5q-7 5 -7 17.5t6 17.5l19 2q12 1 19.5 4.5t11.5 12t5 24t1 41.5v119l-77 -56q-11 4 -17.5 17.5t-1.5 26.5l96 71v252q0 19 -0.5 31t-2 20t-6 12.5
t-11.5 9.5l-17 10q-5 5 -5 15t5 15q33 8 74 23.5t79 32.5q11 0 17 -7q-2 -31 -2.5 -64.5t-0.5 -81.5v-171l85 61q12 -5 18 -18t2 -26z" />
    <glyph glyph-name="onesuperior" unicode="&#xb9;" horiz-adv-x="400" 
d="M144 504q0 26 -5 39t-27 15l-31 4q-6 4 -6 14t6 14q22 3 45.5 8t45.5 12t41.5 14.5t34.5 15.5q10 0 12 -8q-1 -13 -2 -38t-1 -50v-200q0 -38 3.5 -51.5t26.5 -16.5l30 -4q5 -5 4 -14.5t-6 -12.5q-28 1 -57 1.5t-58 0.5q-28 0 -57 -0.5t-57 -1.5q-5 3 -6 12.5t4 14.5l30 4
q23 3 26.5 16.5t3.5 51.5v160z" />
    <glyph glyph-name="minus" unicode="&#x2212;" 
d="M60 177v72h401v-72h-401z" />
    <glyph glyph-name="onequarter" unicode="&#xbc;" horiz-adv-x="840" 
d="M140 504q0 26 -5 39t-27 15l-31 4q-6 4 -6 14t6 14q22 3 45.5 8t45.5 12t41.5 14.5t34.5 15.5q10 0 12 -8q-1 -13 -2 -38t-1 -50v-200q0 -38 3.5 -51.5t26.5 -16.5l30 -4q5 -5 4 -14.5t-6 -12.5q-28 1 -57 1.5t-58 0.5q-28 0 -57 -0.5t-57 -1.5q-5 3 -6 12.5t4 14.5l30 4
q23 3 26.5 16.5t3.5 51.5v160zM258 -40q-14 -3 -28 4t-19 20l370 670q11 1 27 -5t20 -19zM608 90q0 13 -2 15.5t-13 2.5h-153q-5 3 -7 9.5t0 13.5l216 283q5 5 9 8.5t11 3.5h29q8 0 9.5 -6t-6.5 -16l-196 -247q-4 -5 -1.5 -8t16.5 -3h73q11 0 13 3t2 14v75q0 11 5 15.5
t13 6.5q7 2 19.5 5l25 6t23 5t14.5 2q11 0 11 -10v-105q0 -11 2 -14t13 -3h44q4 -2 6 -7t2 -11t-2 -12t-6 -8h-44q-11 0 -13 -2.5t-2 -15.5v-14q0 -29 5 -39t31 -11l13 -1q5 -4 5 -13.5t-6 -13.5q-29 1 -56 1.5t-56 0.5t-56.5 -0.5t-49.5 -1.5q-6 3 -6.5 13t4.5 14l20 1
q15 1 23.5 3t12.5 7.5t4.5 14.5t0.5 25v14z" />
    <glyph glyph-name="onehalf" unicode="&#xbd;" horiz-adv-x="840" 
d="M557 0q-28 0 -42.5 -0.5t-22.5 -1.5q-5 3 -7 8.5t0 10.5l18 14t21 17.5l27 24.5t35 35q13 14 26.5 32t24.5 38.5t17.5 42.5t6.5 45q0 31 -15.5 50t-43.5 19q-25 0 -45.5 -16t-35.5 -43q-8 -5 -18 0t-10 17q26 51 67.5 75.5t87.5 24.5q66 0 100.5 -32t34.5 -80
q0 -32 -21 -65.5t-77 -79.5l-31 -23l-25 -21q-8 -6 -5 -11.5t13 -5.5h62q35 0 53 5t31 29q14 5 23 -4q-2 -12 -6.5 -27.5t-10 -30.5t-11.5 -28.5t-11 -20.5q-20 1 -45 1.5t-69 0.5h-96zM129 504q0 26 -5 39t-27 15l-31 4q-6 4 -6 14t6 14q22 3 45.5 8t45.5 12t41.5 14.5
t34.5 15.5q10 0 12 -8q-1 -13 -2 -38t-1 -50v-200q0 -38 3.5 -51.5t26.5 -16.5l30 -4q5 -5 4 -14.5t-6 -12.5q-28 1 -57 1.5t-58 0.5q-28 0 -57 -0.5t-57 -1.5q-5 3 -6 12.5t4 14.5l30 4q23 3 26.5 16.5t3.5 51.5v160zM246 -40q-14 -3 -28 4t-19 20l370 670q11 1 27 -5
t20 -19z" />
    <glyph glyph-name="Eth" unicode="&#xd0;" horiz-adv-x="803" 
d="M263 370h134q8 -8 8 -26t-8 -27h-134v-136q0 -42 3 -69t17 -43q14 -15 35 -22t48 -7q65 0 109.5 26t71.5 68t39 93.5t12 102.5q0 135 -70 211t-206 76q-42 0 -52 -13q-5 -6 -6 -20.5t-1 -37.5v-176zM120 317h-84q-8 9 -8 25.5t8 27.5h84v128q0 36 -1 58t-5.5 35
t-14.5 18.5t-27 7.5l-19 2q-4 2 -5.5 7.5t-1.5 11.5t2 11t7 5q31 2 62 3.5l63.5 3t67.5 2t75 0.5q62 0 121.5 -7t111.5 -26q49 -18 87 -48t63.5 -68t39 -82.5t13.5 -91.5q0 -101 -46 -178.5t-133 -120.5q-51 -26 -113 -36.5t-140 -10.5q-17 0 -35.5 1l-35.5 2q-33 3 -62 3
q-71 0 -156 -3q-6 5 -6 18t6 17l31 5q17 3 27 7t15.5 15t7 30.5t1.5 54.5v173z" />
    <glyph glyph-name="brokenbar" unicode="&#xa6;" horiz-adv-x="248" 
d="M168 -175h-88v350h88v-350zM168 325h-88v350h88v-350z" />
    <glyph glyph-name="thorn" unicode="&#xfe;" horiz-adv-x="533" 
d="M203 113q0 -35 23 -58q10 -11 23 -17t25 -6q47 0 71.5 44.5t24.5 114.5q0 74 -32 114t-82 40q-13 0 -24.5 -3t-17.5 -11q-4 -5 -7.5 -17t-3.5 -41v-160zM73 536q0 30 -2.5 42t-17.5 21l-17 10q-5 5 -5 15t5 15q31 8 72.5 23.5t80.5 32.5q11 0 17 -7q-2 -31 -2.5 -64.5
t-0.5 -81.5v-159q0 -2 2.5 -5t5.5 -4q21 11 53 25.5t74 14.5q40 0 71.5 -14.5t53.5 -40.5t33.5 -61t11.5 -75q0 -53 -18 -96.5t-50 -74.5t-77 -48.5t-100 -17.5q-11 0 -24.5 0.5t-20.5 2.5q-7 -2 -11 -7.5t-4 -21.5v-99q0 -26 1 -41.5t5 -24t11.5 -11.5t19.5 -4l34 -3
q6 -5 6 -17.5t-7 -17.5q-38 2 -70 2.5t-67 0.5q-65 0 -119 -3q-7 5 -7 17.5t6 17.5l20 2q12 1 19.5 4.5t11.5 12t5 24t1 41.5v675z" />
    <glyph glyph-name="yacute" unicode="&#xfd;" horiz-adv-x="469" 
d="M332 645q8 17 15.5 23.5t15.5 6.5t17 -3.5t22 -12.5q27 -21 27 -36q0 -8 -6 -17.5t-16 -19.5l-141 -139q-22 -3 -25 16zM-6 368q-5 5 -5 18.5t8 16.5q54 -3 132 -3q56 0 112 3q8 -3 8.5 -16.5t-5.5 -18.5l-20 -4q-21 -5 -25.5 -8.5t-4.5 -10.5q0 -9 8 -30l22 -59
l10 -26.5l12 -32l12 -31.5t11 -24l15.5 32.5l15.5 33.5l18 41q16 36 26.5 64.5t10.5 36.5q0 5 -6.5 8.5t-15.5 5.5l-20 4q-7 5 -6 19t9 16q17 -2 40 -2.5t57 -0.5q39 0 78 3q4 -2 6 -6.5t2 -10t-1.5 -11t-4.5 -7.5l-19 -2q-15 -2 -27 -7.5t-19 -14.5q-9 -12 -25.5 -41
t-33.5 -64l-53 -109l-33.5 -69l-42 -87.5l-42.5 -88l-34 -70.5q-16 -34 -37 -49.5t-49 -16.5q-20 0 -32.5 5.5t-19.5 14t-9.5 19.5t-2.5 21q0 23 15.5 37.5t41.5 14.5h24q18 0 29.5 5.5t19.5 15.5q8 11 14.5 25l14.5 30q5 9 9.5 21t4.5 21q0 10 -3.5 26t-15.5 47l-96 242
q-14 36 -25 51t-35 20z" />
    <glyph glyph-name="eth" unicode="&#xf0;" horiz-adv-x="516" 
d="M269 368q-19 0 -36 -9t-30 -29t-20.5 -52.5t-7.5 -78.5q0 -36 6 -67t17 -53t28 -34.5t39 -12.5q44 0 64 62q10 31 14 76.5t3 106.5q-1 28 -8 43.5t-16 24.5q-25 23 -53 23zM376 575q12 -14 25 -31.5t25 -37.5q35 -60 47.5 -119.5t12.5 -104.5q0 -84 -19 -140.5t-51.5 -91
t-76 -49.5t-92.5 -15q-42 0 -81 13t-69 38.5t-48 64t-18 90.5q-1 54 18.5 95t52.5 69.5t76 43t90 14.5q23 0 39 -3.5t28 -8.5q-4 33 -18 63.5t-35 63.5l-144 -70q-14 6 -17.5 21.5t1.5 26.5l131 63q-19 24 -41.5 44.5t-45.5 34.5q-15 9 -37 19.5t-45 13.5q-8 4 -9 16.5
t10 16.5q44 0 83.5 -9.5t65.5 -22.5q58 -26 104 -70l134 64q12 -5 17.5 -20.5t1.5 -26.5z" />
    <glyph glyph-name="Scaron" unicode="&#x160;" horiz-adv-x="506" 
d="M233 797q11 -5 19.5 -5t19.5 5l139 65q8 0 13 -7.5t3 -17.5l-148 -132q-26 -24 -52 0l-148 132q-2 10 3 17t11 8zM477 187q0 -46 -18 -83.5t-51 -64t-79.5 -41t-103.5 -14.5q-69 0 -111.5 14.5t-58.5 23.5q-7 8 -13 25t-10 39t-6.5 47t-2.5 51q5 10 18.5 10.5t19.5 -7.5
q7 -24 23 -52t38.5 -51t50.5 -38.5t60 -15.5q28 0 48 8.5t33.5 23t20 32.5t6.5 37q0 30 -13 54.5t-32.5 44t-44 34.5t-46.5 26q-27 13 -54 31.5t-48.5 42.5t-35 54t-13.5 67q0 42 16 77.5t46 60.5t73 39t97 14q25 0 54.5 -3.5t59.5 -12.5q17 -5 34 -8q6 -17 12 -54.5
t6 -88.5q-4 -9 -18 -10t-21 7q-6 19 -17.5 41t-28 40.5t-38 30.5t-48.5 12q-50 0 -76 -27.5t-26 -65.5q0 -35 26.5 -64.5t64.5 -49.5l66 -35q23 -12 48 -29.5t45.5 -42t34 -56.5t13.5 -73z" />
    <glyph glyph-name="multiply" unicode="&#xd7;" 
d="M312 204l146 -146l-52 -54l-147 147l-145 -147l-51 54l144 145l-144 145l51 54l146 -146l146 148l52 -53z" />
    <glyph glyph-name="twosuperior" unicode="&#xb2;" horiz-adv-x="400" 
d="M114 247q-28 0 -42.5 -0.5t-22.5 -1.5q-5 3 -7 8.5t0 10.5l18 14t21 17.5l27 24.5t35 35q13 14 26.5 32t24.5 38.5t17.5 42.5t6.5 45q0 31 -15.5 50t-43.5 19q-25 0 -45.5 -16t-35.5 -43q-8 -5 -18 0t-10 17q26 51 67.5 75.5t87.5 24.5q66 0 100.5 -32t34.5 -80
q0 -32 -21 -65.5t-77 -79.5l-31 -23l-25 -21q-8 -6 -5 -11.5t13 -5.5h62q35 0 53 5t31 29q14 5 23 -4q-2 -12 -6.5 -27.5t-10 -30.5t-11.5 -28.5t-11 -20.5q-20 1 -45 1.5t-69 0.5h-96z" />
    <glyph glyph-name="zcaron" unicode="&#x17e;" horiz-adv-x="415" 
d="M232 465q-5 -9 -9.5 -11.5t-14.5 -2.5t-14.5 2.5t-9.5 11.5l-112 201q7 17 26 19l89 -104q17 -20 21 -20t21 20l89 104q19 -2 26 -19zM126 0q-41 0 -63 -0.5t-34 -2.5q-11 4 -7 16l16.5 25.5l22.5 36.5l25 41.5l24 40.5l93 165q11 21 11 29q0 2 -5.5 3.5t-22.5 1.5h-31
q-27 0 -44 -4t-27 -15q-6 -6 -15 -20.5t-17 -37.5q-7 -6 -19.5 -3t-16.5 11q2 15 6 34l8 37.5t8.5 35t8.5 25.5q4 4 11 4t10 -4q1 -6 3 -9.5t7 -6t16 -3t30 -0.5h180q65 0 83 3q3 -2 5 -6t1 -7q-14 -20 -31 -48l-40 -69l-107 -182q-18 -32 -18 -41q0 -4 9 -5t31 -1h24
q32 0 56.5 7t37.5 27q10 15 30 54q6 6 19 4.5t17 -9.5q-1 -14 -5.5 -33.5t-10 -38.5t-11.5 -35t-11 -23q-31 1 -53 1.5t-40 0.5q-18 1 -34 1h-33h-97z" />
    <glyph glyph-name="Yacute" unicode="&#xdd;" horiz-adv-x="575" 
d="M481 839q24 15 33 15q8 0 16.5 -6.5t18.5 -23.5q9 -16 10.5 -27.5t-0.5 -16.5q-2 -6 -9.5 -12.5t-23.5 -11.5l-219 -65q-6 2 -10 9.5t-2 15.5zM367 144q0 -35 1.5 -55t7 -30.5t15.5 -14.5t27 -7l40 -5q5 -5 5 -17.5t-5 -17.5q-49 2 -87.5 2.5t-74.5 0.5t-74 -0.5
t-83 -2.5q-6 5 -6 17.5t6 17.5l34 5q17 3 27 7t15.5 14.5t7 30.5t1.5 55v50q0 19 -0.5 32.5t-3 26t-8 26.5t-15.5 34l-119 246l-14 26t-12.5 18.5t-15.5 11.5t-22 7l-34 6q-7 6 -6 19.5t10 15.5q34 -2 65.5 -2.5t75.5 -0.5q46 0 83 0.5t63 2.5q7 -3 8 -16t-6 -19l-34 -8
q-14 -3 -19 -5.5t-5 -3.5q0 -6 5 -20.5t21 -49.5l47 -107l24 -52l22 -46q22 37 43 78.5l41 79.5q29 54 40.5 80.5t11.5 35.5q0 8 -34 14l-23 4q-6 4 -6.5 17.5t7.5 17.5q60 -3 112 -3q29 0 52.5 0.5t45.5 2.5q9 -3 9.5 -16.5t-5.5 -18.5l-26 -5q-14 -3 -27 -8t-21 -16
q-11 -14 -31.5 -45.5t-56.5 -96.5l-63 -114q-10 -18 -16.5 -32t-11 -28.5t-6.5 -31t-2 -37.5v-70z" />
    <glyph glyph-name="threesuperior" unicode="&#xb3;" horiz-adv-x="400" 
d="M115 208q-13 0 -26.5 3t-24.5 9.5t-18 16.5t-7 24q0 13 9.5 27t33.5 14q9 0 16.5 -4t13.5 -10t10 -12.5t7 -10.5q10 -16 29 -17q10 0 23.5 6t24.5 18.5t19 32.5t8 48q0 39 -18 61.5t-47 22.5q-39 0 -67 -25q-14 3 -18 15.5t2 20.5l36.5 14.5t41 20.5t33.5 28t14 37
q0 17 -11.5 28.5t-33.5 11.5q-17 0 -36.5 -11.5t-37.5 -38.5q-9 -4 -17.5 2t-7.5 15q21 41 60 63t82 22q49 0 79 -21t30 -53q0 -22 -14.5 -40t-62.5 -38q-5 -2 -1.5 -5t9.5 -4q19 -2 38 -8.5t34 -18t24 -29t9 -42.5q0 -37 -19.5 -68t-63.5 -58q-42 -26 -85 -36.5t-70 -10.5z
" />
    <glyph glyph-name="Zcaron" unicode="&#x17d;" horiz-adv-x="614" 
d="M287 797q11 -5 19.5 -5t19.5 5l139 65q8 0 13 -7.5t3 -17.5l-148 -132q-26 -24 -52 0l-148 132q-2 10 3 17t11 8zM252 614q-44 0 -71 -6t-45 -20t-30 -36t-25 -53q-10 -6 -23 -3.5t-18 10.5q14 53 22.5 95l16.5 82q3 3 11.5 3t14.5 -2q2 -8 5.5 -12.5t11.5 -7t24 -3.5
t44 -1h286q52 0 78 0.5t39 2.5q8 -5 6 -15q-12 -13 -51 -67.5t-99 -146.5l-109 -169l-62.5 -97l-38.5 -60.5t-19.5 -33.5t-5.5 -15q0 -3 3 -5.5t12.5 -4t28 -2.5t48.5 -1h93q37 0 63 4t46.5 17t38.5 38t39 67q9 6 21.5 3.5t17.5 -10.5q-2 -21 -7 -46t-11 -49t-13 -44
t-13 -29q-32 1 -58.5 1.5t-51.5 0.5q-25 1 -49 1h-50h-252q-77 0 -101 -3q-5 2 -7.5 7t-0.5 10q6 6 16.5 21.5l23.5 35l27 40l25 37.5l197 300q7 10 18.5 28l23.5 38l23.5 39l18.5 31q5 10 7.5 14.5t2.5 9.5q0 3 -7.5 4.5t-26.5 1.5h-108z" />
    <glyph glyph-name="threequarters" unicode="&#xbe;" horiz-adv-x="840" 
d="M119 208q-13 0 -26.5 3t-24.5 9.5t-18 16.5t-7 24q0 13 9.5 27t33.5 14q9 0 16.5 -4t13.5 -10t10 -12.5t7 -10.5q10 -16 29 -17q10 0 23.5 6t24.5 18.5t19 32.5t8 48q0 39 -18 61.5t-47 22.5q-39 0 -67 -25q-14 3 -18 15.5t2 20.5l36.5 14.5t41 20.5t33.5 28t14 37
q0 17 -11.5 28.5t-33.5 11.5q-17 0 -36.5 -11.5t-37.5 -38.5q-9 -4 -17.5 2t-7.5 15q21 41 60 63t82 22q49 0 79 -21t30 -53q0 -22 -14.5 -40t-62.5 -38q-5 -2 -1.5 -5t9.5 -4q19 -2 38 -8.5t34 -18t24 -29t9 -42.5q0 -37 -19.5 -68t-63.5 -58q-42 -26 -85 -36.5t-70 -10.5z
M283 -40q-14 -3 -28 4t-19 20l370 670q11 1 27 -5t20 -19zM643 90q0 13 -2 15.5t-13 2.5h-153q-5 3 -7 9.5t0 13.5l216 283q5 5 9 8.5t11 3.5h29q8 0 9.5 -6t-6.5 -16l-196 -247q-4 -5 -1.5 -8t16.5 -3h73q11 0 13 3t2 14v75q0 11 5 15.5t13 6.5q7 2 19.5 5l25 6t23 5
t14.5 2q11 0 11 -10v-105q0 -11 2 -14t13 -3h44q4 -2 6 -7t2 -11t-2 -12t-6 -8h-44q-11 0 -13 -2.5t-2 -15.5v-14q0 -29 5 -39t31 -11l13 -1q5 -4 5 -13.5t-6 -13.5q-29 1 -56 1.5t-56 0.5t-56.5 -0.5t-49.5 -1.5q-6 3 -6.5 13t4.5 14l20 1q15 1 23.5 3t12.5 7.5t4.5 14.5
t0.5 25v14z" />
    <glyph glyph-name="Euro" unicode="&#x20ac;" horiz-adv-x="623" 
d="M71 388q11 52 38 98t68 80t95.5 53.5t121.5 19.5q45 0 78.5 -6.5t64.5 -14.5q8 -2 13.5 -3t11.5 -3q2 -17 4 -53t9 -74q-5 -10 -17 -11t-17 4q-6 16 -16.5 36.5t-28.5 37.5t-44.5 29t-62.5 12q-31 0 -60.5 -12t-53.5 -36.5t-41.5 -63.5t-23.5 -93h313q1 -4 1 -11
t-1 -13.5t-3.5 -12.5t-6.5 -8h-308q-1 -3 -1 -10.5v-15.5t0.5 -15.5t0.5 -11.5h288q3 -2 3.5 -8.5t-1 -14t-5 -14t-7.5 -8.5h-273q14 -106 65.5 -159.5t126.5 -53.5q33 0 58 11.5t44 28.5t32.5 36l24.5 35q6 6 17 4.5t15 -8.5q-11 -48 -22.5 -79t-20.5 -45l-15.5 -4
l-15.5 -4q-8 -3 -22 -6.5t-32.5 -6.5t-39.5 -5.5t-43 -2.5q-137 0 -219 68.5t-98 190.5h-63q-3 2 -2.5 8.5t2.5 14t4.5 14t5.5 8.5h49q-2 11 -1 26.5t3 26.5h-41q-3 2 -2.5 8.5t2.5 14t4.5 14t5.5 8.5h39z" />
    <glyph glyph-name="scaron" unicode="&#x161;" horiz-adv-x="358" 
d="M223 465q-5 -9 -9.5 -11.5t-14.5 -2.5t-14.5 2.5t-9.5 11.5l-112 201q7 17 26 19l89 -104q17 -20 21 -20t21 20l89 104q19 -2 26 -19zM164 -14q-84 0 -124 31q-8 15 -13 47t-3 66q5 8 17 8.5t17 -6.5q5 -15 14.5 -32.5t22.5 -32.5t29.5 -25t35.5 -10q23 0 37.5 13
t14.5 39q0 28 -20 45t-46 30q-45 23 -74 52t-29 74q0 33 12.5 57t34.5 40t51 24t61 8q38 0 68.5 -7.5t38.5 -13.5q8 -17 11.5 -44t3.5 -56q-3 -8 -16.5 -8.5t-18.5 4.5q-15 44 -34 61.5t-44 17.5q-22 0 -36 -12t-14 -32q0 -17 15 -32t49 -32q51 -25 80.5 -58t29.5 -82
q0 -33 -13.5 -58.5t-37 -42t-54.5 -25t-66 -8.5z" />
    <glyph glyph-name="Thorn" unicode="&#xde;" horiz-adv-x="594" 
d="M257 144q0 -35 1.5 -55t7 -30.5t15.5 -14.5t27 -7l33 -5q6 -5 6 -17.5t-6 -17.5q-44 2 -81 2.5t-73 0.5q-70 0 -152 -3q-6 5 -6 17.5t6 17.5l28 5q17 3 27 7t15.5 14.5t7 30.5t1.5 55v372q0 35 -1.5 55t-7 30.5t-15.5 14.5t-27 7l-28 5q-7 5 -6.5 17.5t9.5 17.5
q37 -2 75 -2.5t74 -0.5q72 0 149 3q8 -5 8 -17.5t-8 -17.5l-28 -5q-17 -3 -27 -6.5t-15.5 -13.5t-7 -28t-1.5 -49h67q36 0 69 -5.5t57 -14.5q24 -8 44.5 -22t36.5 -34.5t25 -47t9 -60.5q0 -47 -19.5 -80.5t-51 -55t-71.5 -31.5t-82 -10q-5 0 -9 0.5t-10 0.5q-8 4 -8 12.5
t5 13.5q28 9 46 22.5t28 31.5t13.5 41.5t3.5 53.5q0 24 -6.5 48.5t-20 44.5t-33.5 33t-48 13q-15 0 -24 -2t-13.5 -8t-5.5 -16t-2 -25v-285z" />
  </font>
</defs>
</svg>
